<?xml version="1.0" standalone="no"?>
<!DOCTYPE svg PUBLIC "-//W3C//DTD SVG 1.1//EN" "http://www.w3.org/Graphics/SVG/1.1/DTD/svg11.dtd" >
<svg xmlns="http://www.w3.org/2000/svg" xmlns:xlink="http://www.w3.org/1999/xlink" version="1.1">
<metadata>
Created by FontForge 20161003 at Tue May 16 16:44:54 2017
 By www-data
Copyright (c) 2010, Andrey Makarov (makarov@bmstu.ru, mka-at-mailru@mail.ru),
with Reserved Font Name Anka/Coder Narrow.
---------------------------------
The Anka/* are members of Anna Shugol name font family; March 2010
</metadata>
<defs>
<font id="AnkaCoderC75Regular" horiz-adv-x="922" >
  <font-face 
    font-family="AnkaCoderC75Regular"
    font-weight="400"
    font-stretch="condensed"
    units-per-em="2048"
    panose-1="2 11 5 9 2 5 2 2 2 4"
    ascent="1638"
    descent="-410"
    x-height="1024"
    cap-height="1400"
    bbox="-12 -615 1016 1797"
    underline-thickness="150"
    underline-position="-442"
    unicode-range="U+0020-266B"
  />
<missing-glyph 
d="M68 0v1365h544v-1365h-544zM136 68h408v1229h-408v-1229z" />
    <glyph glyph-name=".notdef" 
d="M68 0v1365h544v-1365h-544zM136 68h408v1229h-408v-1229z" />
    <glyph glyph-name=".null" horiz-adv-x="0" 
 />
    <glyph glyph-name="nonmarkingreturn" 
 />
    <glyph glyph-name="space" unicode=" " 
 />
    <glyph glyph-name="exclam" unicode="!" 
d="M458 1418q43 0 72 -30.5t29 -97.5l-24 -906h-146l-24 907q0 66 27 96.5t66 30.5zM610 125q0 -61 -44.5 -101t-105.5 -40q-59 0 -104 41t-45 100q0 57 43.5 99t105.5 42q61 0 105.5 -40t44.5 -101z" />
    <glyph glyph-name="quotedbl" unicode="&#x22;" 
d="M161 1001q-29 -48 -76 -48q-27 0 -46 20t-19 54q0 11 6 31l78 319q9 38 46.5 63t80.5 25q50 0 81 -37.5t31 -85.5q0 -34 -16 -59zM720 1001q-29 -48 -73 -48q-28 0 -48 20t-20 54q0 6 5 31l78 319q10 38 48 63t80 25q50 0 81 -37.5t31 -85.5q0 -32 -16 -59z" />
    <glyph glyph-name="numbersign" unicode="#" 
d="M327 491h219l54 407h-220zM262 0h-151l45 341h-135l20 150h135l54 407h-136l20 150h136l40 302h150l-40 -302h220l40 302h150l-40 -302h136l-20 -150h-136l-53 -407h136l-20 -150h-136l-45 -341h-151l45 341h-219z" />
    <glyph glyph-name="dollar" unicode="$" 
d="M386 881v383q-59 -19 -91 -70.5t-32 -130.5v-30q0 -36 24 -75t67 -61zM536 636v-500q64 22 106.5 78t42.5 123v30q0 194 -149 269zM536 -93h-150v73q-137 19 -229.5 108t-92.5 237h150q0 -82 48.5 -130t123.5 -63v580l-100 51q-77 40 -125 114.5t-48 155.5v30
q0 148 76 241t197 115v75h150v-73q295 -37 295 -358h-150q0 30 -1 47.5t-8.5 47.5t-22 49t-43.5 37t-70 25v-465l82 -42q110 -56 163.5 -162t53.5 -233v-30q0 -130 -87 -231.5t-212 -125.5v-73z" />
    <glyph glyph-name="percent" unicode="%" 
d="M910 263q0 -106 -67 -184.5t-168 -78.5q-110 0 -172.5 67t-62.5 196q0 60 16.5 107.5t42 76t58 47t62 25.5t56.5 7q58 0 102.5 -19t69 -46.5t39.5 -65.5t19.5 -69t4.5 -63zM760 263q0 45 -23 79t-62 34t-62 -34t-23 -79t23 -79t62 -34t62 34t23 79zM768 1363l128 -76
l-742 -1249l-128 76zM487 1145q0 -106 -67 -184.5t-168 -78.5q-110 0 -172.5 67t-62.5 196q0 60 16.5 107.5t42 76t58 47t62 25.5t56.5 7q58 0 102.5 -19t69 -46.5t39.5 -65.5t19.5 -69t4.5 -63zM337 1145q0 45 -23 79t-62 34t-62 -34t-23 -79t23 -79t62 -34t62 34t23 79z
" />
    <glyph glyph-name="ampersand" unicode="&#x26;" 
d="M620 229l-228 431l-72 -71q-60 -59 -83 -110t-23 -112v-30q0 -103 62 -157.5t153 -54.5h18q116 0 173 104zM697 83q-99 -108 -250 -108h-18q-153 0 -259 98.5t-106 263.5v30q0 182 144 322l110 108q-124 206 -124 343v22q0 40 27.5 111.5t78.5 109.5q64 42 152 42h19
q121 0 195.5 -75t74.5 -193v-39q0 -55 -32.5 -116.5t-88.5 -116.5l-117 -115l187 -354l71 199l142 -50l-118 -329l101 -191l-132 -70zM452 1275q-56 0 -82 -35t-26 -78v-22q0 -83 84 -234l88 87q25 24 50 66.5t25 58.5v39q0 53 -29.5 85.5t-90.5 32.5h-19z" />
    <glyph glyph-name="quotesingle" unicode="'" 
d="M440 1001q-28 -48 -74 -48q-28 0 -47 20t-19 54q0 18 4 31l79 319q9 38 47 63t80 25q51 0 81.5 -37.5t30.5 -85.5q0 -34 -15 -59z" />
    <glyph glyph-name="parenleft" unicode="(" 
d="M425 722q0 -226 104 -423.5t258 -319.5l-94 -118q-84 67 -157 155.5t-132.5 197.5t-94 240.5t-34.5 267.5q0 259 124 484t301 337l80 -126q-146 -92 -250.5 -284.5t-104.5 -410.5z" />
    <glyph glyph-name="parenright" unicode=")" 
d="M647 722q0 -264 -120 -492t-298 -369l-94 118q154 122 258 320t104 423q0 218 -104.5 410.5t-250.5 284.5l80 126q177 -112 301 -337t124 -484z" />
    <glyph glyph-name="asterisk" unicode="*" 
d="M736 349q14 -18 14 -44q0 -40 -30 -61q-20 -14 -43 -14q-39 0 -62 31l-154 211l-154 -211q-23 -31 -62 -31q-23 0 -43 14q-30 21 -30 61q0 26 14 44l154 212l-249 80q-23 7 -37.5 27.5t-14.5 44.5q0 12 4 23q7 23 27.5 37.5t43.5 14.5q12 0 23 -4l249 -81v262q0 31 22 53
t53 22t53 -22t22 -53v-262l249 81q11 4 23 4q23 0 43.5 -14.5t27.5 -37.5q4 -11 4 -23q0 -24 -14.5 -44.5t-37.5 -27.5l-249 -80z" />
    <glyph glyph-name="plus" unicode="+" 
d="M872 675v-150h-336v-368h-150v368h-336v150h336v336h150v-336h336z" />
    <glyph glyph-name="comma" unicode="," 
d="M607 65q0 -346 -298 -380l-15 55q49 18 96.5 59t47.5 85q0 56 -34 66q-45 13 -67.5 44.5t-22.5 70.5q0 59 41.5 102t104.5 43t105 -42t42 -103z" />
    <glyph glyph-name="hyphen" unicode="-" 
d="M872 675v-150h-822v150h822z" />
    <glyph glyph-name="period" unicode="." 
d="M514 -40h-2v12h-2v-14h4v2zM506 -40h-2v6h2v-6zM444 -22h2v6h4v-6h2v14h-6l-2 -4v-10zM447 -10h3v-4h-4v2zM458 -14v-8h2v8l-1 2h-5v-10h2v8h2zM466 -14v-8h2v8l-1 2h-5v-10h2v8h2zM472 -18h2v-2h-2v2zM471 -22h5v8l-1 2h-5v-2h4v-2h-3l-1 -2v-2zM482 -34v-8h2v8l-1 2h-3
v4h-2v-14h2v8h2zM475 -34h-5v4h6v2h-7l-1 -2v-4l1 -2h5v-4h-6v-2h7l1 2v4zM490 -40h-2v8h-2v-8l1 -2h5v10h-2v-8zM496 -40v6h2v-6h-2zM495 -32l-1 -2v-6l1 -2h3v-2h-4v-2h5l1 2v12h-5zM503 -32l-1 -2v-6l1 -2h4l1 2v6l-1 2h-4zM607 59q0 -60 -41.5 -102.5t-105.5 -42.5
q-62 0 -104 42.5t-42 102.5q0 59 41 102t105 43q63 0 105 -42.5t42 -102.5z" />
    <glyph glyph-name="slash" unicode="/" 
d="M670 1452l140 -52l-558 -1452l-140 52z" />
    <glyph glyph-name="zero" unicode="0" 
d="M461 1275q-112 0 -163 -127t-51 -416q0 -109 8 -208l384 580q-48 171 -178 171zM825 732q0 -87 -3 -157.5t-12.5 -151.5t-25 -143t-43.5 -121.5t-65.5 -98t-92 -62t-122.5 -23.5q-180 0 -272 182l-111 -167l-67 168l119 178q-33 158 -33 396q0 74 3 135t12 135
t24.5 131.5t43.5 114t65.5 94t92.5 60.5t123 23q187 0 278 -171l111 167l62 -175l-113 -171q26 -130 26 -343zM671 883l-381 -574q52 -184 171 -184q75 0 120.5 55.5t69.5 190t24 361.5q0 90 -4 151z" />
    <glyph glyph-name="one" unicode="1" 
d="M635 1425v-1425h-150v1083l-191 -117l-54 58l290 399l2 2h103z" />
    <glyph glyph-name="two" unicode="2" 
d="M452 1425h18q345 0 345 -281v-40q0 -43 -31.5 -139t-73.5 -155l-328 -466q-65 -91 -95 -194h545v-150h-692v188q29 80 63 146t51 90l334 474q43 60 60 117t17 89v40q0 76 -49 103.5t-146 27.5h-18q-85 0 -123 -27.5t-67 -95.5l-138 58q44 105 117.5 160t210.5 55z" />
    <glyph glyph-name="three" unicode="3" 
d="M452 1425h18q138 0 219 -81t81 -231v-41q0 -55 -28.5 -135.5t-72.5 -121.5q76 -64 111 -145.5t35 -202.5v-20q0 -72 -9 -135.5t-33 -127t-62 -108.5t-99.5 -73t-141.5 -28h-18q-89 0 -166.5 37t-128 113.5t-50.5 179.5h150q0 -51 20 -88.5t52 -56t62.5 -27t60.5 -8.5h18
q195 0 195 322v20q0 267 -195 267h-168v150h169q31 0 60.5 23.5t48 56t29.5 62.5t11 46v41q0 162 -150 162h-18q-63 0 -112.5 -29.5t-69.5 -81.5l-140 52q38 101 128 155t194 54z" />
    <glyph glyph-name="four" unicode="4" 
d="M597 1059l-305 -557h305v557zM90 447l536 978h121v-923h83v-150h-83v-352h-150v352h-507v95z" />
    <glyph glyph-name="five" unicode="5" 
d="M470 804h-22q-33 0 -86.5 -44t-82.5 -133l-146 114l72 659h569v-150h-435l-37 -348q79 52 150 52h18q87 0 154.5 -38t108 -103.5t61.5 -148t21 -177.5v-60q0 -113 -23.5 -198t-58 -132t-83.5 -76t-90.5 -37.5t-89.5 -8.5h-68q-94 0 -185 61t-133 162l129 88
q17 -73 76 -117t113 -44h68q44 0 76 12t60.5 43t43.5 93t15 154v60q0 57 -9 108.5t-29.5 100.5t-60.5 78.5t-96 29.5z" />
    <glyph glyph-name="six" unicode="6" 
d="M257 487v-60q0 -56 9 -105t29.5 -95.5t60.5 -74t96 -27.5h18q56 0 96 26.5t60.5 72t29.5 95.5t9 108v60q0 171 -50.5 244t-144.5 73h-18q-56 0 -96 -29.5t-60.5 -78.5t-29.5 -100.5t-9 -108.5zM452 954h18q38 0 73.5 -7.5t76.5 -25t74.5 -52t61.5 -84t43.5 -126
t15.5 -172.5v-60q0 -207 -90.5 -329.5t-254.5 -122.5h-18q-153 0 -249 118.5t-96 333.5v547q1 198 96 324.5t249 126.5h18q119 0 198.5 -37.5t117.5 -126.5l-138 -58q-16 38 -56 55t-122 17h-18q-55 0 -95.5 -30.5t-60.5 -80t-29.5 -96.5t-9.5 -94v-86q80 66 195 66z" />
    <glyph glyph-name="seven" unicode="7" 
d="M190 0q56 299 162.5 593.5t270.5 656.5h-533v150h742v-54l-24 -52q-181 -392 -293.5 -692.5t-171.5 -601.5h-153z" />
    <glyph glyph-name="eight" unicode="8" 
d="M451 884h20q66 0 107.5 46t41.5 103v72q0 86 -40 128t-110 42h-18q-59 0 -104.5 -46.5t-45.5 -122.5v-76q0 -11 8 -32.5t23.5 -48t46.5 -46t71 -19.5zM770 1105v-72q0 -60 -24.5 -119.5t-67.5 -99.5q137 -114 137 -387v-52q0 -95 -29 -172.5t-77.5 -126.5t-110 -75
t-128.5 -26h-18q-147 0 -246 104.5t-99 295.5v52q0 264 146 388q-39 36 -70 98.5t-31 120.5v72q0 148 83 233.5t217 85.5h18q64 0 116 -16.5t94.5 -52.5t66 -99.5t23.5 -151.5zM471 734h-20q-55 0 -95 -28t-60.5 -75t-29.5 -97.5t-9 -106.5v-52q0 -123 53 -186.5t142 -63.5
h18q93 0 144 65t51 185v52q0 169 -50 238t-144 69z" />
    <glyph glyph-name="nine" unicode="9" 
d="M665 930v75q0 133 -56 201.5t-139 68.5h-18q-195 0 -195 -270v-75q0 -82 18 -143t48.5 -94t64.5 -49t71 -16h11q44 0 76 12t60.5 43.5t43.5 93.5t15 153zM445 478q-41 0 -83 11.5t-89 43.5t-83 81t-59.5 130.5t-23.5 185.5v75q0 213 91.5 316.5t253.5 103.5h18
q161 0 253 -111.5t92 -308.5v-594q0 -100 -23 -178.5t-58.5 -125.5t-83 -78t-91.5 -42.5t-89 -11.5h-18q-118 0 -197.5 37.5t-117.5 126.5l138 58q16 -38 56.5 -55t120.5 -17h18q87 0 141 72t54 214v122q-79 -55 -195 -55h-25z" />
    <glyph glyph-name="colon" unicode=":" 
d="M514 818h-2v12h-2v-14h4v2zM506 818h-2v6h2v-6zM444 836h2v6h4v-6h2v14h-6l-2 -4v-10zM447 848h3v-4h-4v2zM458 844v-8h2v8l-1 2h-5v-10h2v8h2zM466 844v-8h2v8l-1 2h-5v-10h2v8h2zM472 840h2v-2h-2v2zM471 836h5v8l-1 2h-5v-2h4v-2h-3l-1 -2v-2zM482 824v-8h2v8l-1 2h-3
v4h-2v-14h2v8h2zM475 824h-5v4h6v2h-7l-1 -2v-4l1 -2h5v-4h-6v-2h7l1 2v4zM490 818h-2v8h-2v-8l1 -2h5v10h-2v-8zM496 818v6h2v-6h-2zM495 826l-1 -2v-6l1 -2h3v-2h-4v-2h5l1 2v12h-5zM503 826l-1 -2v-6l1 -2h4l1 2v6l-1 2h-4zM607 917q0 -60 -41.5 -102.5t-105.5 -42.5
q-62 0 -104 42.5t-42 102.5q0 59 41 102t105 43q63 0 105 -42.5t42 -102.5zM514 100h-2v12h-2v-14h4v2zM506 100h-2v6h2v-6zM444 118h2v6h4v-6h2v14h-6l-2 -4v-10zM447 130h3v-4h-4v2zM458 126v-8h2v8l-1 2h-5v-10h2v8h2zM466 126v-8h2v8l-1 2h-5v-10h2v8h2zM472 122h2v-2
h-2v2zM471 118h5v8l-1 2h-5v-2h4v-2h-3l-1 -2v-2zM482 106v-8h2v8l-1 2h-3v4h-2v-14h2v8h2zM475 106h-5v4h6v2h-7l-1 -2v-4l1 -2h5v-4h-6v-2h7l1 2v4zM490 100h-2v8h-2v-8l1 -2h5v10h-2v-8zM496 100v6h2v-6h-2zM495 108l-1 -2v-6l1 -2h3v-2h-4v-2h5l1 2v12h-5zM503 108
l-1 -2v-6l1 -2h4l1 2v6l-1 2h-4zM607 199q0 -60 -41.5 -102.5t-105.5 -42.5q-62 0 -104 42.5t-42 102.5q0 59 41 102t105 43q63 0 105 -42.5t42 -102.5z" />
    <glyph glyph-name="semicolon" unicode=";" 
d="M514 760h-2v12h-2v-14h4v2zM506 760h-2v6h2v-6zM444 778h2v6h4v-6h2v14h-6l-2 -4v-10zM447 790h3v-4h-4v2zM458 786v-8h2v8l-1 2h-5v-10h2v8h2zM466 786v-8h2v8l-1 2h-5v-10h2v8h2zM472 782h2v-2h-2v2zM471 778h5v8l-1 2h-5v-2h4v-2h-3l-1 -2v-2zM482 766v-8h2v8l-1 2h-3
v4h-2v-14h2v8h2zM475 766h-5v4h6v2h-7l-1 -2v-4l1 -2h5v-4h-6v-2h7l1 2v4zM490 760h-2v8h-2v-8l1 -2h5v10h-2v-8zM496 760v6h2v-6h-2zM495 768l-1 -2v-6l1 -2h3v-2h-4v-2h5l1 2v12h-5zM503 768l-1 -2v-6l1 -2h4l1 2v6l-1 2h-4zM607 859q0 -60 -41.5 -102.5t-105.5 -42.5
q-62 0 -104 42.5t-42 102.5q0 59 41 102t105 43q63 0 105 -42.5t42 -102.5zM607 65q0 -346 -298 -380l-15 55q49 18 96.5 59t47.5 85q0 56 -34 66q-45 13 -67.5 44.5t-22.5 70.5q0 59 41.5 102t104.5 43t105 -42t42 -103z" />
    <glyph glyph-name="less" unicode="&#x3c;" 
d="M90 636l742 611v-195l-550 -452l550 -452v-195l-742 611v72z" />
    <glyph glyph-name="equal" unicode="=" 
d="M872 917v-150h-822v150h822zM872 475v-150h-822v150h822z" />
    <glyph glyph-name="greater" unicode="&#x3e;" 
d="M90 1247l742 -611v-72l-742 -611v195l550 452l-550 452v195z" />
    <glyph glyph-name="question" unicode="?" 
d="M386 480q0 130 88 240l131 162q60 73 60 142v71q0 35 -9 65t-29.5 57t-60.5 42.5t-96 15.5h-18q-106 0 -150 -52t-45 -129l-150 2q1 149 94 239t251 90h18q160 0 252.5 -91.5t92.5 -238.5v-71q0 -116 -94 -236l-129 -162q-56 -70 -56 -146v-100h-150v100zM587 9
q0 -51 -36 -88.5t-90 -37.5t-90 37t-36 89t35 89.5t91 37.5q55 0 90.5 -37t35.5 -90z" />
    <glyph glyph-name="at" unicode="@" 
d="M611 510q45 0 67 32t27 97v287h-94q-45 0 -71.5 -51t-26.5 -141q0 -51 0.5 -77.5t3.5 -57t9 -43.5t17.5 -26t27.5 -16.5t40 -3.5zM363 734q0 66 12.5 123.5t39.5 108.5t77 80.5t119 29.5h94q-2 46 -17.5 81.5t-39.5 57.5t-56 36t-64 19t-67 5q-78 0 -134.5 -53t-85 -139
t-41.5 -173.5t-13 -177.5q0 -267 76 -437t198 -170q46 0 77.5 2t77 16t71.5 40l106 -106q-59 -60 -141 -81t-191 -21q-194 0 -309 197.5t-115 559.5q0 104 10.5 196t40 186t75.5 160.5t122.5 108.5t175.5 42q177 0 283.5 -95.5t110.5 -253.5v-736h-150v42q-44 -22 -94 -22
q-248 0 -248 374z" />
    <glyph glyph-name="A" unicode="A" 
d="M329 399h264l-132 605zM241 0h-153l311 1425h124l310 -1425h-153l-54 249h-330z" />
    <glyph glyph-name="B" unicode="B" 
d="M420 1400q36 0 59 -1t63 -7t66.5 -17t59 -33.5t51.5 -54t32.5 -81t13.5 -111.5v-71q0 -150 -73 -226q123 -93 123 -303v-148q0 -162 -86.5 -254.5t-258.5 -92.5h-363v1400h313zM665 347v148q0 66 -12 109t-38.5 66.5t-60 32.5t-84.5 9h-213v-562h213q105 0 150 47.5
t45 149.5zM615 1095q0 100 -38 127.5t-157 27.5h-163v-388h163q117 0 156 34.5t39 127.5v71z" />
    <glyph glyph-name="C" unicode="C" 
d="M487 -25h-31q-49 0 -93 14t-95 60.5t-87 122t-60 210.5t-24 314v67q0 662 358 662h32q54 0 100.5 -16t78 -38t58 -57t41 -62t27 -65t16 -53t8.5 -39l-146 -30q-13 64 -33 107.5t-45.5 65t-50 29.5t-54.5 8h-32q-105 0 -156.5 -125t-51.5 -387v-67q0 -73 4 -141
t17.5 -149.5t35 -141t61 -99.5t91.5 -40h31q16 0 29.5 2.5t35.5 14t39.5 32t36.5 61.5t32 97l146 -34q-20 -85 -53.5 -148t-66.5 -95.5t-74 -51.5t-68.5 -23.5t-56.5 -4.5z" />
    <glyph glyph-name="D" unicode="D" 
d="M825 775v-104q0 -121 -12.5 -221t-33.5 -168t-51.5 -120t-62 -82t-69 -49t-69 -25t-66.5 -6h-354v1400h354q75 0 134 -24t98 -69.5t66 -102t41 -130.5t19.5 -144.5t5.5 -154.5zM461 1250h-204v-1100h204q44 0 79 22.5t57.5 63t38.5 89.5t24 111t11.5 117.5t3.5 117.5v104
q0 177 -24.5 282.5t-70.5 149t-119 43.5z" />
    <glyph glyph-name="E" unicode="E" 
d="M257 712v-561h575v-151h-725v1400h725v-150h-575v-388h483v-150h-483z" />
    <glyph glyph-name="F" unicode="F" 
d="M257 712v-636h-150v1324h725v-150h-575v-388h483v-150h-483z" />
    <glyph glyph-name="G" unicode="G" 
d="M815 247q-41 -137 -131 -204.5t-197 -67.5h-31q-49 0 -93 14t-95 60.5t-87 122t-60 210.5t-24 314v67q0 662 358 662h32q54 0 100.5 -16t78 -38t58 -57t41 -62t27 -65t16 -53t8.5 -39l-146 -30q-13 64 -33 107.5t-45.5 65t-50 29.5t-54.5 8h-32q-105 0 -156.5 -125
t-51.5 -387v-67q0 -73 4 -141t17.5 -149.5t35 -141t61 -99.5t91.5 -40h31q63 0 110.5 40.5t67.5 102.5v274h-161v150h311v-445z" />
    <glyph glyph-name="H" unicode="H" 
d="M257 0h-150v1400h150v-593h408v593h150v-1400h-150v657h-408v-657z" />
    <glyph glyph-name="I" unicode="I" 
d="M832 1400v-150h-296v-1100h296v-150h-742v150h296v1100h-296v150h742z" />
    <glyph glyph-name="J" unicode="J" 
d="M852 1400v-150h-172v-913q0 -165 -83 -263.5t-217 -98.5h-18q-55 0 -100 12t-74.5 33.5t-50.5 43t-34 50t-18.5 44t-9.5 33.5l146 34q12 -53 44.5 -76.5t96.5 -23.5h18q43 0 74 19.5t46.5 52t22.5 67t7 73.5v913h-212v150h534z" />
    <glyph glyph-name="K" unicode="K" 
d="M108 0v1400h150v-648l397 648h176l-366 -597l383 -803h-167l-310 650l-113 -184v-466h-150z" />
    <glyph glyph-name="L" unicode="L" 
d="M257 151h575v-151h-725v1400h150v-1249z" />
    <glyph glyph-name="M" unicode="M" 
d="M26 0l101 1400h153l181 -735l181 735h153l101 -1400h-151l-66 923l-176 -712h-84l-176 712l-66 -923h-151z" />
    <glyph glyph-name="N" unicode="N" 
d="M257 0h-150v1400h135l423 -986v986h150v-1400h-136l-422 985v-985z" />
    <glyph glyph-name="O" unicode="O" 
d="M825 765v-69q0 -179 -24 -313.5t-60 -210t-86.5 -122t-94.5 -61t-93 -14.5h-11q-49 0 -93 14t-95 60.5t-87 122t-60 210.5t-24 314v67q0 662 358 662h12q358 0 358 -660zM467 1275h-12q-105 0 -156.5 -125t-51.5 -387v-67q0 -73 4 -141t17.5 -149.5t35 -141t61 -99.5
t91.5 -40h11q52 0 91.5 40.5t61 99.5t34.5 140.5t17 149.5t4 141v69q0 261 -51 385.5t-157 124.5z" />
    <glyph glyph-name="P" unicode="P" 
d="M257 642v-642h-150v1400h363q78 0 137 -15t108 -51.5t74.5 -104.5t25.5 -166v-91q0 -67 -16 -122.5t-52.5 -104t-107 -76t-169.5 -27.5h-213zM470 792q110 0 152.5 41t42.5 139v91q0 110 -40.5 148.5t-154.5 38.5h-213v-458h213z" />
    <glyph glyph-name="Q" unicode="Q" 
d="M467 1275h-12q-105 0 -156.5 -125t-51.5 -387v-67q0 -73 4 -141t17.5 -149.5t35 -141t61 -99.5t91.5 -40h11q25 0 46 9l-119 231l134 68l89 -173q58 147 58 436v69q0 261 -51 385.5t-157 124.5zM807 -110l-132 -68l-93 178q-56 -25 -115 -25h-11q-49 0 -93 14t-95 60.5
t-87 122t-60 210.5t-24 314v67q0 662 358 662h12q358 0 358 -660v-69q0 -416 -126 -595z" />
    <glyph glyph-name="R" unicode="R" 
d="M470 792q120 0 166 46t46 135v90q0 105 -45.5 146t-166.5 41h-231v-458h231zM89 0v1400h381q62 0 112.5 -9t98 -32t80 -60.5t52 -97t19.5 -138.5v-90q0 -55 -12.5 -103.5t-40.5 -94.5t-81 -79t-127 -46l288 -650h-164l-285 642h-171v-642h-150z" />
    <glyph glyph-name="S" unicode="S" 
d="M452 125h18q84 0 149.5 63.5t65.5 148.5v30q0 75 -36.5 153t-100.5 110l-262 133q-84 43 -128.5 116t-44.5 154v30q0 149 94.5 255.5t240.5 106.5h27q124 0 215.5 -57t125.5 -169q15 -49 15 -136h-150q0 61 -9 92q-36 120 -197 120h-27q-81 0 -133 -61.5t-52 -150.5v-30
q0 -34 20 -72t71 -64l264 -135q103 -53 160 -167.5t57 -227.5v-30q0 -148 -110 -255t-255 -107h-18q-96 0 -186 53.5t-146 142.5t-56 186h150q0 -86 76 -159t162 -73z" />
    <glyph glyph-name="T" unicode="T" 
d="M852 1400v-150h-316v-1250h-150v1250h-316v150h782z" />
    <glyph glyph-name="U" unicode="U" 
d="M257 337q0 -115 50.5 -163.5t144.5 -48.5h18q94 0 144.5 48.5t50.5 163.5v1063h150v-1063q0 -172 -91.5 -267t-253.5 -95h-18q-162 0 -253.5 94.5t-91.5 267.5v1063h150v-1063z" />
    <glyph glyph-name="V" unicode="V" 
d="M391 -25l-305 1425h153l222 -1038l224 1038h153l-307 -1425h-140z" />
    <glyph glyph-name="W" unicode="W" 
d="M127 0l-101 1400h151l66 -922l176 712h84l176 -712l66 922h151l-101 -1400h-153l-181 736l-181 -736h-153z" />
    <glyph glyph-name="X" unicode="X" 
d="M94 0l287 700l-287 700h161l206 -503l206 503h161l-287 -700l287 -700h-161l-206 503l-206 -503h-161z" />
    <glyph glyph-name="Y" unicode="Y" 
d="M386 -25v526l-296 899h157l215 -648l213 648h157l-295 -899l-1 -526h-150z" />
    <glyph glyph-name="Z" unicode="Z" 
d="M90 1250v150h742v-139l-567 -1110h567v-151h-742v140l567 1110h-567z" />
    <glyph glyph-name="bracketleft" unicode="[" 
d="M425 1405v-1410h315v-150h-465v1710h465v-150h-315z" />
    <glyph glyph-name="backslash" unicode="\" 
d="M112 1400l140 52l558 -1452l-140 -52z" />
    <glyph glyph-name="bracketright" unicode="]" 
d="M182 1555h465v-1710h-465v150h315v1410h-315v150z" />
    <glyph glyph-name="asciicircum" unicode="^" 
d="M525 1425l277 -409l-124 -84l-217 319l-217 -319l-124 84l277 409h128z" />
    <glyph glyph-name="underscore" unicode="_" 
d="M832 -17v-150h-742v150h742z" />
    <glyph glyph-name="grave" unicode="`" 
d="M685 1099q17 -20 17 -44q0 -29 -24 -53t-52 -24q-23 0 -45 17l-316 247q-45 37 -45 99q0 53 32 87q29 32 84 32q64 0 100 -46z" />
    <glyph glyph-name="a" unicode="a" 
d="M452 486q-50 0 -90 -17t-61.5 -42t-32.5 -48.5t-11 -41.5v-78q0 -43 49.5 -88.5t145.5 -45.5h18q74 0 134.5 66.5t60.5 110.5v184h-213zM452 1049h18q80 0 141.5 -19t99.5 -49.5t62 -74.5t33 -89t9 -98v-719h-150v49q-87 -66 -195 -74h-18q-78 0 -144.5 25t-109.5 66
t-67 91t-24 102v78q0 51 24 103.5t66.5 96.5t109.5 71.5t145 27.5h213v83q0 98 -43 139t-152 41h-18q-82 0 -121.5 -17.5t-55.5 -56.5l-138 58q37 90 116.5 128t198.5 38z" />
    <glyph glyph-name="b" unicode="b" 
d="M257 427q0 -135 57 -218.5t138 -83.5h18q56 0 96 26.5t60.5 72t29.5 95.5t9 108v170q0 58 -9 107.5t-29.5 95.5t-60.5 72.5t-96 26.5h-18q-56 0 -96 -26.5t-60.5 -72.5t-29.5 -95.5t-9 -107.5v-170zM452 1049h18q113 0 192.5 -61t116 -161t36.5 -230v-170
q0 -207 -90.5 -329.5t-254.5 -122.5h-18q-110 0 -195 73v-48h-150v1400h150v-413q81 62 195 62z" />
    <glyph glyph-name="c" unicode="c" 
d="M470 898h-18q-56 0 -96 -26.5t-60.5 -72t-29.5 -95t-9 -107.5v-170q0 -135 57 -218.5t138 -83.5h18q83 0 125 19.5t58 67.5l142 -48q-63 -189 -325 -189h-18q-148 0 -246.5 127t-98.5 325v170q0 130 36.5 230t116 160.5t192.5 60.5h18q268 0 327 -196l-144 -44
q-9 29 -25 47.5t-55 30.5t-103 12z" />
    <glyph glyph-name="d" unicode="d" 
d="M257 597v-170q0 -135 57 -218.5t138 -83.5h18q56 0 96 26.5t60.5 72t29.5 95.5t9 108v170q0 58 -9 107.5t-29.5 95.5t-60.5 72.5t-96 26.5h-18q-56 0 -96 -26.5t-60.5 -72.5t-29.5 -95.5t-9 -107.5zM452 1049h18q114 0 195 -62v413h150v-1400h-150v37q-81 -62 -195 -62
h-18q-148 0 -246.5 127.5t-98.5 324.5v170q0 130 36.5 230t116 161t192.5 61z" />
    <glyph glyph-name="e" unicode="e" 
d="M257 486v-149q0 -90 49.5 -151t145.5 -61h18q95 0 134 24.5t52 72.5l144 -40q-56 -207 -330 -207h-18q-160 0 -252.5 106t-92.5 256v382q0 53 9 98t33 89t62 74.5t99.5 49.5t141.5 19h18q80 0 141.5 -19t99.5 -49.5t62 -74.5t33 -89t9 -98v-233h-558zM665 636v83
q0 98 -43 139t-152 41h-18q-109 0 -152 -41t-43 -139v-83h408z" />
    <glyph glyph-name="f" unicode="f" 
d="M665 1185q0 36 -31 63t-74 27h-18q-49 0 -77 -29t-28 -62v-253h303v-150h-303v-781h-150v781h-197v150h197v253q0 23 5 49.5t22 62t43.5 63t74.5 47t110 19.5h18q72 0 137 -37t96 -106q22 -45 22 -97h-150z" />
    <glyph glyph-name="g" unicode="g" 
d="M665 -87q0 10 -12 27t-33.5 36.5t-61.5 33t-88 13.5h-18q-74 0 -134.5 -36.5t-60.5 -73.5v-20q0 -45 53 -86t142 -41h18q66 0 130.5 34.5t64.5 92.5v20zM470 899h-18q-70 0 -132.5 -55.5t-62.5 -124.5v-56q0 -73 62 -135t133 -62h18q71 0 133 62t62 135v56
q0 69 -62.5 124.5t-132.5 55.5zM172 62q-65 64 -65 153v66q0 98 79 176q-79 102 -79 206v56q0 129 105 229.5t240 100.5h18q109 0 206 -72q74 57 156 57v-150q-30 0 -57 -19q40 -72 40 -146v-56q0 -138 -106.5 -242.5t-238.5 -104.5h-18q-77 0 -153 43q-42 -35 -42 -73v-71
q0 -37 47 -69q74 27 148 27h18q81 0 149 -25t109.5 -64.5t64 -84t22.5 -86.5v-20q0 -113 -104 -195.5t-241 -82.5h-18q-87 0 -156.5 27.5t-109 70.5t-59.5 89.5t-20 90.5v20q0 74 65 149z" />
    <glyph glyph-name="h" unicode="h" 
d="M257 0h-150v1400h150v-443q89 92 195 92h18q80 0 141.5 -19t99.5 -49.5t62 -74.5t33 -89t9 -98v-719h-150v719q0 98 -43 139t-152 41h-18q-48 0 -94.5 -53.5t-73.5 -123.5t-27 -125v-597z" />
    <glyph glyph-name="i" unicode="i" 
d="M352 1297q0 49 33.5 83t82.5 34t83.5 -34t34.5 -83t-34.5 -83t-83.5 -34t-82.5 34t-33.5 83zM182 1024h354v-874h204v-150h-558v150h204v724h-204v150z" />
    <glyph glyph-name="j" unicode="j" 
d="M533 1297q0 49 33.5 83t82.5 34t83.5 -34t34.5 -83t-34.5 -83t-83.5 -34t-82.5 34t-33.5 83zM476 -219q50 0 79.5 28t29.5 82v983h-318v150h468v-1133q0 -117 -73.5 -188.5t-185.5 -71.5q-107 0 -183 77.5t-76 181.5h150q0 -42 32.5 -75.5t76.5 -33.5z" />
    <glyph glyph-name="k" unicode="k" 
d="M107 0v1425h150v-832l425 518l116 -96l-327 -399l358 -616h-175l-285 492l-112 -136v-356h-150z" />
    <glyph glyph-name="l" unicode="l" 
d="M182 1400h354v-1250h204v-150h-558v150h204v1100h-204v150z" />
    <glyph glyph-name="m" unicode="m" 
d="M316 899q-41 0 -70 -56t-29 -124v-719h-150v1024h150q47 25 99 25h10q107 0 160 -65q70 65 149 65h10q48 0 85.5 -14t59 -39t36 -50.5t20 -56t7.5 -47.5t2 -33v-809h-150v809q0 51 -14 70.5t-46 19.5h-10q-43 0 -71 -55t-28 -125v-719h-150v809q0 51 -14 70.5t-46 19.5
h-10z" />
    <glyph glyph-name="n" unicode="n" 
d="M257 0h-150v1024h150v-67q89 92 195 92h18q80 0 141.5 -19t99.5 -49.5t62 -74.5t33 -89t9 -98v-719h-150v719q0 98 -43 139t-152 41h-18q-48 0 -94.5 -53.5t-73.5 -123.5t-27 -125v-597z" />
    <glyph glyph-name="o" unicode="o" 
d="M825 562v-92q0 -116 -23.5 -206.5t-59 -143.5t-83.5 -87t-92.5 -46t-90.5 -12h-35q-168 0 -256 138t-88 358v90q0 100 19.5 185t59.5 154t107.5 108.5t155.5 39.5h39q89 0 157 -39t108.5 -107t61 -154t20.5 -186zM478 898h-39q-55 0 -94.5 -30.5t-59.5 -82.5t-29 -107
t-9 -117v-90q0 -63 9 -119.5t29.5 -110t60.5 -85t95 -31.5h35q46 0 81.5 20.5t57.5 54t35.5 79.5t19 92.5t5.5 98.5v92q0 49 -5 94t-19 90t-35.5 78t-56.5 53.5t-81 20.5z" />
    <glyph glyph-name="p" unicode="p" 
d="M257 427q0 -135 57 -218.5t138 -83.5h18q56 0 96 26.5t60.5 72t29.5 95.5t9 108v170q0 58 -9 107.5t-29.5 95.5t-60.5 72.5t-96 26.5h-18q-56 0 -96 -26.5t-60.5 -72.5t-29.5 -95.5t-9 -107.5v-170zM257 -385h-150v1409h150v-37q81 62 195 62h18q113 0 192.5 -61
t116 -161t36.5 -230v-170q0 -207 -90.5 -329.5t-254.5 -122.5h-18q-110 0 -195 73v-433z" />
    <glyph glyph-name="q" unicode="q" 
d="M257 597v-170q0 -135 57 -218.5t138 -83.5h18q56 0 96 26.5t60.5 72t29.5 95.5t9 108v170q0 58 -9 107.5t-29.5 95.5t-60.5 72.5t-96 26.5h-18q-56 0 -96 -26.5t-60.5 -72.5t-29.5 -95.5t-9 -107.5zM452 1049h18q114 0 195 -62v37h150v-1409h-150v422q-81 -62 -195 -62
h-18q-148 0 -246.5 127.5t-98.5 324.5v170q0 130 36.5 230t116 161t192.5 61z" />
    <glyph glyph-name="r" unicode="r" 
d="M257 0h-150v1024h150v-125q119 150 265 150h18q199 0 274 -150l-134 -68q-18 35 -49 51.5t-91 16.5h-18q-61 0 -123.5 -66.5t-102 -167.5t-39.5 -195v-470z" />
    <glyph glyph-name="s" unicode="s" 
d="M665 719q0 79 -51.5 129.5t-143.5 50.5h-18q-96 0 -145.5 -32.5t-49.5 -77.5v-12q3 -35 17.5 -56.5t28.5 -26.5l377 -175q55 -26 95 -82t40 -136v-46q0 -124 -99 -202t-246 -78h-48q-104 0 -185 54t-120.5 135.5t-39.5 172.5h150q0 -80 53.5 -146t141.5 -66h48
q78 0 136.5 34t58.5 96v46q0 26 -16 49.5t-33 32.5l-375 173q-37 18 -65 49.5t-42 65t-20.5 60.5t-6.5 46v12q0 66 34.5 118t88.5 82t111 45t111 15h18q113 0 193 -46.5t116 -119.5t36 -164h-150z" />
    <glyph glyph-name="t" unicode="t" 
d="M540 125q37 0 69.5 23t35.5 67h150q-5 -59 -27 -104.5t-50.5 -70t-64.5 -40.5t-62.5 -20.5t-50.5 -4.5h-18q-97 0 -176 69.5t-79 166.5v16l31 631h-208v150h215l21 417h150l-20 -417h284v-150h-291l-32 -639v-8q0 -29 29.5 -57.5t75.5 -28.5h18z" />
    <glyph glyph-name="u" unicode="u" 
d="M665 1024h150v-1024h-150v88q-100 -113 -215 -113h-18q-66 0 -121.5 18t-102.5 57.5t-74 112.5t-27 174v687h150v-687q0 -120 43.5 -166t131.5 -46h18q47 0 99 58t84 134t32 130v577z" />
    <glyph glyph-name="v" unicode="v" 
d="M405 -25l-305 1049h156l205 -705l205 705h157l-306 -1049h-112z" />
    <glyph glyph-name="w" unicode="w" 
d="M134 0l-106 1024h152l61 -594l172 519h96l172 -519l61 594h152l-106 -1024h-122l-205 617l-205 -617h-122z" />
    <glyph glyph-name="x" unicode="x" 
d="M97 0l278 512l-278 512h171l193 -355l193 355h171l-279 -512l279 -512h-171l-193 354l-193 -354h-171z" />
    <glyph glyph-name="y" unicode="y" 
d="M841 1024l-261 -1154q-15 -65 -42 -112.5t-54.5 -71t-62 -37t-55 -16t-42.5 -2.5q-79 0 -145.5 50.5t-95.5 120.5l138 56q13 -31 43 -54t60 -23q34 0 67 37.5t45 91.5l44 195l-372 919h163l267 -660l149 660h154z" />
    <glyph glyph-name="z" unicode="z" 
d="M87 113l547 761h-494v150h697v-124l-539 -750h539v-150h-750v113z" />
    <glyph glyph-name="braceleft" unicode="{" 
d="M620 1405q-86 0 -140.5 -43.5t-54.5 -119.5v-272q0 -67 -29 -133t-83 -111q53 -53 82.5 -131t29.5 -165v-272q0 -76 54 -119.5t141 -43.5h120v-150h-120q-150 0 -247.5 87t-97.5 226v272q0 53 -16.5 103.5t-53 87t-85.5 36.5h-30v150h30q73 0 114 51t41 112v272
q0 139 97.5 226t247.5 87h120v-150h-120z" />
    <glyph glyph-name="bar" unicode="|" 
d="M386 1477h150v-1554h-150v1554z" />
    <glyph glyph-name="braceright" unicode="}" 
d="M210 1555q150 0 247.5 -87t97.5 -226v-272q0 -61 41 -112t114 -51h30v-150h-30q-72 0 -113.5 -71t-41.5 -156v-272q0 -139 -97.5 -226t-247.5 -87h-120v150h120q87 0 141 43.5t54 119.5v272q0 87 29.5 165t82.5 131q-54 45 -83 111t-29 133v272q0 76 -54.5 119.5
t-140.5 43.5h-120v150h120z" />
    <glyph glyph-name="asciitilde" unicode="~" 
d="M317 1052h15q80 0 151 -59l75 -63q26 -22 42 -22h15q28 0 55.5 24t42.5 68l142 -46q-30 -91 -97 -143.5t-153 -52.5h-15q-60 0 -128 57l-75 64q-26 23 -55 23h-15q-80 0 -106 -91l-144 42q28 98 95.5 148.5t154.5 50.5z" />
    <glyph glyph-name="nonbreakingspace" unicode="&#xa0;" 
 />
    <glyph glyph-name="exclamdown" unicode="&#xa1;" 
d="M463 -23q-43 0 -72 30.5t-29 97.5l24 906h146l24 -907q0 -66 -27 -96.5t-66 -30.5zM311 1270q0 61 44.5 101t105.5 40q59 0 104 -41t45 -100q0 -57 -43.5 -99t-105.5 -42q-61 0 -105.5 40t-44.5 101z" />
    <glyph glyph-name="cent" unicode="&#xa2;" 
d="M531 1195l148 -26l-27 -151q108 -47 145 -166l-144 -44q-10 33 -30 52l-132 -735q72 2 109 22t53 65l142 -48q-63 -189 -325 -189h-6l-18 -98l-148 26l19 105q-96 49 -153 160.5t-57 258.5v170q0 130 36.5 230t116 160.5t192.5 60.5h18q23 0 34 -1zM477 898h-25
q-56 0 -96 -26.5t-60.5 -72t-29.5 -95t-9 -107.5v-170q0 -173 89 -257z" />
    <glyph glyph-name="sterling" unicode="&#xa3;" 
d="M633 1192q-53 83 -163 83h-18q-195 0 -195 -192v-39q0 -41 37 -115l62 -123h364v-150h-301q18 -72 18 -140v-46q0 -130 -85 -271h39q93 0 128 -23l69 -45q11 -6 37 -6h25q24 0 59.5 9t55.5 29l114 -96q-85 -92 -229 -92h-25q-29 0 -63 8t-52 20l-71 47q-10 7 -51 7
q-50 0 -114 -16.5t-110 -44.5l-34 -21l-80 126l32 21q70 45 137.5 148.5t67.5 199.5v46q0 73 -24 140h-193v150h119l-29 57q-18 36 -27 57.5t-17.5 56t-8.5 67.5v39q0 163 95.5 252.5t249.5 89.5h18q39 0 79.5 -8t88 -32.5t84 -62.5t63 -104.5t30.5 -151.5l-150 -6
q-1 30 -10 71t-22 61z" />
    <glyph glyph-name="currency" unicode="&#xa4;" 
d="M787 796v-24q0 -85 -48 -162l124 -124l-106 -106l-124 124q-78 -50 -164 -50h-16q-87 0 -164 50l-124 -124l-106 106l125 125q-49 76 -49 161v24q0 81 48 158l-124 124l106 106l123 -123q80 53 165 53h16q86 0 165 -53l123 123l106 -106l-124 -124q48 -77 48 -158z
M469 964h-16q-61 0 -114.5 -55t-53.5 -113v-24q0 -64 54 -116t114 -52h16q61 0 114.5 52t53.5 116v24q0 58 -53.5 113t-114.5 55z" />
    <glyph glyph-name="yen" unicode="&#xa5;" 
d="M832 457v-150h-295v-109h295v-150h-296v-208h-149v208h-297v150h297v109h-297v150h297v44l-297 899h157l215 -648l213 648h157l-295 -899v-44h295z" />
    <glyph glyph-name="brokenbar" unicode="&#xa6;" 
d="M386 600h150v-677h-150v677zM386 1477h150v-645h-150v645z" />
    <glyph glyph-name="section" unicode="&#xa7;" 
d="M470 891h-18q-74 0 -134.5 -56t-60.5 -121v-47q0 -72 61.5 -124.5t133.5 -52.5h18q72 0 133.5 52t61.5 125v47q0 65 -60.5 121t-134.5 56zM453 1041h17q136 0 240.5 -99t104.5 -228v-47q0 -148 -138 -254q62 -46 100 -109.5t38 -131.5v-23q0 -127 -98 -222.5t-220 -95.5
h-16q-96 0 -177.5 67.5t-116.5 153.5l138 58q20 -48 66 -88.5t90 -40.5h16q62 0 115 52.5t53 115.5v23q0 57 -66.5 112.5t-129.5 55.5h-17q-136 0 -240.5 97.5t-104.5 229.5v47q0 76 37 150t95 113q-60 49 -96 114t-36 133v23q0 123 99 220.5t219 97.5h16q86 0 167.5 -61
t123.5 -153l-136 -62q-22 47 -67 86.5t-88 39.5h-16q-61 0 -114.5 -55t-53.5 -113v-23q0 -62 67 -122.5t129 -60.5z" />
    <glyph glyph-name="dieresis" unicode="&#xa8;" 
d="M327 1524q0 -46 -32.5 -80.5t-77.5 -34.5q-46 0 -79 33.5t-33 81.5q0 49 33.5 81t76.5 32q47 0 79.5 -33.5t32.5 -79.5zM816 1524q0 -49 -33 -82t-76 -33q-45 0 -78 34t-33 81q0 48 33 80.5t78 32.5q42 0 75.5 -32t33.5 -81z" />
    <glyph glyph-name="copyright" unicode="&#xa9;" 
d="M908 593q0 -88 -29.5 -170.5t-83.5 -148.5t-141 -106t-193 -40q-104 0 -190.5 39t-141.5 104t-85 148t-30 174q0 92 30.5 175t86.5 147.5t141.5 102.5t188.5 38q137 0 240.5 -64.5t155 -168.5t51.5 -230zM461 930q-151 0 -236 -98t-85 -239q0 -140 84.5 -239.5
t236.5 -99.5q79 0 142 29t101 77.5t58 108t20 124.5q0 90 -33.5 164.5t-108 123.5t-179.5 49zM457 346q-109 0 -177 70t-68 176t67.5 176t177.5 70q113 0 181 -72l-99 -92q-29 29 -82 29q-56 0 -83 -31.5t-27 -79.5q0 -47 27 -79t83 -32q55 0 83 31l99 -92q-70 -74 -182 -74
z" />
    <glyph glyph-name="ordfeminine" unicode="&#xaa;" 
d="M832 394v-150h-742v150h742zM469 668q53 0 104 54t51 101v115h-170q-46 0 -79.5 -14.5t-48 -35t-21 -36t-6.5 -25.5v-43q0 -40 41.5 -78t113.5 -38h15zM454 1088h170v64q0 85 -37.5 120t-117.5 35h-15q-112 0 -141 -69l-138 58q68 161 279 161h15q140 0 222.5 -76.5
t82.5 -228.5v-616h-150v39q-69 -49 -155 -57h-15q-54 0 -106 16t-97.5 46.5t-73.5 83.5t-28 120v39q0 33 9.5 67.5t32 70.5t56.5 64t87.5 45.5t119.5 17.5z" />
    <glyph glyph-name="guillemotleft" unicode="&#xab;" 
d="M708 86l-191 318v129l191 319l128 -76l-169 -285v-45l169 -284zM288 86l-191 318v129l191 319l128 -76l-169 -285v-45l169 -284z" />
    <glyph glyph-name="logicalnot" unicode="&#xac;" 
d="M50 675h765v-461h-150v311h-615v150z" />
    <glyph glyph-name="softhyphen" unicode="&#xad;" 
d="M700 675v-150h-478v150h478z" />
    <glyph glyph-name="registered" unicode="&#xae;" 
d="M419 597h58q31 0 44.5 17.5t13.5 34.5v27q0 10 -15.5 23t-42.5 13h-58v-115zM140 595q0 -90 35 -166t109.5 -125.5t176.5 -49.5q79 0 142 29.5t101 78.5t58 109t20 124q0 66 -19.5 125.5t-58 107t-101 75t-142.5 27.5q-148 0 -234.5 -95.5t-86.5 -239.5zM281 825h196
q56 0 96 -14t58 -37.5t25.5 -45t7.5 -44.5v-31q0 -89 -77 -127l83 -118l-109 -78l-125 175h-20v-136h-135v456zM908 595q0 -88 -29 -170.5t-83.5 -149.5t-141.5 -107t-193 -40q-104 0 -190.5 39.5t-141.5 105t-85 149t-30 173.5q0 92 30.5 175t86.5 146.5t141.5 101.5
t188.5 38q106 0 192 -38t141 -102.5t84.5 -147t29.5 -173.5z" />
    <glyph glyph-name="macron" unicode="&#xaf;" 
d="M230 464v150h453v-150h-453z" />
    <glyph glyph-name="degree" unicode="&#xb0;" 
d="M761 1108q0 -126 -82 -213.5t-218 -87.5t-218 87t-82 214q0 128 82.5 214t217.5 86q138 0 219 -86t81 -214zM461 1258q-75 0 -112.5 -43t-37.5 -107t37.5 -107.5t112.5 -43.5t112.5 44t37.5 107q0 27 -7 51t-22.5 47.5t-46.5 37.5t-74 14z" />
    <glyph glyph-name="plusminus" unicode="&#xb1;" 
d="M872 183v-150h-822v150h822zM872 937v-150h-336v-368h-150v368h-336v150h336v336h150v-336h336z" />
    <glyph glyph-name="twosuperior" unicode="&#xb2;" 
d="M477 1425h10q105 0 164 -62.5t59 -145.5v-22q0 -38 -16.5 -94.5t-50.5 -95.5l-182 -209q-13 -16 -33 -71h258v-150h-406v181q31 94 65 134l182 209q17 19 25 50t8 46v22q0 58 -73 58h-10q-34 0 -49 -9.5t-25 -31.5l-138 60q31 70 80.5 100.5t131.5 30.5z" />
    <glyph glyph-name="threesuperior" unicode="&#xb3;" 
d="M455 1285q-70 0 -98 -52l-137 62q9 15 24.5 33.5t45 45t73 44t92.5 17.5h12q99 0 161 -64.5t62 -158.5v-23q0 -72 -48 -141q78 -59 78 -201v-11q0 -129 -69 -204t-184 -75h-12q-92 0 -172.5 75.5t-80.5 179.5h150q0 -40 35 -72.5t68 -32.5h12q103 0 103 129v11
q0 100 -103 100h-111v150h112q23 0 47.5 29t24.5 63v23q0 32 -18.5 52.5t-54.5 20.5h-12z" />
    <glyph glyph-name="acute" unicode="&#xb4;" 
d="M411 1189l-158 114l259 363l158 -114z" />
    <glyph glyph-name="micro" unicode="&#xb5;" 
d="M665 60q-90 -85 -195 -85h-18q-110 0 -195 66v-66q0 -116 -8 -185.5t-37 -160.5l-142 46q24 74 30.5 132.5t6.5 167.5v1049h150v-627q0 -113 50.5 -192.5t144.5 -79.5h18q49 0 95.5 46.5t73 109.5t26.5 116v627h150v-925q0 -19 2.5 -34t5 -23.5t9 -26.5t10.5 -32
l-144 -46q-4 13 -10.5 32.5t-10 30.5t-7.5 27t-5 33z" />
    <glyph glyph-name="paragraph" unicode="&#xb6;" 
d="M305 689q-44 7 -81 27.5t-72 60.5t-55 111.5t-20 168.5v70q0 159 86 253.5t199 94.5h453v-1475h-150v1325h-210v-1325h-150v689z" />
    <glyph glyph-name="periodcentered" unicode="&#xb7;" 
d="M606 747q0 -60 -41 -103t-105 -43q-62 0 -104 43t-42 103q0 59 41.5 103t104.5 44t104.5 -43.5t41.5 -103.5z" />
    <glyph glyph-name="cedilla" unicode="&#xb8;" 
d="M612 -270q0 39 -41 61.5t-82 22.5h-80l14 189v15h150v-21l-4 -60q193 -35 193 -207q0 -58 -28 -103t-71 -68t-84.5 -34t-77.5 -11q-140 0 -250 95l98 104q68 -59 152 -59q35 0 73 20.5t38 55.5z" />
    <glyph glyph-name="onesuperior" unicode="&#xb9;" 
d="M601 1425v-784h-150v589l-90 -51l-48 57l174 187l4 2h110z" />
    <glyph glyph-name="ordmasculine" unicode="&#xba;" 
d="M832 394v-150h-742v150h742zM782 983q0 -229 -85.5 -344.5t-235.5 -115.5t-235.5 115.5t-85.5 344.5q0 118 21.5 206.5t54 139t78 81.5t84.5 40.5t83 9.5t83 -9.5t84.5 -40.5t78 -81.5t54 -139t21.5 -206.5zM461 1310q-51 0 -86.5 -30t-53 -81.5t-24.5 -103.5t-7 -112
q0 -163 43.5 -236.5t127.5 -73.5t127.5 73.5t43.5 236.5q0 60 -7 112t-24.5 103.5t-53 81.5t-86.5 30z" />
    <glyph glyph-name="guillemotright" unicode="&#xbb;" 
d="M255 446v45l-169 285l128 76l191 -319v-129l-191 -318l-128 76zM675 446v45l-169 285l128 76l191 -319v-129l-191 -318l-128 76z" />
    <glyph glyph-name="onequarter" unicode="&#xbc;" 
d="M703 245l-74 -129h74v129zM670 1452l140 -52l-558 -1452l-140 52zM477 153l243 422h133v-459h33v-150h-33v-175h-150v175h-226v187zM291 1581v-778h-150v559l-91 -62l-47 51l191 229l2 1h95z" />
    <glyph glyph-name="onehalf" unicode="&#xbd;" 
d="M462 402q32 69 78.5 107.5t133.5 38.5h10q109 0 166 -60.5t57 -162.5v-22q0 -38 -16.5 -94.5t-50.5 -95.5l-183 -211q-10 -11 -25 -37h251v-150h-455l24 94q31 120 91 191l181 207q17 19 25 50t8 46v22q0 43 -15.5 58t-57.5 15h-10q-11 0 -20 -1t-15.5 -4.5t-11 -6
t-9 -9.5t-6 -10t-6 -12.5t-6.5 -12.5zM670 1452l140 -52l-558 -1452l-140 52zM291 1581v-778h-150v559l-91 -62l-47 51l191 229l2 1h95z" />
    <glyph glyph-name="threequarters" unicode="&#xbe;" 
d="M17 1460q2 6 6.5 15.5t23 34t41 43.5t62.5 34.5t86 15.5h10q87 0 148 -63.5t61 -139.5v-11q0 -72 -49 -132q76 -69 76 -182v-11q0 -67 -16 -118.5t-39.5 -80.5t-56.5 -47t-62 -23.5t-61 -5.5h-11q-105 0 -170.5 49.5t-65.5 144.5v2h153q2 -46 83 -46h11q25 0 43 12.5
t26.5 33t12 39.5t3.5 40v11q0 51 -27.5 78.5t-69.5 27.5h-69l-1 149h82q24 0 41 20t17 39v11q0 14 -18 33.5t-41 19.5h-10q-55 0 -81 -49zM703 245l-74 -129h74v129zM740 1453l140 -53l-558 -1452l-140 52zM477 153l243 422h133v-459h33v-150h-33v-175h-150v175h-226v187z
" />
    <glyph glyph-name="questiondown" unicode="&#xbf;" 
d="M536 910q0 -130 -88 -240l-131 -162q-60 -73 -60 -142v-71q0 -35 9 -65t29.5 -57t60.5 -42.5t96 -15.5h18q106 0 150 52t45 129l150 -2q-1 -149 -94 -239t-251 -90h-18q-160 0 -252.5 91.5t-92.5 238.5v71q0 116 94 236l129 162q56 70 56 146v100h150v-100zM335 1381
q0 51 36 88.5t90 37.5t90 -37t36 -89t-35 -89.5t-91 -37.5q-55 0 -90.5 37t-35.5 90z" />
    <glyph glyph-name="Agrave" unicode="&#xc0;" 
d="M598 1517l-140 -135l-258 272l140 135zM329 399h264l-132 605zM241 0h-153l311 1425h124l310 -1425h-153l-54 249h-330z" />
    <glyph glyph-name="Aacute" unicode="&#xc1;" 
d="M477 1384l-140 135l258 272l140 -135zM329 399h264l-132 605zM241 0h-153l311 1425h124l310 -1425h-153l-54 249h-330z" />
    <glyph glyph-name="Acircumflex" unicode="&#xc2;" 
d="M539 1706l166 -117l-86 -121l-157 108l-157 -108l-86 121l166 117h154zM329 399h264l-132 605zM241 0h-153l311 1425h124l310 -1425h-153l-54 249h-330z" />
    <glyph glyph-name="Atilde" unicode="&#xc3;" 
d="M129 1634q91 115 193 115h16q87 0 151 -55l19 -17q22 -18 51 -18h17q23 2 38 11.5t36 41.5l16 24l124 -84l-16 -24q-80 -119 -198 -119h-17q-33 0 -76.5 14.5t-74.5 41.5l-21 18q-18 16 -49 16h-16q-17 0 -32.5 -11.5t-40.5 -42.5l-19 -26l-120 90zM329 399h264l-132 605
zM241 0h-153l311 1425h124l310 -1425h-153l-54 249h-330z" />
    <glyph glyph-name="Adieresis" unicode="&#xc4;" 
d="M328 1595q0 -46 -32.5 -80.5t-77.5 -34.5q-46 0 -79 33.5t-33 81.5q0 49 33.5 81t76.5 32q47 0 79.5 -33.5t32.5 -79.5zM817 1595q0 -49 -33 -82t-76 -33q-45 0 -78 34t-33 81q0 48 33 80.5t78 32.5q42 0 75.5 -32t33.5 -81zM329 399h264l-132 605zM241 0h-153l311 1425
h124l310 -1425h-153l-54 249h-330z" />
    <glyph glyph-name="Aring" unicode="&#xc5;" 
d="M252 1489q0 84 58 143t142 59t144 -59t60 -143t-60 -143t-144 -59t-142 59t-58 143zM362 1489q0 -38 26.5 -65t64.5 -27t65.5 27t27.5 65t-27.5 65t-65.5 27t-64.5 -27t-26.5 -65zM329 399h264l-132 605zM241 0h-153l311 1425h124l310 -1425h-153l-54 249h-330z" />
    <glyph glyph-name="AE" unicode="&#xc6;" 
d="M446 839v411q-94 -8 -107 -93l-47 -318h154zM16 0l175 1179q14 95 83 156t172 65h375v-150h-225v-411h174v-150h-174v-539h225v-150h-375v689h-177l-102 -689h-151z" />
    <glyph glyph-name="Ccedilla" unicode="&#xc7;" 
d="M622 -276q0 39 -41 61.5t-82 22.5h-80l14 189v15h150v-21l-4 -60q193 -35 193 -207q0 -58 -28 -103t-71 -68t-84.5 -34t-77.5 -11q-140 0 -250 95l98 104q68 -59 152 -59q35 0 73 20.5t38 55.5zM487 -25h-31q-49 0 -93 14t-95 60.5t-87 122t-60 210.5t-24 314v67
q0 662 358 662h32q54 0 100.5 -16t78 -38t58 -57t41 -62t27 -65t16 -53t8.5 -39l-146 -30q-13 64 -33 107.5t-45.5 65t-50 29.5t-54.5 8h-32q-105 0 -156.5 -125t-51.5 -387v-67q0 -73 4 -141t17.5 -149.5t35 -141t61 -99.5t91.5 -40h31q16 0 29.5 2.5t35.5 14t39.5 32
t36.5 61.5t32 97l146 -34q-20 -85 -53.5 -148t-66.5 -95.5t-74 -51.5t-68.5 -23.5t-56.5 -4.5z" />
    <glyph glyph-name="Egrave" unicode="&#xc8;" 
d="M597 1519l-140 -135l-258 272l140 135zM257 712v-561h575v-151h-725v1400h725v-150h-575v-388h483v-150h-483z" />
    <glyph glyph-name="Eacute" unicode="&#xc9;" 
d="M476 1384l-140 135l258 272l140 -135zM257 712v-561h575v-151h-725v1400h725v-150h-575v-388h483v-150h-483z" />
    <glyph glyph-name="Ecircumflex" unicode="&#xca;" 
d="M538 1705l166 -117l-86 -121l-157 108l-157 -108l-86 121l166 117h154zM257 712v-561h575v-151h-725v1400h725v-150h-575v-388h483v-150h-483z" />
    <glyph glyph-name="Edieresis" unicode="&#xcb;" 
d="M327 1592q0 -46 -32.5 -80.5t-77.5 -34.5q-46 0 -79 33.5t-33 81.5q0 49 33.5 81t76.5 32q47 0 79.5 -33.5t32.5 -79.5zM816 1592q0 -49 -33 -82t-76 -33q-45 0 -78 34t-33 81q0 48 33 80.5t78 32.5q42 0 75.5 -32t33.5 -81zM257 712v-561h575v-151h-725v1400h725v-150
h-575v-388h483v-150h-483z" />
    <glyph glyph-name="Igrave" unicode="&#xcc;" 
d="M598 1519l-140 -135l-258 272l140 135zM832 1400v-150h-296v-1100h296v-150h-742v150h296v1100h-296v150h742z" />
    <glyph glyph-name="Iacute" unicode="&#xcd;" 
d="M477 1384l-140 135l258 272l140 -135zM832 1400v-150h-296v-1100h296v-150h-742v150h296v1100h-296v150h742z" />
    <glyph glyph-name="Icircumflex" unicode="&#xce;" 
d="M539 1705l166 -117l-86 -121l-157 108l-157 -108l-86 121l166 117h154zM832 1400v-150h-296v-1100h296v-150h-742v150h296v1100h-296v150h742z" />
    <glyph glyph-name="Idieresis" unicode="&#xcf;" 
d="M328 1592q0 -46 -32.5 -80.5t-77.5 -34.5q-46 0 -79 33.5t-33 81.5q0 49 33.5 81t76.5 32q47 0 79.5 -33.5t32.5 -79.5zM817 1592q0 -49 -33 -82t-76 -33q-45 0 -78 34t-33 81q0 48 33 80.5t78 32.5q42 0 75.5 -32t33.5 -81zM832 1400v-150h-296v-1100h296v-150h-742v150
h296v1100h-296v150h742z" />
    <glyph glyph-name="Eth" unicode="&#xd0;" 
d="M825 732q0 -71 -2.5 -131.5t-11.5 -138t-24.5 -139.5t-43 -124.5t-65 -104t-93 -68t-124.5 -26.5h-314v681h-105v150h105v569h314q68 0 122.5 -21t92 -55.5t65 -87t43.5 -107.5t25.5 -126t12.5 -133t3 -138zM461 1250h-164v-419h155v-150h-155v-531h164
q109 0 161.5 142.5t52.5 439.5q0 286 -50 402t-164 116z" />
    <glyph glyph-name="Ntilde" unicode="&#xd1;" 
d="M129 1641q91 115 193 115h16q87 0 151 -55l19 -17q22 -18 51 -18h17q23 2 38 11.5t36 41.5l16 24l124 -84l-16 -24q-80 -119 -198 -119h-17q-33 0 -76.5 14.5t-74.5 41.5l-21 18q-18 16 -49 16h-16q-17 0 -32.5 -11.5t-40.5 -42.5l-19 -26l-120 90zM257 0h-150v1400h135
l423 -986v986h150v-1400h-136l-422 985v-985z" />
    <glyph glyph-name="Ograve" unicode="&#xd2;" 
d="M603 1519l-140 -135l-258 272l140 135zM825 765v-69q0 -179 -24 -313.5t-60 -210t-86.5 -122t-94.5 -61t-93 -14.5h-11q-49 0 -93 14t-95 60.5t-87 122t-60 210.5t-24 314v67q0 662 358 662h12q358 0 358 -660zM467 1275h-12q-105 0 -156.5 -125t-51.5 -387v-67
q0 -73 4 -141t17.5 -149.5t35 -141t61 -99.5t91.5 -40h11q52 0 91.5 40.5t61 99.5t34.5 140.5t17 149.5t4 141v69q0 261 -51 385.5t-157 124.5z" />
    <glyph glyph-name="Oacute" unicode="&#xd3;" 
d="M482 1383l-140 135l258 272l140 -135zM825 765v-69q0 -179 -24 -313.5t-60 -210t-86.5 -122t-94.5 -61t-93 -14.5h-11q-49 0 -93 14t-95 60.5t-87 122t-60 210.5t-24 314v67q0 662 358 662h12q358 0 358 -660zM467 1275h-12q-105 0 -156.5 -125t-51.5 -387v-67
q0 -73 4 -141t17.5 -149.5t35 -141t61 -99.5t91.5 -40h11q52 0 91.5 40.5t61 99.5t34.5 140.5t17 149.5t4 141v69q0 261 -51 385.5t-157 124.5z" />
    <glyph glyph-name="Ocircumflex" unicode="&#xd4;" 
d="M544 1704l166 -117l-86 -121l-157 108l-157 -108l-86 121l166 117h154zM825 765v-69q0 -179 -24 -313.5t-60 -210t-86.5 -122t-94.5 -61t-93 -14.5h-11q-49 0 -93 14t-95 60.5t-87 122t-60 210.5t-24 314v67q0 662 358 662h12q358 0 358 -660zM467 1275h-12
q-105 0 -156.5 -125t-51.5 -387v-67q0 -73 4 -141t17.5 -149.5t35 -141t61 -99.5t91.5 -40h11q52 0 91.5 40.5t61 99.5t34.5 140.5t17 149.5t4 141v69q0 261 -51 385.5t-157 124.5z" />
    <glyph glyph-name="Otilde" unicode="&#xd5;" 
d="M135 1637q91 115 193 115h16q87 0 151 -55l19 -17q22 -18 51 -18h17q23 2 38 11.5t36 41.5l16 24l124 -84l-16 -24q-80 -119 -198 -119h-17q-33 0 -76.5 14.5t-74.5 41.5l-21 18q-18 16 -49 16h-16q-17 0 -32.5 -11.5t-40.5 -42.5l-19 -26l-120 90zM825 765v-69
q0 -179 -24 -313.5t-60 -210t-86.5 -122t-94.5 -61t-93 -14.5h-11q-49 0 -93 14t-95 60.5t-87 122t-60 210.5t-24 314v67q0 662 358 662h12q358 0 358 -660zM467 1275h-12q-105 0 -156.5 -125t-51.5 -387v-67q0 -73 4 -141t17.5 -149.5t35 -141t61 -99.5t91.5 -40h11
q52 0 91.5 40.5t61 99.5t34.5 140.5t17 149.5t4 141v69q0 261 -51 385.5t-157 124.5z" />
    <glyph glyph-name="Odieresis" unicode="&#xd6;" 
d="M333 1590q0 -46 -32.5 -80.5t-77.5 -34.5q-46 0 -79 33.5t-33 81.5q0 49 33.5 81t76.5 32q47 0 79.5 -33.5t32.5 -79.5zM822 1590q0 -49 -33 -82t-76 -33q-45 0 -78 34t-33 81q0 48 33 80.5t78 32.5q42 0 75.5 -32t33.5 -81zM825 765v-69q0 -179 -24 -313.5t-60 -210
t-86.5 -122t-94.5 -61t-93 -14.5h-11q-49 0 -93 14t-95 60.5t-87 122t-60 210.5t-24 314v67q0 662 358 662h12q358 0 358 -660zM467 1275h-12q-105 0 -156.5 -125t-51.5 -387v-67q0 -73 4 -141t17.5 -149.5t35 -141t61 -99.5t91.5 -40h11q52 0 91.5 40.5t61 99.5t34.5 140.5
t17 149.5t4 141v69q0 261 -51 385.5t-157 124.5z" />
    <glyph glyph-name="multiply" unicode="&#xd7;" 
d="M698 975l108 -104l-242 -255l242 -255l-108 -104l-237 250l-237 -250l-108 104l242 255l-242 255l108 104l237 -250z" />
    <glyph glyph-name="Oslash" unicode="&#xd8;" 
d="M461 1275q-112 0 -163 -127t-51 -416q0 -109 8 -208l384 580q-48 171 -178 171zM825 732q0 -87 -3 -157.5t-12.5 -151.5t-25 -143t-43.5 -121.5t-65.5 -98t-92 -62t-122.5 -23.5q-180 0 -272 182l-111 -167l-67 168l119 178q-33 158 -33 396q0 74 3 135t12 135
t24.5 131.5t43.5 114t65.5 94t92.5 60.5t123 23q187 0 278 -171l111 167l62 -175l-113 -171q26 -130 26 -343zM671 883l-381 -574q52 -184 171 -184q75 0 120.5 55.5t69.5 190t24 361.5q0 90 -4 151z" />
    <glyph glyph-name="Ugrave" unicode="&#xd9;" 
d="M597 1518l-140 -135l-258 272l140 135zM257 337q0 -115 50.5 -163.5t144.5 -48.5h18q94 0 144.5 48.5t50.5 163.5v1063h150v-1063q0 -172 -91.5 -267t-253.5 -95h-18q-162 0 -253.5 94.5t-91.5 267.5v1063h150v-1063z" />
    <glyph glyph-name="Uacute" unicode="&#xda;" 
d="M476 1384l-140 135l258 272l140 -135zM257 337q0 -115 50.5 -163.5t144.5 -48.5h18q94 0 144.5 48.5t50.5 163.5v1063h150v-1063q0 -172 -91.5 -267t-253.5 -95h-18q-162 0 -253.5 94.5t-91.5 267.5v1063h150v-1063z" />
    <glyph glyph-name="Ucircumflex" unicode="&#xdb;" 
d="M538 1703l166 -117l-86 -121l-157 108l-157 -108l-86 121l166 117h154zM257 337q0 -115 50.5 -163.5t144.5 -48.5h18q94 0 144.5 48.5t50.5 163.5v1063h150v-1063q0 -172 -91.5 -267t-253.5 -95h-18q-162 0 -253.5 94.5t-91.5 267.5v1063h150v-1063z" />
    <glyph glyph-name="Udieresis" unicode="&#xdc;" 
d="M327 1591q0 -46 -32.5 -80.5t-77.5 -34.5q-46 0 -79 33.5t-33 81.5q0 49 33.5 81t76.5 32q47 0 79.5 -33.5t32.5 -79.5zM816 1591q0 -49 -33 -82t-76 -33q-45 0 -78 34t-33 81q0 48 33 80.5t78 32.5q42 0 75.5 -32t33.5 -81zM257 337q0 -115 50.5 -163.5t144.5 -48.5h18
q94 0 144.5 48.5t50.5 163.5v1063h150v-1063q0 -172 -91.5 -267t-253.5 -95h-18q-162 0 -253.5 94.5t-91.5 267.5v1063h150v-1063z" />
    <glyph glyph-name="Yacute" unicode="&#xdd;" 
d="M477 1383l-140 135l258 272l140 -135zM386 -25v526l-296 899h157l215 -648l213 648h157l-295 -899l-1 -526h-150z" />
    <glyph glyph-name="Thorn" unicode="&#xde;" 
d="M470 520q195 0 195 227v223q0 102 -42.5 143.5t-152.5 41.5h-213v-635h213zM257 0h-150v1540h150v-235h213q345 0 345 -335v-223q0 -172 -91.5 -274.5t-253.5 -102.5h-213v-370z" />
    <glyph glyph-name="germandbls" unicode="&#xdf;" 
d="M107 1096q0 52 9 97t33 89t62 74.5t99.5 49.5t141.5 19h18q140 0 217.5 -90t77.5 -252v-39q0 -81 -21 -147.5t-58 -102.5q129 -101 129 -309v-148q0 -165 -82.5 -263.5t-217.5 -98.5h-8q-114 0 -185 68l104 108q28 -26 81 -26h8q43 0 74 19.5t46.5 52t22.5 67t7 73.5v148
q0 46 -9 83.5t-29.5 71.5t-60.5 53t-96 19h-68v150h18q113 0 154 43.5t41 138.5v39q0 192 -145 192h-18q-109 0 -152 -41t-43 -138v-1484h-150v1484z" />
    <glyph glyph-name="agrave" unicode="&#xe0;" 
d="M638 1313l-140 -135l-258 272l140 135zM452 486q-50 0 -90 -17t-61.5 -42t-32.5 -48.5t-11 -41.5v-78q0 -43 49.5 -88.5t145.5 -45.5h18q74 0 134.5 66.5t60.5 110.5v184h-213zM452 1049h18q80 0 141.5 -19t99.5 -49.5t62 -74.5t33 -89t9 -98v-719h-150v49
q-87 -66 -195 -74h-18q-78 0 -144.5 25t-109.5 66t-67 91t-24 102v78q0 51 24 103.5t66.5 96.5t109.5 71.5t145 27.5h213v83q0 98 -43 139t-152 41h-18q-82 0 -121.5 -17.5t-55.5 -56.5l-138 58q37 90 116.5 128t198.5 38z" />
    <glyph glyph-name="aacute" unicode="&#xe1;" 
d="M397 1169l-140 135l258 272l140 -135zM452 486q-50 0 -90 -17t-61.5 -42t-32.5 -48.5t-11 -41.5v-78q0 -43 49.5 -88.5t145.5 -45.5h18q74 0 134.5 66.5t60.5 110.5v184h-213zM452 1049h18q80 0 141.5 -19t99.5 -49.5t62 -74.5t33 -89t9 -98v-719h-150v49
q-87 -66 -195 -74h-18q-78 0 -144.5 25t-109.5 66t-67 91t-24 102v78q0 51 24 103.5t66.5 96.5t109.5 71.5t145 27.5h213v83q0 98 -43 139t-152 41h-18q-82 0 -121.5 -17.5t-55.5 -56.5l-138 58q37 90 116.5 128t198.5 38z" />
    <glyph glyph-name="acircumflex" unicode="&#xe2;" 
d="M558 1407l166 -117l-86 -121l-157 108l-157 -108l-86 121l166 117h154zM452 486q-50 0 -90 -17t-61.5 -42t-32.5 -48.5t-11 -41.5v-78q0 -43 49.5 -88.5t145.5 -45.5h18q74 0 134.5 66.5t60.5 110.5v184h-213zM452 1049h18q80 0 141.5 -19t99.5 -49.5t62 -74.5t33 -89
t9 -98v-719h-150v49q-87 -66 -195 -74h-18q-78 0 -144.5 25t-109.5 66t-67 91t-24 102v78q0 51 24 103.5t66.5 96.5t109.5 71.5t145 27.5h213v83q0 98 -43 139t-152 41h-18q-82 0 -121.5 -17.5t-55.5 -56.5l-138 58q37 90 116.5 128t198.5 38z" />
    <glyph glyph-name="atilde" unicode="&#xe3;" 
d="M149 1323q91 115 193 115h16q87 0 151 -55l19 -17q22 -18 51 -18h17q23 2 38 11.5t36 41.5l16 24l124 -84l-16 -24q-80 -119 -198 -119h-17q-33 0 -76.5 14.5t-74.5 41.5l-21 18q-18 16 -49 16h-16q-17 0 -32.5 -11.5t-40.5 -42.5l-19 -26l-120 90zM452 486
q-50 0 -90 -17t-61.5 -42t-32.5 -48.5t-11 -41.5v-78q0 -43 49.5 -88.5t145.5 -45.5h18q74 0 134.5 66.5t60.5 110.5v184h-213zM452 1049h18q80 0 141.5 -19t99.5 -49.5t62 -74.5t33 -89t9 -98v-719h-150v49q-87 -66 -195 -74h-18q-78 0 -144.5 25t-109.5 66t-67 91t-24 102
v78q0 51 24 103.5t66.5 96.5t109.5 71.5t145 27.5h213v83q0 98 -43 139t-152 41h-18q-82 0 -121.5 -17.5t-55.5 -56.5l-138 58q37 90 116.5 128t198.5 38z" />
    <glyph glyph-name="adieresis" unicode="&#xe4;" 
d="M347 1254q0 -46 -32.5 -80.5t-77.5 -34.5q-46 0 -79 33.5t-33 81.5q0 49 33.5 81t76.5 32q47 0 79.5 -33.5t32.5 -79.5zM836 1254q0 -49 -33 -82t-76 -33q-45 0 -78 34t-33 81q0 48 33 80.5t78 32.5q42 0 75.5 -32t33.5 -81zM452 486q-50 0 -90 -17t-61.5 -42
t-32.5 -48.5t-11 -41.5v-78q0 -43 49.5 -88.5t145.5 -45.5h18q74 0 134.5 66.5t60.5 110.5v184h-213zM452 1049h18q80 0 141.5 -19t99.5 -49.5t62 -74.5t33 -89t9 -98v-719h-150v49q-87 -66 -195 -74h-18q-78 0 -144.5 25t-109.5 66t-67 91t-24 102v78q0 51 24 103.5
t66.5 96.5t109.5 71.5t145 27.5h213v83q0 98 -43 139t-152 41h-18q-82 0 -121.5 -17.5t-55.5 -56.5l-138 58q37 90 116.5 128t198.5 38z" />
    <glyph glyph-name="aring" unicode="&#xe5;" 
d="M271 1369q0 84 58 143t142 59t144 -59t60 -143t-60 -143t-144 -59t-142 59t-58 143zM381 1369q0 -38 26.5 -65t64.5 -27t65.5 27t27.5 65t-27.5 65t-65.5 27t-64.5 -27t-26.5 -65zM452 486q-50 0 -90 -17t-61.5 -42t-32.5 -48.5t-11 -41.5v-78q0 -43 49.5 -88.5
t145.5 -45.5h18q74 0 134.5 66.5t60.5 110.5v184h-213zM452 1049h18q80 0 141.5 -19t99.5 -49.5t62 -74.5t33 -89t9 -98v-719h-150v49q-87 -66 -195 -74h-18q-78 0 -144.5 25t-109.5 66t-67 91t-24 102v78q0 51 24 103.5t66.5 96.5t109.5 71.5t145 27.5h213v83q0 98 -43 139
t-152 41h-18q-82 0 -121.5 -17.5t-55.5 -56.5l-138 58q37 90 116.5 128t198.5 38z" />
    <glyph glyph-name="ae" unicode="&#xe6;" 
d="M386 467h-101q-46 0 -77.5 -31t-31.5 -78v-139q0 -44 29.5 -69t75.5 -25q38 0 71.5 27.5t33.5 66.5v248zM536 617h210v188q0 45 -29.5 69.5t-75.5 24.5q-39 0 -72 -27t-33 -67v-188zM536 219q0 -42 33 -68t72 -26q44 0 74.5 25t30.5 69h150q0 -107 -74.5 -175.5
t-180.5 -68.5q-105 0 -181 73q-76 -73 -179 -73q-107 0 -181 68.5t-74 175.5v139q0 108 75 183.5t184 75.5h101v188q0 42 -33 68t-72 26q-43 0 -74 -25t-31 -69h-150q0 108 75.5 176t179.5 68q106 0 181 -72q75 72 179 72q107 0 181 -68t74 -176v-338h-360v-248z" />
    <glyph glyph-name="ccedilla" unicode="&#xe7;" 
d="M627 -283q0 39 -41 61.5t-82 22.5h-80l14 189v15h150v-21l-4 -60q193 -35 193 -207q0 -58 -28 -103t-71 -68t-84.5 -34t-77.5 -11q-140 0 -250 95l98 104q68 -59 152 -59q35 0 73 20.5t38 55.5zM470 898h-18q-56 0 -96 -26.5t-60.5 -72t-29.5 -95t-9 -107.5v-170
q0 -135 57 -218.5t138 -83.5h18q83 0 125 19.5t58 67.5l142 -48q-63 -189 -325 -189h-18q-148 0 -246.5 127t-98.5 325v170q0 130 36.5 230t116 160.5t192.5 60.5h18q268 0 327 -196l-144 -44q-9 29 -25 47.5t-55 30.5t-103 12z" />
    <glyph glyph-name="egrave" unicode="&#xe8;" 
d="M641 1302l-140 -135l-258 272l140 135zM257 486v-149q0 -90 49.5 -151t145.5 -61h18q95 0 134 24.5t52 72.5l144 -40q-56 -207 -330 -207h-18q-160 0 -252.5 106t-92.5 256v382q0 53 9 98t33 89t62 74.5t99.5 49.5t141.5 19h18q80 0 141.5 -19t99.5 -49.5t62 -74.5
t33 -89t9 -98v-233h-558zM665 636v83q0 98 -43 139t-152 41h-18q-109 0 -152 -41t-43 -139v-83h408z" />
    <glyph glyph-name="eacute" unicode="&#xe9;" 
d="M415 1171l-140 135l258 272l140 -135zM257 486v-149q0 -90 49.5 -151t145.5 -61h18q95 0 134 24.5t52 72.5l144 -40q-56 -207 -330 -207h-18q-160 0 -252.5 106t-92.5 256v382q0 53 9 98t33 89t62 74.5t99.5 49.5t141.5 19h18q80 0 141.5 -19t99.5 -49.5t62 -74.5t33 -89
t9 -98v-233h-558zM665 636v83q0 98 -43 139t-152 41h-18q-109 0 -152 -41t-43 -139v-83h408z" />
    <glyph glyph-name="ecircumflex" unicode="&#xea;" 
d="M561 1409l166 -117l-86 -121l-157 108l-157 -108l-86 121l166 117h154zM257 486v-149q0 -90 49.5 -151t145.5 -61h18q95 0 134 24.5t52 72.5l144 -40q-56 -207 -330 -207h-18q-160 0 -252.5 106t-92.5 256v382q0 53 9 98t33 89t62 74.5t99.5 49.5t141.5 19h18
q80 0 141.5 -19t99.5 -49.5t62 -74.5t33 -89t9 -98v-233h-558zM665 636v83q0 98 -43 139t-152 41h-18q-109 0 -152 -41t-43 -139v-83h408z" />
    <glyph glyph-name="edieresis" unicode="&#xeb;" 
d="M350 1256q0 -46 -32.5 -80.5t-77.5 -34.5q-46 0 -79 33.5t-33 81.5q0 49 33.5 81t76.5 32q47 0 79.5 -33.5t32.5 -79.5zM839 1256q0 -49 -33 -82t-76 -33q-45 0 -78 34t-33 81q0 48 33 80.5t78 32.5q42 0 75.5 -32t33.5 -81zM257 486v-149q0 -90 49.5 -151t145.5 -61h18
q95 0 134 24.5t52 72.5l144 -40q-56 -207 -330 -207h-18q-160 0 -252.5 106t-92.5 256v382q0 53 9 98t33 89t62 74.5t99.5 49.5t141.5 19h18q80 0 141.5 -19t99.5 -49.5t62 -74.5t33 -89t9 -98v-233h-558zM665 636v83q0 98 -43 139t-152 41h-18q-109 0 -152 -41t-43 -139
v-83h408z" />
    <glyph glyph-name="igrave" unicode="&#xec;" 
d="M630 1319l-140 -135l-258 272l140 135zM182 1024h354v-874h204v-150h-558v150h204v724h-204v150z" />
    <glyph glyph-name="iacute" unicode="&#xed;" 
d="M488 1168l-140 135l258 272l140 -135zM182 1024h354v-874h204v-150h-558v150h204v724h-204v150z" />
    <glyph glyph-name="icircumflex" unicode="&#xee;" 
d="M547 1407l166 -117l-86 -121l-157 108l-157 -108l-86 121l166 117h154zM182 1024h354v-874h204v-150h-558v150h204v724h-204v150z" />
    <glyph glyph-name="idieresis" unicode="&#xef;" 
d="M336 1254q0 -46 -32.5 -80.5t-77.5 -34.5q-46 0 -79 33.5t-33 81.5q0 49 33.5 81t76.5 32q47 0 79.5 -33.5t32.5 -79.5zM825 1254q0 -49 -33 -82t-76 -33q-45 0 -78 34t-33 81q0 48 33 80.5t78 32.5q42 0 75.5 -32t33.5 -81zM182 1024h354v-874h204v-150h-558v150h204
v724h-204v150z" />
    <glyph glyph-name="eth" unicode="&#xf0;" 
d="M257 457v-30q0 -135 57 -218.5t138 -83.5h18q56 0 96 26.5t60.5 72t29.5 95.5t9 108v30q0 57 -9 108.5t-29.5 100.5t-60.5 78.5t-96 29.5h-18q-56 0 -96 -29.5t-60.5 -78.5t-29.5 -100.5t-9 -108.5zM452 924h18q67 0 122 -23q-52 113 -138 229l-243 -100l-56 138l199 82
q-58 63 -130 124l96 116q95 -80 181 -180l239 98l56 -138l-200 -82q219 -307 219 -568v-193q0 -207 -90.5 -329.5t-254.5 -122.5h-18q-148 0 -246.5 127.5t-98.5 324.5v30q0 95 21 178t62 148.5t108.5 103t153.5 37.5z" />
    <glyph glyph-name="ntilde" unicode="&#xf1;" 
d="M129 1325q91 115 193 115h16q87 0 151 -55l19 -17q22 -18 51 -18h17q23 2 38 11.5t36 41.5l16 24l124 -84l-16 -24q-80 -119 -198 -119h-17q-33 0 -76.5 14.5t-74.5 41.5l-21 18q-18 16 -49 16h-16q-17 0 -32.5 -11.5t-40.5 -42.5l-19 -26l-120 90zM257 0h-150v1024h150
v-67q89 92 195 92h18q80 0 141.5 -19t99.5 -49.5t62 -74.5t33 -89t9 -98v-719h-150v719q0 98 -43 139t-152 41h-18q-48 0 -94.5 -53.5t-73.5 -123.5t-27 -125v-597z" />
    <glyph glyph-name="ograve" unicode="&#xf2;" 
d="M623 1318l-140 -135l-258 272l140 135zM825 562v-92q0 -116 -23.5 -206.5t-59 -143.5t-83.5 -87t-92.5 -46t-90.5 -12h-35q-168 0 -256 138t-88 358v90q0 100 19.5 185t59.5 154t107.5 108.5t155.5 39.5h39q89 0 157 -39t108.5 -107t61 -154t20.5 -186zM478 898h-39
q-55 0 -94.5 -30.5t-59.5 -82.5t-29 -107t-9 -117v-90q0 -63 9 -119.5t29.5 -110t60.5 -85t95 -31.5h35q46 0 81.5 20.5t57.5 54t35.5 79.5t19 92.5t5.5 98.5v92q0 49 -5 94t-19 90t-35.5 78t-56.5 53.5t-81 20.5z" />
    <glyph glyph-name="oacute" unicode="&#xf3;" 
d="M467 1184l-140 135l258 272l140 -135zM825 562v-92q0 -116 -23.5 -206.5t-59 -143.5t-83.5 -87t-92.5 -46t-90.5 -12h-35q-168 0 -256 138t-88 358v90q0 100 19.5 185t59.5 154t107.5 108.5t155.5 39.5h39q89 0 157 -39t108.5 -107t61 -154t20.5 -186zM478 898h-39
q-55 0 -94.5 -30.5t-59.5 -82.5t-29 -107t-9 -117v-90q0 -63 9 -119.5t29.5 -110t60.5 -85t95 -31.5h35q46 0 81.5 20.5t57.5 54t35.5 79.5t19 92.5t5.5 98.5v92q0 49 -5 94t-19 90t-35.5 78t-56.5 53.5t-81 20.5z" />
    <glyph glyph-name="ocircumflex" unicode="&#xf4;" 
d="M550 1407l166 -117l-86 -121l-157 108l-157 -108l-86 121l166 117h154zM825 562v-92q0 -116 -23.5 -206.5t-59 -143.5t-83.5 -87t-92.5 -46t-90.5 -12h-35q-168 0 -256 138t-88 358v90q0 100 19.5 185t59.5 154t107.5 108.5t155.5 39.5h39q89 0 157 -39t108.5 -107
t61 -154t20.5 -186zM478 898h-39q-55 0 -94.5 -30.5t-59.5 -82.5t-29 -107t-9 -117v-90q0 -63 9 -119.5t29.5 -110t60.5 -85t95 -31.5h35q46 0 81.5 20.5t57.5 54t35.5 79.5t19 92.5t5.5 98.5v92q0 49 -5 94t-19 90t-35.5 78t-56.5 53.5t-81 20.5z" />
    <glyph glyph-name="otilde" unicode="&#xf5;" 
d="M139 1323q91 115 193 115h16q87 0 151 -55l19 -17q22 -18 51 -18h17q23 2 38 11.5t36 41.5l16 24l124 -84l-16 -24q-80 -119 -198 -119h-17q-33 0 -76.5 14.5t-74.5 41.5l-21 18q-18 16 -49 16h-16q-17 0 -32.5 -11.5t-40.5 -42.5l-19 -26l-120 90zM825 562v-92
q0 -116 -23.5 -206.5t-59 -143.5t-83.5 -87t-92.5 -46t-90.5 -12h-35q-168 0 -256 138t-88 358v90q0 100 19.5 185t59.5 154t107.5 108.5t155.5 39.5h39q89 0 157 -39t108.5 -107t61 -154t20.5 -186zM478 898h-39q-55 0 -94.5 -30.5t-59.5 -82.5t-29 -107t-9 -117v-90
q0 -63 9 -119.5t29.5 -110t60.5 -85t95 -31.5h35q46 0 81.5 20.5t57.5 54t35.5 79.5t19 92.5t5.5 98.5v92q0 49 -5 94t-19 90t-35.5 78t-56.5 53.5t-81 20.5z" />
    <glyph glyph-name="odieresis" unicode="&#xf6;" 
d="M339 1254q0 -46 -32.5 -80.5t-77.5 -34.5q-46 0 -79 33.5t-33 81.5q0 49 33.5 81t76.5 32q47 0 79.5 -33.5t32.5 -79.5zM828 1254q0 -49 -33 -82t-76 -33q-45 0 -78 34t-33 81q0 48 33 80.5t78 32.5q42 0 75.5 -32t33.5 -81zM825 562v-92q0 -116 -23.5 -206.5t-59 -143.5
t-83.5 -87t-92.5 -46t-90.5 -12h-35q-168 0 -256 138t-88 358v90q0 100 19.5 185t59.5 154t107.5 108.5t155.5 39.5h39q89 0 157 -39t108.5 -107t61 -154t20.5 -186zM478 898h-39q-55 0 -94.5 -30.5t-59.5 -82.5t-29 -107t-9 -117v-90q0 -63 9 -119.5t29.5 -110t60.5 -85
t95 -31.5h35q46 0 81.5 20.5t57.5 54t35.5 79.5t19 92.5t5.5 98.5v92q0 49 -5 94t-19 90t-35.5 78t-56.5 53.5t-81 20.5z" />
    <glyph glyph-name="divide" unicode="&#xf7;" 
d="M872 675v-150h-822v150h822zM579 960q0 -41 -32 -75.5t-77 -34.5q-48 0 -79 35.5t-31 74.5t31 74.5t79 35.5q45 0 77 -34.5t32 -75.5zM579 243q0 -43 -31.5 -77t-77.5 -34q-45 0 -77.5 35t-32.5 76q0 39 32 73t78 34t77.5 -34t31.5 -73z" />
    <glyph glyph-name="oslash" unicode="&#xf8;" 
d="M662 702l-314 -546q41 -31 93 -31h35q46 0 81.5 20.5t57.5 54t35.5 79.5t19 92.5t5.5 98.5v92q0 74 -13 140zM478 898h-39q-55 0 -94.5 -30.5t-59.5 -82.5t-29 -107t-9 -117v-90q0 -87 17 -161l318 552q-42 36 -104 36zM718 1099l130 -75l-88 -151q65 -126 65 -311v-92
q0 -116 -23.5 -206.5t-59 -143.5t-83.5 -87t-92.5 -46t-90.5 -12h-35q-95 0 -169 49l-63 -109l-130 74l88 153q-70 130 -70 329v90q0 100 19.5 185t59.5 154t107.5 108.5t155.5 39.5h39q104 0 180 -54z" />
    <glyph glyph-name="ugrave" unicode="&#xf9;" 
d="M621 1307l-140 -135l-258 272l140 135zM665 1024h150v-1024h-150v88q-100 -113 -215 -113h-18q-66 0 -121.5 18t-102.5 57.5t-74 112.5t-27 174v687h150v-687q0 -120 43.5 -166t131.5 -46h18q47 0 99 58t84 134t32 130v577z" />
    <glyph glyph-name="uacute" unicode="&#xfa;" 
d="M446 1163l-140 135l258 272l140 -135zM665 1024h150v-1024h-150v88q-100 -113 -215 -113h-18q-66 0 -121.5 18t-102.5 57.5t-74 112.5t-27 174v687h150v-687q0 -120 43.5 -166t131.5 -46h18q47 0 99 58t84 134t32 130v577z" />
    <glyph glyph-name="ucircumflex" unicode="&#xfb;" 
d="M538 1407l166 -117l-86 -121l-157 108l-157 -108l-86 121l166 117h154zM665 1024h150v-1024h-150v88q-100 -113 -215 -113h-18q-66 0 -121.5 18t-102.5 57.5t-74 112.5t-27 174v687h150v-687q0 -120 43.5 -166t131.5 -46h18q47 0 99 58t84 134t32 130v577z" />
    <glyph glyph-name="udieresis" unicode="&#xfc;" 
d="M327 1254q0 -46 -32.5 -80.5t-77.5 -34.5q-46 0 -79 33.5t-33 81.5q0 49 33.5 81t76.5 32q47 0 79.5 -33.5t32.5 -79.5zM816 1254q0 -49 -33 -82t-76 -33q-45 0 -78 34t-33 81q0 48 33 80.5t78 32.5q42 0 75.5 -32t33.5 -81zM665 1024h150v-1024h-150v88
q-100 -113 -215 -113h-18q-66 0 -121.5 18t-102.5 57.5t-74 112.5t-27 174v687h150v-687q0 -120 43.5 -166t131.5 -46h18q47 0 99 58t84 134t32 130v577z" />
    <glyph glyph-name="yacute" unicode="&#xfd;" 
d="M436 1151l-140 135l258 272l140 -135zM841 1024l-261 -1154q-15 -65 -42 -112.5t-54.5 -71t-62 -37t-55 -16t-42.5 -2.5q-79 0 -145.5 50.5t-95.5 120.5l138 56q13 -31 43 -54t60 -23q34 0 67 37.5t45 91.5l44 195l-372 919h163l267 -660l149 660h154z" />
    <glyph glyph-name="thorn" unicode="&#xfe;" 
d="M257 374q0 -114 55 -181.5t149 -67.5q214 0 214 388q0 385 -214 385q-94 0 -149 -50.5t-55 -162.5v-311zM825 513q0 -95 -12.5 -174t-33.5 -134t-51.5 -97t-62 -66.5t-69 -40t-69.5 -21t-66 -5.5q-117 0 -204 64v-424h-150v1785h150v-406q85 54 204 54q50 0 94.5 -11
t96 -46t88 -91.5t61 -156t24.5 -230.5z" />
    <glyph glyph-name="ydieresis" unicode="&#xff;" 
d="M347 1254q0 -46 -32.5 -80.5t-77.5 -34.5q-46 0 -79 33.5t-33 81.5q0 49 33.5 81t76.5 32q47 0 79.5 -33.5t32.5 -79.5zM836 1254q0 -49 -33 -82t-76 -33q-45 0 -78 34t-33 81q0 48 33 80.5t78 32.5q42 0 75.5 -32t33.5 -81zM841 1024l-261 -1154q-15 -65 -42 -112.5
t-54.5 -71t-62 -37t-55 -16t-42.5 -2.5q-79 0 -145.5 50.5t-95.5 120.5l138 56q13 -31 43 -54t60 -23q34 0 67 37.5t45 91.5l44 195l-372 919h163l267 -660l149 660h154z" />
    <glyph glyph-name="Amacron" unicode="&#x100;" 
d="M235 1506v150h453v-150h-453zM329 399h264l-132 605zM241 0h-153l311 1425h124l310 -1425h-153l-54 249h-330z" />
    <glyph glyph-name="amacron" unicode="&#x101;" 
d="M254 1135v150h453v-150h-453zM452 486q-50 0 -90 -17t-61.5 -42t-32.5 -48.5t-11 -41.5v-78q0 -43 49.5 -88.5t145.5 -45.5h18q74 0 134.5 66.5t60.5 110.5v184h-213zM452 1049h18q80 0 141.5 -19t99.5 -49.5t62 -74.5t33 -89t9 -98v-719h-150v49q-87 -66 -195 -74h-18
q-78 0 -144.5 25t-109.5 66t-67 91t-24 102v78q0 51 24 103.5t66.5 96.5t109.5 71.5t145 27.5h213v83q0 98 -43 139t-152 41h-18q-82 0 -121.5 -17.5t-55.5 -56.5l-138 58q37 90 116.5 128t198.5 38z" />
    <glyph glyph-name="Abreve" unicode="&#x102;" 
d="M459 1472q-84 0 -158.5 37t-128.5 102l115 96q70 -85 172 -85q105 0 178 86l114 -97q-55 -65 -131 -102t-161 -37zM329 399h264l-132 605zM241 0h-153l311 1425h124l310 -1425h-153l-54 249h-330z" />
    <glyph glyph-name="abreve" unicode="&#x103;" 
d="M478 1169q-84 0 -158.5 37t-128.5 102l115 96q70 -85 172 -85q105 0 178 86l114 -97q-55 -65 -131 -102t-161 -37zM452 486q-50 0 -90 -17t-61.5 -42t-32.5 -48.5t-11 -41.5v-78q0 -43 49.5 -88.5t145.5 -45.5h18q74 0 134.5 66.5t60.5 110.5v184h-213zM452 1049h18
q80 0 141.5 -19t99.5 -49.5t62 -74.5t33 -89t9 -98v-719h-150v49q-87 -66 -195 -74h-18q-78 0 -144.5 25t-109.5 66t-67 91t-24 102v78q0 51 24 103.5t66.5 96.5t109.5 71.5t145 27.5h213v83q0 98 -43 139t-152 41h-18q-82 0 -121.5 -17.5t-55.5 -56.5l-138 58
q37 90 116.5 128t198.5 38z" />
    <glyph glyph-name="Aogonek" unicode="&#x104;" 
d="M839 -366q-59 -49 -133 -49q-84 0 -143.5 60t-59.5 144q0 82 57 142l105 105v41h150v-103l-147 -147q-15 -17 -15 -38q0 -22 16 -38t37 -16q19 0 35 13l27 23l98 -113zM329 399h264l-132 605zM241 0h-153l311 1425h124l310 -1425h-153l-54 249h-330z" />
    <glyph glyph-name="aogonek" unicode="&#x105;" 
d="M839 -384q-59 -49 -133 -49q-84 0 -143.5 60t-59.5 144q0 82 57 142l105 105v41h150v-103l-147 -147q-15 -17 -15 -38q0 -22 16 -38t37 -16q19 0 35 13l27 23l98 -113zM452 486q-50 0 -90 -17t-61.5 -42t-32.5 -48.5t-11 -41.5v-78q0 -43 49.5 -88.5t145.5 -45.5h18
q74 0 134.5 66.5t60.5 110.5v184h-213zM452 1049h18q80 0 141.5 -19t99.5 -49.5t62 -74.5t33 -89t9 -98v-719h-150v49q-87 -66 -195 -74h-18q-78 0 -144.5 25t-109.5 66t-67 91t-24 102v78q0 51 24 103.5t66.5 96.5t109.5 71.5t145 27.5h213v83q0 98 -43 139t-152 41h-18
q-82 0 -121.5 -17.5t-55.5 -56.5l-138 58q37 90 116.5 128t198.5 38z" />
    <glyph glyph-name="Cacute" unicode="&#x106;" 
d="M515 1385l-140 135l258 272l140 -135zM487 -25h-31q-49 0 -93 14t-95 60.5t-87 122t-60 210.5t-24 314v67q0 662 358 662h32q54 0 100.5 -16t78 -38t58 -57t41 -62t27 -65t16 -53t8.5 -39l-146 -30q-13 64 -33 107.5t-45.5 65t-50 29.5t-54.5 8h-32q-105 0 -156.5 -125
t-51.5 -387v-67q0 -73 4 -141t17.5 -149.5t35 -141t61 -99.5t91.5 -40h31q16 0 29.5 2.5t35.5 14t39.5 32t36.5 61.5t32 97l146 -34q-20 -85 -53.5 -148t-66.5 -95.5t-74 -51.5t-68.5 -23.5t-56.5 -4.5z" />
    <glyph glyph-name="cacute" unicode="&#x107;" 
d="M442 1174l-140 135l258 272l140 -135zM470 898h-18q-56 0 -96 -26.5t-60.5 -72t-29.5 -95t-9 -107.5v-170q0 -135 57 -218.5t138 -83.5h18q83 0 125 19.5t58 67.5l142 -48q-63 -189 -325 -189h-18q-148 0 -246.5 127t-98.5 325v170q0 130 36.5 230t116 160.5t192.5 60.5
h18q268 0 327 -196l-144 -44q-9 29 -25 47.5t-55 30.5t-103 12z" />
    <glyph glyph-name="Ccircumflex" unicode="&#x108;" 
d="M577 1704l166 -117l-86 -121l-157 108l-157 -108l-86 121l166 117h154zM487 -25h-31q-49 0 -93 14t-95 60.5t-87 122t-60 210.5t-24 314v67q0 662 358 662h32q54 0 100.5 -16t78 -38t58 -57t41 -62t27 -65t16 -53t8.5 -39l-146 -30q-13 64 -33 107.5t-45.5 65t-50 29.5
t-54.5 8h-32q-105 0 -156.5 -125t-51.5 -387v-67q0 -73 4 -141t17.5 -149.5t35 -141t61 -99.5t91.5 -40h31q16 0 29.5 2.5t35.5 14t39.5 32t36.5 61.5t32 97l146 -34q-20 -85 -53.5 -148t-66.5 -95.5t-74 -51.5t-68.5 -23.5t-56.5 -4.5z" />
    <glyph glyph-name="ccircumflex" unicode="&#x109;" 
d="M588 1407l166 -117l-86 -121l-157 108l-157 -108l-86 121l166 117h154zM470 898h-18q-56 0 -96 -26.5t-60.5 -72t-29.5 -95t-9 -107.5v-170q0 -135 57 -218.5t138 -83.5h18q83 0 125 19.5t58 67.5l142 -48q-63 -189 -325 -189h-18q-148 0 -246.5 127t-98.5 325v170
q0 130 36.5 230t116 160.5t192.5 60.5h18q268 0 327 -196l-144 -44q-9 29 -25 47.5t-55 30.5t-103 12z" />
    <glyph glyph-name="Cdotaccent" unicode="&#x10a;" 
d="M379 1576q0 49 33.5 83t82.5 34t83.5 -34t34.5 -83t-34.5 -83t-83.5 -34t-82.5 34t-33.5 83zM487 -25h-31q-49 0 -93 14t-95 60.5t-87 122t-60 210.5t-24 314v67q0 662 358 662h32q54 0 100.5 -16t78 -38t58 -57t41 -62t27 -65t16 -53t8.5 -39l-146 -30q-13 64 -33 107.5
t-45.5 65t-50 29.5t-54.5 8h-32q-105 0 -156.5 -125t-51.5 -387v-67q0 -73 4 -141t17.5 -149.5t35 -141t61 -99.5t91.5 -40h31q16 0 29.5 2.5t35.5 14t39.5 32t36.5 61.5t32 97l146 -34q-20 -85 -53.5 -148t-66.5 -95.5t-74 -51.5t-68.5 -23.5t-56.5 -4.5z" />
    <glyph glyph-name="cdotaccent" unicode="&#x10b;" 
d="M390 1297q0 49 33.5 83t82.5 34t83.5 -34t34.5 -83t-34.5 -83t-83.5 -34t-82.5 34t-33.5 83zM470 898h-18q-56 0 -96 -26.5t-60.5 -72t-29.5 -95t-9 -107.5v-170q0 -135 57 -218.5t138 -83.5h18q83 0 125 19.5t58 67.5l142 -48q-63 -189 -325 -189h-18q-148 0 -246.5 127
t-98.5 325v170q0 130 36.5 230t116 160.5t192.5 60.5h18q268 0 327 -196l-144 -44q-9 29 -25 47.5t-55 30.5t-103 12z" />
    <glyph glyph-name="Ccaron" unicode="&#x10c;" 
d="M500 1618l157 109l86 -122l-166 -117h-154l-166 117l86 122zM487 -25h-31q-49 0 -93 14t-95 60.5t-87 122t-60 210.5t-24 314v67q0 662 358 662h32q54 0 100.5 -16t78 -38t58 -57t41 -62t27 -65t16 -53t8.5 -39l-146 -30q-13 64 -33 107.5t-45.5 65t-50 29.5t-54.5 8h-32
q-105 0 -156.5 -125t-51.5 -387v-67q0 -73 4 -141t17.5 -149.5t35 -141t61 -99.5t91.5 -40h31q16 0 29.5 2.5t35.5 14t39.5 32t36.5 61.5t32 97l146 -34q-20 -85 -53.5 -148t-66.5 -95.5t-74 -51.5t-68.5 -23.5t-56.5 -4.5z" />
    <glyph glyph-name="ccaron" unicode="&#x10d;" 
d="M511 1321l157 109l86 -122l-166 -117h-154l-166 117l86 122zM470 898h-18q-56 0 -96 -26.5t-60.5 -72t-29.5 -95t-9 -107.5v-170q0 -135 57 -218.5t138 -83.5h18q83 0 125 19.5t58 67.5l142 -48q-63 -189 -325 -189h-18q-148 0 -246.5 127t-98.5 325v170q0 130 36.5 230
t116 160.5t192.5 60.5h18q268 0 327 -196l-144 -44q-9 29 -25 47.5t-55 30.5t-103 12z" />
    <glyph glyph-name="Dcaron" unicode="&#x10e;" 
d="M461 1617l157 109l86 -122l-166 -117h-154l-166 117l86 122zM825 775v-104q0 -121 -12.5 -221t-33.5 -168t-51.5 -120t-62 -82t-69 -49t-69 -25t-66.5 -6h-354v1400h354q75 0 134 -24t98 -69.5t66 -102t41 -130.5t19.5 -144.5t5.5 -154.5zM461 1250h-204v-1100h204
q44 0 79 22.5t57.5 63t38.5 89.5t24 111t11.5 117.5t3.5 117.5v104q0 177 -24.5 282.5t-70.5 149t-119 43.5z" />
    <glyph glyph-name="dcaron" unicode="&#x10f;" 
d="M967 1578q0 -346 -298 -380l-15 55q49 18 96.5 59t47.5 85q0 56 -34 66q-45 13 -67.5 44.5t-22.5 70.5q0 59 41.5 102t104.5 43t105 -42t42 -103zM150.048 597v-170q0 -135 51.6875 -218.5t125.138 -83.5h16.3223q50.7812 0 87.0527 26.5q36.2725 26.5 54.8613 72
q18.5898 45.5 26.751 95.5t8.16113 108v170q0 58 -8.16113 107.5t-26.751 95.5q-18.5889 46 -54.8613 72.5q-36.2715 26.5 -87.0527 26.5h-16.3223q-50.7803 0 -87.0527 -26.5q-36.2715 -26.5 -54.8613 -72.5q-18.5889 -46 -26.75 -95.5t-8.16113 -107.5zM326.873 1049
h16.3223q103.375 0 176.826 -62v413h136.02v-1400h-136.02v37q-73.4512 -62 -176.826 -62h-16.3223q-134.206 0 -223.525 127.5q-89.3203 127.5 -89.3203 324.5v170q0 130 33.0986 230q33.0977 100 105.188 161t174.559 61z" />
    <glyph glyph-name="Dcroat" unicode="&#x110;" 
d="M825 732q0 -71 -2.5 -131.5t-11.5 -138t-24.5 -139.5t-43 -124.5t-65 -104t-93 -68t-124.5 -26.5h-314v681h-105v150h105v569h314q68 0 122.5 -21t92 -55.5t65 -87t43.5 -107.5t25.5 -126t12.5 -133t3 -138zM461 1250h-164v-419h155v-150h-155v-531h164
q109 0 161.5 142.5t52.5 439.5q0 286 -50 402t-164 116z" />
    <glyph glyph-name="dcroat" unicode="&#x111;" 
d="M257 597v-170q0 -135 57 -218.5t138 -83.5h18q56 0 96 26.5t60.5 72t29.5 95.5t9 108v170q0 58 -9 107.5t-29.5 95.5t-60.5 72.5t-96 26.5h-18q-56 0 -96 -26.5t-60.5 -72.5t-29.5 -95.5t-9 -107.5zM452 1049h18q114 0 195 -62v218h-295v150h295v45h150v-45h47v-150h-47
v-1205h-150v37q-81 -62 -195 -62h-18q-148 0 -246.5 127.5t-98.5 324.5v170q0 130 36.5 230t116 161t192.5 61z" />
    <glyph glyph-name="Emacron" unicode="&#x112;" 
d="M234 1503v150h453v-150h-453zM257 712v-561h575v-151h-725v1400h725v-150h-575v-388h483v-150h-483z" />
    <glyph glyph-name="emacron" unicode="&#x113;" 
d="M257 1137v150h453v-150h-453zM257 486v-149q0 -90 49.5 -151t145.5 -61h18q95 0 134 24.5t52 72.5l144 -40q-56 -207 -330 -207h-18q-160 0 -252.5 106t-92.5 256v382q0 53 9 98t33 89t62 74.5t99.5 49.5t141.5 19h18q80 0 141.5 -19t99.5 -49.5t62 -74.5t33 -89t9 -98
v-233h-558zM665 636v83q0 98 -43 139t-152 41h-18q-109 0 -152 -41t-43 -139v-83h408z" />
    <glyph glyph-name="Ebreve" unicode="&#x114;" 
d="M458 1467q-84 0 -158.5 37t-128.5 102l115 96q70 -85 172 -85q105 0 178 86l114 -97q-55 -65 -131 -102t-161 -37zM257 712v-561h575v-151h-725v1400h725v-150h-575v-388h483v-150h-483z" />
    <glyph glyph-name="ebreve" unicode="&#x115;" 
d="M481 1171q-84 0 -158.5 37t-128.5 102l115 96q70 -85 172 -85q105 0 178 86l114 -97q-55 -65 -131 -102t-161 -37zM257 486v-149q0 -90 49.5 -151t145.5 -61h18q95 0 134 24.5t52 72.5l144 -40q-56 -207 -330 -207h-18q-160 0 -252.5 106t-92.5 256v382q0 53 9 98t33 89
t62 74.5t99.5 49.5t141.5 19h18q80 0 141.5 -19t99.5 -49.5t62 -74.5t33 -89t9 -98v-233h-558zM665 636v83q0 98 -43 139t-152 41h-18q-109 0 -152 -41t-43 -139v-83h408z" />
    <glyph glyph-name="Edotaccent" unicode="&#x116;" 
d="M340 1574q0 49 33.5 83t82.5 34t83.5 -34t34.5 -83t-34.5 -83t-83.5 -34t-82.5 34t-33.5 83zM257 712v-561h575v-151h-725v1400h725v-150h-575v-388h483v-150h-483z" />
    <glyph glyph-name="edotaccent" unicode="&#x117;" 
d="M363 1299q0 49 33.5 83t82.5 34t83.5 -34t34.5 -83t-34.5 -83t-83.5 -34t-82.5 34t-33.5 83zM257 486v-149q0 -90 49.5 -151t145.5 -61h18q95 0 134 24.5t52 72.5l144 -40q-56 -207 -330 -207h-18q-160 0 -252.5 106t-92.5 256v382q0 53 9 98t33 89t62 74.5t99.5 49.5
t141.5 19h18q80 0 141.5 -19t99.5 -49.5t62 -74.5t33 -89t9 -98v-233h-558zM665 636v83q0 98 -43 139t-152 41h-18q-109 0 -152 -41t-43 -139v-83h408z" />
    <glyph glyph-name="Eogonek" unicode="&#x118;" 
d="M617 -365q-59 -49 -133 -49q-84 0 -143.5 60t-59.5 144q0 82 57 142l105 105v41h150v-103l-147 -147q-15 -17 -15 -38q0 -22 16 -38t37 -16q19 0 35 13l27 23l98 -113zM257 712v-561h575v-151h-725v1400h725v-150h-575v-388h483v-150h-483z" />
    <glyph glyph-name="eogonek" unicode="&#x119;" 
d="M581 -382q-59 -49 -133 -49q-84 0 -143.5 60t-59.5 144q0 82 57 142l105 105v41h150v-103l-147 -147q-15 -17 -15 -38q0 -22 16 -38t37 -16q19 0 35 13l27 23l98 -113zM257 486v-149q0 -90 49.5 -151t145.5 -61h18q95 0 134 24.5t52 72.5l144 -40q-56 -207 -330 -207h-18
q-160 0 -252.5 106t-92.5 256v382q0 53 9 98t33 89t62 74.5t99.5 49.5t141.5 19h18q80 0 141.5 -19t99.5 -49.5t62 -74.5t33 -89t9 -98v-233h-558zM665 636v83q0 98 -43 139t-152 41h-18q-109 0 -152 -41t-43 -139v-83h408z" />
    <glyph glyph-name="Ecaron" unicode="&#x11a;" 
d="M461 1619l157 109l86 -122l-166 -117h-154l-166 117l86 122zM257 712v-561h575v-151h-725v1400h725v-150h-575v-388h483v-150h-483z" />
    <glyph glyph-name="ecaron" unicode="&#x11b;" 
d="M484 1323l157 109l86 -122l-166 -117h-154l-166 117l86 122zM257 486v-149q0 -90 49.5 -151t145.5 -61h18q95 0 134 24.5t52 72.5l144 -40q-56 -207 -330 -207h-18q-160 0 -252.5 106t-92.5 256v382q0 53 9 98t33 89t62 74.5t99.5 49.5t141.5 19h18q80 0 141.5 -19
t99.5 -49.5t62 -74.5t33 -89t9 -98v-233h-558zM665 636v83q0 98 -43 139t-152 41h-18q-109 0 -152 -41t-43 -139v-83h408z" />
    <glyph glyph-name="Gcircumflex" unicode="&#x11c;" 
d="M588 1705l166 -117l-86 -121l-157 108l-157 -108l-86 121l166 117h154zM815 247q-41 -137 -131 -204.5t-197 -67.5h-31q-49 0 -93 14t-95 60.5t-87 122t-60 210.5t-24 314v67q0 662 358 662h32q54 0 100.5 -16t78 -38t58 -57t41 -62t27 -65t16 -53t8.5 -39l-146 -30
q-13 64 -33 107.5t-45.5 65t-50 29.5t-54.5 8h-32q-105 0 -156.5 -125t-51.5 -387v-67q0 -73 4 -141t17.5 -149.5t35 -141t61 -99.5t91.5 -40h31q63 0 110.5 40.5t67.5 102.5v274h-161v150h311v-445z" />
    <glyph glyph-name="gcircumflex" unicode="&#x11d;" 
d="M502 1418l166 -117l-86 -121l-157 108l-157 -108l-86 121l166 117h154zM665 -87q0 10 -12 27t-33.5 36.5t-61.5 33t-88 13.5h-18q-74 0 -134.5 -36.5t-60.5 -73.5v-20q0 -45 53 -86t142 -41h18q66 0 130.5 34.5t64.5 92.5v20zM470 899h-18q-70 0 -132.5 -55.5
t-62.5 -124.5v-56q0 -73 62 -135t133 -62h18q71 0 133 62t62 135v56q0 69 -62.5 124.5t-132.5 55.5zM172 62q-65 64 -65 153v66q0 98 79 176q-79 102 -79 206v56q0 129 105 229.5t240 100.5h18q109 0 206 -72q74 57 156 57v-150q-30 0 -57 -19q40 -72 40 -146v-56
q0 -138 -106.5 -242.5t-238.5 -104.5h-18q-77 0 -153 43q-42 -35 -42 -73v-71q0 -37 47 -69q74 27 148 27h18q81 0 149 -25t109.5 -64.5t64 -84t22.5 -86.5v-20q0 -113 -104 -195.5t-241 -82.5h-18q-87 0 -156.5 27.5t-109 70.5t-59.5 89.5t-20 90.5v20q0 74 65 149z" />
    <glyph glyph-name="Gbreve" unicode="&#x11e;" 
d="M508 1466q-84 0 -158.5 37t-128.5 102l115 96q70 -85 172 -85q105 0 178 86l114 -97q-55 -65 -131 -102t-161 -37zM815 247q-41 -137 -131 -204.5t-197 -67.5h-31q-49 0 -93 14t-95 60.5t-87 122t-60 210.5t-24 314v67q0 662 358 662h32q54 0 100.5 -16t78 -38t58 -57
t41 -62t27 -65t16 -53t8.5 -39l-146 -30q-13 64 -33 107.5t-45.5 65t-50 29.5t-54.5 8h-32q-105 0 -156.5 -125t-51.5 -387v-67q0 -73 4 -141t17.5 -149.5t35 -141t61 -99.5t91.5 -40h31q63 0 110.5 40.5t67.5 102.5v274h-161v150h311v-445z" />
    <glyph glyph-name="gbreve" unicode="&#x11f;" 
d="M422 1180q-84 0 -158.5 37t-128.5 102l115 96q70 -85 172 -85q105 0 178 86l114 -97q-55 -65 -131 -102t-161 -37zM665 -87q0 10 -12 27t-33.5 36.5t-61.5 33t-88 13.5h-18q-74 0 -134.5 -36.5t-60.5 -73.5v-20q0 -45 53 -86t142 -41h18q66 0 130.5 34.5t64.5 92.5v20z
M470 899h-18q-70 0 -132.5 -55.5t-62.5 -124.5v-56q0 -73 62 -135t133 -62h18q71 0 133 62t62 135v56q0 69 -62.5 124.5t-132.5 55.5zM172 62q-65 64 -65 153v66q0 98 79 176q-79 102 -79 206v56q0 129 105 229.5t240 100.5h18q109 0 206 -72q74 57 156 57v-150
q-30 0 -57 -19q40 -72 40 -146v-56q0 -138 -106.5 -242.5t-238.5 -104.5h-18q-77 0 -153 43q-42 -35 -42 -73v-71q0 -37 47 -69q74 27 148 27h18q81 0 149 -25t109.5 -64.5t64 -84t22.5 -86.5v-20q0 -113 -104 -195.5t-241 -82.5h-18q-87 0 -156.5 27.5t-109 70.5
t-59.5 89.5t-20 90.5v20q0 74 65 149z" />
    <glyph glyph-name="Gdotaccent" unicode="&#x120;" 
d="M390 1575q0 49 33.5 83t82.5 34t83.5 -34t34.5 -83t-34.5 -83t-83.5 -34t-82.5 34t-33.5 83zM815 247q-41 -137 -131 -204.5t-197 -67.5h-31q-49 0 -93 14t-95 60.5t-87 122t-60 210.5t-24 314v67q0 662 358 662h32q54 0 100.5 -16t78 -38t58 -57t41 -62t27 -65t16 -53
t8.5 -39l-146 -30q-13 64 -33 107.5t-45.5 65t-50 29.5t-54.5 8h-32q-105 0 -156.5 -125t-51.5 -387v-67q0 -73 4 -141t17.5 -149.5t35 -141t61 -99.5t91.5 -40h31q63 0 110.5 40.5t67.5 102.5v274h-161v150h311v-445z" />
    <glyph glyph-name="gdotaccent" unicode="&#x121;" 
d="M304 1308q0 49 33.5 83t82.5 34t83.5 -34t34.5 -83t-34.5 -83t-83.5 -34t-82.5 34t-33.5 83zM665 -87q0 10 -12 27t-33.5 36.5t-61.5 33t-88 13.5h-18q-74 0 -134.5 -36.5t-60.5 -73.5v-20q0 -45 53 -86t142 -41h18q66 0 130.5 34.5t64.5 92.5v20zM470 899h-18
q-70 0 -132.5 -55.5t-62.5 -124.5v-56q0 -73 62 -135t133 -62h18q71 0 133 62t62 135v56q0 69 -62.5 124.5t-132.5 55.5zM172 62q-65 64 -65 153v66q0 98 79 176q-79 102 -79 206v56q0 129 105 229.5t240 100.5h18q109 0 206 -72q74 57 156 57v-150q-30 0 -57 -19
q40 -72 40 -146v-56q0 -138 -106.5 -242.5t-238.5 -104.5h-18q-77 0 -153 43q-42 -35 -42 -73v-71q0 -37 47 -69q74 27 148 27h18q81 0 149 -25t109.5 -64.5t64 -84t22.5 -86.5v-20q0 -113 -104 -195.5t-241 -82.5h-18q-87 0 -156.5 27.5t-109 70.5t-59.5 89.5t-20 90.5v20
q0 74 65 149z" />
    <glyph glyph-name="Gcedilla" unicode="&#x122;" 
d="M681 -206q0 -346 -298 -380l-15 55q49 18 96.5 59t47.5 85q0 56 -34 66q-45 13 -67.5 44.5t-22.5 70.5q0 59 41.5 102t104.5 43t105 -42t42 -103zM815 247q-41 -137 -131 -204.5t-197 -67.5h-31q-49 0 -93 14t-95 60.5t-87 122t-60 210.5t-24 314v67q0 662 358 662h32
q54 0 100.5 -16t78 -38t58 -57t41 -62t27 -65t16 -53t8.5 -39l-146 -30q-13 64 -33 107.5t-45.5 65t-50 29.5t-54.5 8h-32q-105 0 -156.5 -125t-51.5 -387v-67q0 -73 4 -141t17.5 -149.5t35 -141t61 -99.5t91.5 -40h31q63 0 110.5 40.5t67.5 102.5v274h-161v150h311v-445z
" />
    <glyph glyph-name="gcedilla" unicode="&#x123;" 
d="M322 1322q0 346 298 380l15 -55q-49 -18 -96.5 -59t-47.5 -85q0 -56 34 -66q45 -13 67.5 -44.5t22.5 -70.5q0 -59 -41.5 -102t-104.5 -43t-105 42t-42 103zM665 -87q0 10 -12 27t-33.5 36.5t-61.5 33t-88 13.5h-18q-74 0 -134.5 -36.5t-60.5 -73.5v-20q0 -45 53 -86
t142 -41h18q66 0 130.5 34.5t64.5 92.5v20zM470 899h-18q-70 0 -132.5 -55.5t-62.5 -124.5v-56q0 -73 62 -135t133 -62h18q71 0 133 62t62 135v56q0 69 -62.5 124.5t-132.5 55.5zM172 62q-65 64 -65 153v66q0 98 79 176q-79 102 -79 206v56q0 129 105 229.5t240 100.5h18
q109 0 206 -72q74 57 156 57v-150q-30 0 -57 -19q40 -72 40 -146v-56q0 -138 -106.5 -242.5t-238.5 -104.5h-18q-77 0 -153 43q-42 -35 -42 -73v-71q0 -37 47 -69q74 27 148 27h18q81 0 149 -25t109.5 -64.5t64 -84t22.5 -86.5v-20q0 -113 -104 -195.5t-241 -82.5h-18
q-87 0 -156.5 27.5t-109 70.5t-59.5 89.5t-20 90.5v20q0 74 65 149z" />
    <glyph glyph-name="Hcircumflex" unicode="&#x124;" 
d="M538 1705l166 -117l-86 -121l-157 108l-157 -108l-86 121l166 117h154zM257 0h-150v1400h150v-593h408v593h150v-1400h-150v657h-408v-657z" />
    <glyph glyph-name="hcircumflex" unicode="&#x125;" 
d="M658 1703l166 -117l-86 -121l-157 108l-157 -108l-86 121l166 117h154zM257 0h-150v1400h150v-443q89 92 195 92h18q80 0 141.5 -19t99.5 -49.5t62 -74.5t33 -89t9 -98v-719h-150v719q0 98 -43 139t-152 41h-18q-48 0 -94.5 -53.5t-73.5 -123.5t-27 -125v-597z" />
    <glyph glyph-name="Hbar" unicode="&#x126;" 
d="M257 807h408v288h-408v-288zM257 0h-150v1095h-47v150h47v155h150v-155h408v155h150v-155h47v-150h-47v-1095h-150v657h-408v-657z" />
    <glyph glyph-name="hbar" unicode="&#x127;" 
d="M257 0h-150v1205h-47v150h47v45h150v-45h295v-150h-295v-248q89 92 195 92h18q80 0 141.5 -19t99.5 -49.5t62 -74.5t33 -89t9 -98v-719h-150v719q0 98 -43 139t-152 41h-18q-48 0 -94.5 -53.5t-73.5 -123.5t-27 -125v-597z" />
    <glyph glyph-name="Itilde" unicode="&#x128;" 
d="M129 1641q91 115 193 115h16q87 0 151 -55l19 -17q22 -18 51 -18h17q23 2 38 11.5t36 41.5l16 24l124 -84l-16 -24q-80 -119 -198 -119h-17q-33 0 -76.5 14.5t-74.5 41.5l-21 18q-18 16 -49 16h-16q-17 0 -32.5 -11.5t-40.5 -42.5l-19 -26l-120 90zM832 1400v-150h-296
v-1100h296v-150h-742v150h296v1100h-296v150h742z" />
    <glyph glyph-name="itilde" unicode="&#x129;" 
d="M137 1323q91 115 193 115h16q87 0 151 -55l19 -17q22 -18 51 -18h17q23 2 38 11.5t36 41.5l16 24l124 -84l-16 -24q-80 -119 -198 -119h-17q-33 0 -76.5 14.5t-74.5 41.5l-21 18q-18 16 -49 16h-16q-17 0 -32.5 -11.5t-40.5 -42.5l-19 -26l-120 90zM182 1024h354v-874
h204v-150h-558v150h204v724h-204v150z" />
    <glyph glyph-name="Imacron" unicode="&#x12a;" 
d="M235 1503v150h453v-150h-453zM832 1400v-150h-296v-1100h296v-150h-742v150h296v1100h-296v150h742z" />
    <glyph glyph-name="imacron" unicode="&#x12b;" 
d="M243 1135v150h453v-150h-453zM182 1024h354v-874h204v-150h-558v150h204v724h-204v150z" />
    <glyph glyph-name="Ibreve" unicode="&#x12c;" 
d="M459 1467q-84 0 -158.5 37t-128.5 102l115 96q70 -85 172 -85q105 0 178 86l114 -97q-55 -65 -131 -102t-161 -37zM832 1400v-150h-296v-1100h296v-150h-742v150h296v1100h-296v150h742z" />
    <glyph glyph-name="ibreve" unicode="&#x12d;" 
d="M467 1169q-84 0 -158.5 37t-128.5 102l115 96q70 -85 172 -85q105 0 178 86l114 -97q-55 -65 -131 -102t-161 -37zM182 1024h354v-874h204v-150h-558v150h204v724h-204v150z" />
    <glyph glyph-name="Iogonek" unicode="&#x12e;" 
d="M560 -358q-59 -49 -133 -49q-84 0 -143.5 60t-59.5 144q0 82 57 142l105 105v41h150v-103l-147 -147q-15 -17 -15 -38q0 -22 16 -38t37 -16q19 0 35 13l27 23l98 -113zM832 1400v-150h-296v-1100h296v-150h-742v150h296v1100h-296v150h742z" />
    <glyph glyph-name="iogonek" unicode="&#x12f;" 
d="M560 -358q-59 -49 -133 -49q-84 0 -143.5 60t-59.5 144q0 82 57 142l105 105v41h150v-103l-147 -147q-15 -17 -15 -38q0 -22 16 -38t37 -16q19 0 35 13l27 23l98 -113zM352 1297q0 49 33.5 83t82.5 34t83.5 -34t34.5 -83t-34.5 -83t-83.5 -34t-82.5 34t-33.5 83z
M182 1024h354v-874h204v-150h-558v150h204v724h-204v150z" />
    <glyph glyph-name="Idotaccent" unicode="&#x130;" 
d="M341 1574q0 49 33.5 83t82.5 34t83.5 -34t34.5 -83t-34.5 -83t-83.5 -34t-82.5 34t-33.5 83zM832 1400v-150h-296v-1100h296v-150h-742v150h296v1100h-296v150h742z" />
    <glyph glyph-name="dotlessi" unicode="&#x131;" 
d="M182 1024h354v-874h204v-150h-558v150h204v724h-204v150z" />
    <glyph glyph-name="IJ" unicode="&#x132;" 
d="M515 412q60 0 60 185v653h-229v-1100h216v-150h-522v150h156v1100h-156v150h842v-150h-157v-653q0 -83 -14 -146t-35 -98t-51 -56.5t-55.5 -28t-54.5 -6.5h-88v150h88z" />
    <glyph glyph-name="ij" unicode="&#x133;" 
d="M782 1315q0 49 33.5 83t82.5 34t83.5 -34t34.5 -83t-34.5 -83t-83.5 -34t-82.5 34t-33.5 83zM725 -201q50 0 79.5 28t29.5 82v983h-318v150h468v-1133q0 -117 -73.5 -188.5t-185.5 -71.5q-107 0 -183 77.5t-76 181.5h150q0 -42 32.5 -75.5t76.5 -33.5zM226 1298
q0 49 33.5 83t82.5 34t83.5 -34t34.5 -83t-34.5 -83t-83.5 -34t-82.5 34t-33.5 83zM56 1025h354v-874h204v-150h-558v150h204v724h-204v150z" />
    <glyph glyph-name="Jcircumflex" unicode="&#x134;" 
d="M660 1705l166 -117l-86 -121l-157 108l-157 -108l-86 121l166 117h154zM852 1400v-150h-172v-913q0 -165 -83 -263.5t-217 -98.5h-18q-55 0 -100 12t-74.5 33.5t-50.5 43t-34 50t-18.5 44t-9.5 33.5l146 34q12 -53 44.5 -76.5t96.5 -23.5h18q43 0 74 19.5t46.5 52
t22.5 67t7 73.5v913h-212v150h534z" />
    <glyph glyph-name="jcircumflex" unicode="&#x135;" 
d="M738 1407l166 -117l-86 -121l-157 108l-157 -108l-86 121l166 117h154zM476 -219q50 0 79.5 28t29.5 82v983h-318v150h468v-1133q0 -117 -73.5 -188.5t-185.5 -71.5q-107 0 -183 77.5t-76 181.5h150q0 -42 32.5 -75.5t76.5 -33.5z" />
    <glyph glyph-name="Kcedilla" unicode="&#x136;" 
d="M623 -195q0 -346 -298 -380l-15 55q49 18 96.5 59t47.5 85q0 56 -34 66q-45 13 -67.5 44.5t-22.5 70.5q0 59 41.5 102t104.5 43t105 -42t42 -103zM108 0v1400h150v-648l397 648h176l-366 -597l383 -803h-167l-310 650l-113 -184v-466h-150z" />
    <glyph glyph-name="kcedilla" unicode="&#x137;" 
d="M624 -195q0 -346 -298 -380l-15 55q49 18 96.5 59t47.5 85q0 56 -34 66q-45 13 -67.5 44.5t-22.5 70.5q0 59 41.5 102t104.5 43t105 -42t42 -103zM107 0v1425h150v-832l425 518l116 -96l-327 -399l358 -616h-175l-285 492l-112 -136v-356h-150z" />
    <glyph glyph-name="kgreenlandic" unicode="&#x138;" 
d="M257 0h-150v1024h150v-657l451 657l124 -85l-338 -491l339 -448h-188l-241 317l-147 -214v-103z" />
    <glyph glyph-name="Lacute" unicode="&#x139;" 
d="M426 1383l-140 135l258 272l140 -135zM257 151h575v-151h-725v1400h150v-1249z" />
    <glyph glyph-name="lacute" unicode="&#x13a;" 
d="M476 1384l-140 135l258 272l140 -135zM182 1370.86h354v-1223.98h204v-146.878h-558v146.878h204v1077.11h-204v146.878z" />
    <glyph glyph-name="Lcedilla" unicode="&#x13b;" 
d="M632 -195q0 -346 -298 -380l-15 55q49 18 96.5 59t47.5 85q0 56 -34 66q-45 13 -67.5 44.5t-22.5 70.5q0 59 41.5 102t104.5 43t105 -42t42 -103zM257 151h575v-151h-725v1400h150v-1249z" />
    <glyph glyph-name="lcedilla" unicode="&#x13c;" 
d="M632 -195q0 -346 -298 -380l-15 55q49 18 96.5 59t47.5 85q0 56 -34 66q-45 13 -67.5 44.5t-22.5 70.5q0 59 41.5 102t104.5 43t105 -42t42 -103zM182 1400h354v-1250h204v-150h-558v150h204v1100h-204v150z" />
    <glyph glyph-name="Lcaron" unicode="&#x13d;" 
d="M762 1338q0 -346 -298 -380l-15 55q49 18 96.5 59t47.5 85q0 56 -34 66q-45 13 -67.5 44.5t-22.5 70.5q0 59 41.5 102t104.5 43t105 -42t42 -103zM257 151h575v-151h-725v1400h150v-1249z" />
    <glyph glyph-name="lcaron" unicode="&#x13e;" 
d="M880 1416q0 -346 -298 -380l-15 55q49 18 96.5 59t47.5 85q0 56 -34 66q-45 13 -67.5 44.5t-22.5 70.5q0 59 41.5 102t104.5 43t105 -42t42 -103zM112 1400h354v-1250h204v-150h-558v150h204v1100h-204v150z" />
    <glyph glyph-name="Ldot" unicode="&#x13f;" 
d="M826 711q0 -60 -41 -103t-105 -43q-62 0 -104 43t-42 103q0 59 41.5 103t104.5 44t104.5 -43.5t41.5 -103.5zM257 151h575v-151h-725v1400h150v-1249z" />
    <glyph glyph-name="ldot" unicode="&#x140;" 
d="M878 747q0 -60 -41 -103t-105 -43q-62 0 -104 43t-42 103q0 59 41.5 103t104.5 44t104.5 -43.5t41.5 -103.5zM112 1400h354v-1250h204v-150h-558v150h204v1100h-204v150z" />
    <glyph glyph-name="Lslash" unicode="&#x141;" 
d="M257 151h575v-151h-725v456l-41 -15l-52 142l93 34v783h150v-729l359 130l52 -142l-411 -149v-359z" />
    <glyph glyph-name="lslash" unicode="&#x142;" 
d="M736 801l52 -142l-252 -91v-418h204v-150h-558v150h204v363l-200 -72l-52 142l252 91v576h-204v150h354v-671z" />
    <glyph glyph-name="Nacute" unicode="&#x143;" 
d="M476 1384l-140 135l258 272l140 -135zM257 0h-150v1400h135l423 -986v986h150v-1400h-136l-422 985v-985z" />
    <glyph glyph-name="nacute" unicode="&#x144;" 
d="M424 1159l-140 135l258 272l140 -135zM257 0h-150v1024h150v-67q89 92 195 92h18q80 0 141.5 -19t99.5 -49.5t62 -74.5t33 -89t9 -98v-719h-150v719q0 98 -43 139t-152 41h-18q-48 0 -94.5 -53.5t-73.5 -123.5t-27 -125v-597z" />
    <glyph glyph-name="Ncedilla" unicode="&#x145;" 
d="M632 -195q0 -346 -298 -380l-15 55q49 18 96.5 59t47.5 85q0 56 -34 66q-45 13 -67.5 44.5t-22.5 70.5q0 59 41.5 102t104.5 43t105 -42t42 -103zM257 0h-150v1400h135l423 -986v986h150v-1400h-136l-422 985v-985z" />
    <glyph glyph-name="ncedilla" unicode="&#x146;" 
d="M632 -195q0 -346 -298 -380l-15 55q49 18 96.5 59t47.5 85q0 56 -34 66q-45 13 -67.5 44.5t-22.5 70.5q0 59 41.5 102t104.5 43t105 -42t42 -103zM257 0h-150v1024h150v-67q89 92 195 92h18q80 0 141.5 -19t99.5 -49.5t62 -74.5t33 -89t9 -98v-719h-150v719q0 98 -43 139
t-152 41h-18q-48 0 -94.5 -53.5t-73.5 -123.5t-27 -125v-597z" />
    <glyph glyph-name="Ncaron" unicode="&#x147;" 
d="M461 1614l157 109l86 -122l-166 -117h-154l-166 117l86 122zM257 0h-150v1400h135l423 -986v986h150v-1400h-136l-422 985v-985z" />
    <glyph glyph-name="ncaron" unicode="&#x148;" 
d="M461 1323l157 109l86 -122l-166 -117h-154l-166 117l86 122zM257 0h-150v1024h150v-67q89 92 195 92h18q80 0 141.5 -19t99.5 -49.5t62 -74.5t33 -89t9 -98v-719h-150v719q0 98 -43 139t-152 41h-18q-48 0 -94.5 -53.5t-73.5 -123.5t-27 -125v-597z" />
    <glyph glyph-name="napostrophe" unicode="&#x149;" 
d="M128 1102q-28 -48 -74 -48q-28 0 -47 20t-19 54q0 18 4 31l79 319q9 38 47 63t80 25q51 0 81.5 -37.5t30.5 -85.5q0 -34 -15 -59zM337 0h-150v1024h150v-67q89 92 195 92h18q80 0 141.5 -19t99.5 -49.5t62 -74.5t33 -89t9 -98v-719h-150v719q0 98 -43 139t-152 41h-18
q-48 0 -94.5 -53.5t-73.5 -123.5t-27 -125v-597z" />
    <glyph glyph-name="Eng" unicode="&#x14a;" 
d="M257 0h-150v1400h150v-71q89 96 195 96h18q161 0 253 -96t92 -266v-1091q0 -144 -81 -242.5t-208 -98.5h-51q-128 0 -203 94l118 94q30 -38 85 -38h51q62 0 100.5 55t38.5 136v1091q0 114 -50.5 163t-144.5 49h-18q-47 0 -94 -57.5t-74 -131t-27 -128.5v-958z" />
    <glyph glyph-name="eng" unicode="&#x14b;" 
d="M257 0h-150v1024h150v-67q89 92 195 92h18q80 0 141.5 -19t99.5 -49.5t62 -74.5t33 -89t9 -98v-747q0 -144 -81 -242.5t-208 -98.5h-51q-128 0 -203 94l118 94q30 -38 85 -38h51q62 0 100.5 55t38.5 136v747q0 98 -43 139t-152 41h-18q-48 0 -94.5 -53.5t-73.5 -123.5
t-27 -125v-597z" />
    <glyph glyph-name="Omacron" unicode="&#x14c;" 
d="M240 1503v150h453v-150h-453zM825 765v-69q0 -179 -24 -313.5t-60 -210t-86.5 -122t-94.5 -61t-93 -14.5h-11q-49 0 -93 14t-95 60.5t-87 122t-60 210.5t-24 314v67q0 662 358 662h12q358 0 358 -660zM467 1275h-12q-105 0 -156.5 -125t-51.5 -387v-67q0 -73 4 -141
t17.5 -149.5t35 -141t61 -99.5t91.5 -40h11q52 0 91.5 40.5t61 99.5t34.5 140.5t17 149.5t4 141v69q0 261 -51 385.5t-157 124.5z" />
    <glyph glyph-name="omacron" unicode="&#x14d;" 
d="M246 1135v150h453v-150h-453zM825 562v-92q0 -116 -23.5 -206.5t-59 -143.5t-83.5 -87t-92.5 -46t-90.5 -12h-35q-168 0 -256 138t-88 358v90q0 100 19.5 185t59.5 154t107.5 108.5t155.5 39.5h39q89 0 157 -39t108.5 -107t61 -154t20.5 -186zM478 898h-39
q-55 0 -94.5 -30.5t-59.5 -82.5t-29 -107t-9 -117v-90q0 -63 9 -119.5t29.5 -110t60.5 -85t95 -31.5h35q46 0 81.5 20.5t57.5 54t35.5 79.5t19 92.5t5.5 98.5v92q0 49 -5 94t-19 90t-35.5 78t-56.5 53.5t-81 20.5z" />
    <glyph glyph-name="Obreve" unicode="&#x14e;" 
d="M464 1469q-84 0 -158.5 37t-128.5 102l115 96q70 -85 172 -85q105 0 178 86l114 -97q-55 -65 -131 -102t-161 -37zM825 765v-69q0 -179 -24 -313.5t-60 -210t-86.5 -122t-94.5 -61t-93 -14.5h-11q-49 0 -93 14t-95 60.5t-87 122t-60 210.5t-24 314v67q0 662 358 662h12
q358 0 358 -660zM467 1275h-12q-105 0 -156.5 -125t-51.5 -387v-67q0 -73 4 -141t17.5 -149.5t35 -141t61 -99.5t91.5 -40h11q52 0 91.5 40.5t61 99.5t34.5 140.5t17 149.5t4 141v69q0 261 -51 385.5t-157 124.5z" />
    <glyph glyph-name="obreve" unicode="&#x14f;" 
d="M470 1169q-84 0 -158.5 37t-128.5 102l115 96q70 -85 172 -85q105 0 178 86l114 -97q-55 -65 -131 -102t-161 -37zM825 562v-92q0 -116 -23.5 -206.5t-59 -143.5t-83.5 -87t-92.5 -46t-90.5 -12h-35q-168 0 -256 138t-88 358v90q0 100 19.5 185t59.5 154t107.5 108.5
t155.5 39.5h39q89 0 157 -39t108.5 -107t61 -154t20.5 -186zM478 898h-39q-55 0 -94.5 -30.5t-59.5 -82.5t-29 -107t-9 -117v-90q0 -63 9 -119.5t29.5 -110t60.5 -85t95 -31.5h35q46 0 81.5 20.5t57.5 54t35.5 79.5t19 92.5t5.5 98.5v92q0 49 -5 94t-19 90t-35.5 78
t-56.5 53.5t-81 20.5z" />
    <glyph glyph-name="Ohungarumlaut" unicode="&#x150;" 
d="M184 1381l-140 135l258 272l140 -135zM642 1387l-140 135l258 272l140 -135zM825 765v-69q0 -179 -24 -313.5t-60 -210t-86.5 -122t-94.5 -61t-93 -14.5h-11q-49 0 -93 14t-95 60.5t-87 122t-60 210.5t-24 314v67q0 662 358 662h12q358 0 358 -660zM467 1275h-12
q-105 0 -156.5 -125t-51.5 -387v-67q0 -73 4 -141t17.5 -149.5t35 -141t61 -99.5t91.5 -40h11q52 0 91.5 40.5t61 99.5t34.5 140.5t17 149.5t4 141v69q0 261 -51 385.5t-157 124.5z" />
    <glyph glyph-name="ohungarumlaut" unicode="&#x151;" 
d="M165 1139l-140 135l258 272l140 -135zM623 1145l-140 135l258 272l140 -135zM825 562v-92q0 -116 -23.5 -206.5t-59 -143.5t-83.5 -87t-92.5 -46t-90.5 -12h-35q-168 0 -256 138t-88 358v90q0 100 19.5 185t59.5 154t107.5 108.5t155.5 39.5h39q89 0 157 -39t108.5 -107
t61 -154t20.5 -186zM478 898h-39q-55 0 -94.5 -30.5t-59.5 -82.5t-29 -107t-9 -117v-90q0 -63 9 -119.5t29.5 -110t60.5 -85t95 -31.5h35q46 0 81.5 20.5t57.5 54t35.5 79.5t19 92.5t5.5 98.5v92q0 49 -5 94t-19 90t-35.5 78t-56.5 53.5t-81 20.5z" />
    <glyph glyph-name="OE" unicode="&#x152;" 
d="M285 1400h56q53 0 105 -22v22h375v-150h-225v-443h174v-150h-174v-507h225v-150h-375v23q-51 -23 -105 -23h-56q-106 0 -182.5 71.5t-76.5 172.5v912q0 103 76.5 173.5t182.5 70.5zM176 1156v-912q0 -36 31 -65t78 -29h56q38 0 71.5 27.5t33.5 66.5v912q0 42 -33 68
t-72 26h-56q-48 0 -78.5 -28.5t-30.5 -65.5z" />
    <glyph glyph-name="oe" unicode="&#x153;" 
d="M536 805v-188h210v188q0 45 -30 69.5t-75 24.5q-38 0 -71.5 -27.5t-33.5 -66.5zM536 219q0 -42 33 -68t72 -26q44 0 74.5 25t30.5 69h150q0 -107 -74.5 -175.5t-180.5 -68.5t-181 72q-75 -72 -179 -72q-107 0 -181 68.5t-74 175.5v586q0 107 75 175.5t180 68.5
q106 0 181 -72q75 72 179 72q108 0 181.5 -68t73.5 -176v-338h-360v-248zM176 805v-586q0 -44 29.5 -69t75.5 -25q38 0 71.5 27.5t33.5 66.5v586q0 42 -33 68t-72 26q-44 0 -74.5 -25t-30.5 -69z" />
    <glyph glyph-name="Racute" unicode="&#x154;" 
d="M270 1384l-140 135l258 272l140 -135zM470 792q120 0 166 46t46 135v90q0 105 -45.5 146t-166.5 41h-231v-458h231zM89 0v1400h381q62 0 112.5 -9t98 -32t80 -60.5t52 -97t19.5 -138.5v-90q0 -55 -12.5 -103.5t-40.5 -94.5t-81 -79t-127 -46l288 -650h-164l-285 642h-171
v-642h-150z" />
    <glyph glyph-name="racute" unicode="&#x155;" 
d="M407 1153l-140 135l258 272l140 -135zM257 0h-150v1024h150v-125q119 150 265 150h18q199 0 274 -150l-134 -68q-18 35 -49 51.5t-91 16.5h-18q-61 0 -123.5 -66.5t-102 -167.5t-39.5 -195v-470z" />
    <glyph glyph-name="Rcedilla" unicode="&#x156;" 
d="M625 -195q0 -346 -298 -380l-15 55q49 18 96.5 59t47.5 85q0 56 -34 66q-45 13 -67.5 44.5t-22.5 70.5q0 59 41.5 102t104.5 43t105 -42t42 -103zM470 792q120 0 166 46t46 135v90q0 105 -45.5 146t-166.5 41h-231v-458h231zM89 0v1400h381q62 0 112.5 -9t98 -32
t80 -60.5t52 -97t19.5 -138.5v-90q0 -55 -12.5 -103.5t-40.5 -94.5t-81 -79t-127 -46l288 -650h-164l-285 642h-171v-642h-150z" />
    <glyph glyph-name="rcedilla" unicode="&#x157;" 
d="M377 -195q0 -346 -298 -380l-15 55q49 18 96.5 59t47.5 85q0 56 -34 66q-45 13 -67.5 44.5t-22.5 70.5q0 59 41.5 102t104.5 43t105 -42t42 -103zM257 0h-150v1024h150v-125q119 150 265 150h18q199 0 274 -150l-134 -68q-18 35 -49 51.5t-91 16.5h-18
q-61 0 -123.5 -66.5t-102 -167.5t-39.5 -195v-470z" />
    <glyph glyph-name="Rcaron" unicode="&#x158;" 
d="M416 1618l157 109l86 -122l-166 -117h-154l-166 117l86 122zM470 792q120 0 166 46t46 135v90q0 105 -45.5 146t-166.5 41h-231v-458h231zM89 0v1400h381q62 0 112.5 -9t98 -32t80 -60.5t52 -97t19.5 -138.5v-90q0 -55 -12.5 -103.5t-40.5 -94.5t-81 -79t-127 -46
l288 -650h-164l-285 642h-171v-642h-150z" />
    <glyph glyph-name="rcaron" unicode="&#x159;" 
d="M458 1323l157 109l86 -122l-166 -117h-154l-166 117l86 122zM257 0h-150v1024h150v-125q119 150 265 150h18q199 0 274 -150l-134 -68q-18 35 -49 51.5t-91 16.5h-18q-61 0 -123.5 -66.5t-102 -167.5t-39.5 -195v-470z" />
    <glyph glyph-name="Sacute" unicode="&#x15a;" 
d="M407 1384l-140 135l258 272l140 -135zM452 125h18q84 0 149.5 63.5t65.5 148.5v30q0 75 -36.5 153t-100.5 110l-262 133q-84 43 -128.5 116t-44.5 154v30q0 149 94.5 255.5t240.5 106.5h27q124 0 215.5 -57t125.5 -169q15 -49 15 -136h-150q0 61 -9 92q-36 120 -197 120
h-27q-81 0 -133 -61.5t-52 -150.5v-30q0 -34 20 -72t71 -64l264 -135q103 -53 160 -167.5t57 -227.5v-30q0 -148 -110 -255t-255 -107h-18q-96 0 -186 53.5t-146 142.5t-56 186h150q0 -86 76 -159t162 -73z" />
    <glyph glyph-name="sacute" unicode="&#x15b;" 
d="M411 1144l-140 135l258 272l140 -135zM665 719q0 79 -51.5 129.5t-143.5 50.5h-18q-96 0 -145.5 -32.5t-49.5 -77.5v-12q3 -35 17.5 -56.5t28.5 -26.5l377 -175q55 -26 95 -82t40 -136v-46q0 -124 -99 -202t-246 -78h-48q-104 0 -185 54t-120.5 135.5t-39.5 172.5h150
q0 -80 53.5 -146t141.5 -66h48q78 0 136.5 34t58.5 96v46q0 26 -16 49.5t-33 32.5l-375 173q-37 18 -65 49.5t-42 65t-20.5 60.5t-6.5 46v12q0 66 34.5 118t88.5 82t111 45t111 15h18q113 0 193 -46.5t116 -119.5t36 -164h-150z" />
    <glyph glyph-name="Scircumflex" unicode="&#x15c;" 
d="M558 1704l166 -117l-86 -121l-157 108l-157 -108l-86 121l166 117h154zM452 125h18q84 0 149.5 63.5t65.5 148.5v30q0 75 -36.5 153t-100.5 110l-262 133q-84 43 -128.5 116t-44.5 154v30q0 149 94.5 255.5t240.5 106.5h27q124 0 215.5 -57t125.5 -169q15 -49 15 -136
h-150q0 61 -9 92q-36 120 -197 120h-27q-81 0 -133 -61.5t-52 -150.5v-30q0 -34 20 -72t71 -64l264 -135q103 -53 160 -167.5t57 -227.5v-30q0 -148 -110 -255t-255 -107h-18q-96 0 -186 53.5t-146 142.5t-56 186h150q0 -86 76 -159t162 -73z" />
    <glyph glyph-name="scircumflex" unicode="&#x15d;" 
d="M566 1409l166 -117l-86 -121l-157 108l-157 -108l-86 121l166 117h154zM665 719q0 79 -51.5 129.5t-143.5 50.5h-18q-96 0 -145.5 -32.5t-49.5 -77.5v-12q3 -35 17.5 -56.5t28.5 -26.5l377 -175q55 -26 95 -82t40 -136v-46q0 -124 -99 -202t-246 -78h-48q-104 0 -185 54
t-120.5 135.5t-39.5 172.5h150q0 -80 53.5 -146t141.5 -66h48q78 0 136.5 34t58.5 96v46q0 26 -16 49.5t-33 32.5l-375 173q-37 18 -65 49.5t-42 65t-20.5 60.5t-6.5 46v12q0 66 34.5 118t88.5 82t111 45t111 15h18q113 0 193 -46.5t116 -119.5t36 -164h-150z" />
    <glyph glyph-name="Scedilla" unicode="&#x15e;" 
d="M578 -281q0 39 -41 61.5t-82 22.5h-80l14 189v15h150v-21l-4 -60q193 -35 193 -207q0 -58 -28 -103t-71 -68t-84.5 -34t-77.5 -11q-140 0 -250 95l98 104q68 -59 152 -59q35 0 73 20.5t38 55.5zM452 125h18q84 0 149.5 63.5t65.5 148.5v30q0 75 -36.5 153t-100.5 110
l-262 133q-84 43 -128.5 116t-44.5 154v30q0 149 94.5 255.5t240.5 106.5h27q124 0 215.5 -57t125.5 -169q15 -49 15 -136h-150q0 61 -9 92q-36 120 -197 120h-27q-81 0 -133 -61.5t-52 -150.5v-30q0 -34 20 -72t71 -64l264 -135q103 -53 160 -167.5t57 -227.5v-30
q0 -148 -110 -255t-255 -107h-18q-96 0 -186 53.5t-146 142.5t-56 186h150q0 -86 76 -159t162 -73z" />
    <glyph glyph-name="scedilla" unicode="&#x15f;" 
d="M590 -281q0 39 -41 61.5t-82 22.5h-80l14 189v15h150v-21l-4 -60q193 -35 193 -207q0 -58 -28 -103t-71 -68t-84.5 -34t-77.5 -11q-140 0 -250 95l98 104q68 -59 152 -59q35 0 73 20.5t38 55.5zM665 719q0 79 -51.5 129.5t-143.5 50.5h-18q-96 0 -145.5 -32.5
t-49.5 -77.5v-12q3 -35 17.5 -56.5t28.5 -26.5l377 -175q55 -26 95 -82t40 -136v-46q0 -124 -99 -202t-246 -78h-48q-104 0 -185 54t-120.5 135.5t-39.5 172.5h150q0 -80 53.5 -146t141.5 -66h48q78 0 136.5 34t58.5 96v46q0 26 -16 49.5t-33 32.5l-375 173q-37 18 -65 49.5
t-42 65t-20.5 60.5t-6.5 46v12q0 66 34.5 118t88.5 82t111 45t111 15h18q113 0 193 -46.5t116 -119.5t36 -164h-150z" />
    <glyph glyph-name="Scaron" unicode="&#x160;" 
d="M481 1616l157 109l86 -122l-166 -117h-154l-166 117l86 122zM452 125h18q84 0 149.5 63.5t65.5 148.5v30q0 75 -36.5 153t-100.5 110l-262 133q-84 43 -128.5 116t-44.5 154v30q0 149 94.5 255.5t240.5 106.5h27q124 0 215.5 -57t125.5 -169q15 -49 15 -136h-150
q0 61 -9 92q-36 120 -197 120h-27q-81 0 -133 -61.5t-52 -150.5v-30q0 -34 20 -72t71 -64l264 -135q103 -53 160 -167.5t57 -227.5v-30q0 -148 -110 -255t-255 -107h-18q-96 0 -186 53.5t-146 142.5t-56 186h150q0 -86 76 -159t162 -73z" />
    <glyph glyph-name="scaron" unicode="&#x161;" 
d="M489 1323l157 109l86 -122l-166 -117h-154l-166 117l86 122zM665 719q0 79 -51.5 129.5t-143.5 50.5h-18q-96 0 -145.5 -32.5t-49.5 -77.5v-12q3 -35 17.5 -56.5t28.5 -26.5l377 -175q55 -26 95 -82t40 -136v-46q0 -124 -99 -202t-246 -78h-48q-104 0 -185 54
t-120.5 135.5t-39.5 172.5h150q0 -80 53.5 -146t141.5 -66h48q78 0 136.5 34t58.5 96v46q0 26 -16 49.5t-33 32.5l-375 173q-37 18 -65 49.5t-42 65t-20.5 60.5t-6.5 46v12q0 66 34.5 118t88.5 82t111 45t111 15h18q113 0 193 -46.5t116 -119.5t36 -164h-150z" />
    <glyph glyph-name="Tcedilla" unicode="&#x162;" 
d="M575 -257q0 39 -41 61.5t-82 22.5h-80l14 189v15h150v-21l-4 -60q193 -35 193 -207q0 -58 -28 -103t-71 -68t-84.5 -34t-77.5 -11q-140 0 -250 95l98 104q68 -59 152 -59q35 0 73 20.5t38 55.5zM852 1400v-150h-316v-1250h-150v1250h-316v150h782z" />
    <glyph glyph-name="tcedilla" unicode="&#x163;" 
d="M656 -276q0 39 -41 61.5t-82 22.5h-80l14 189v15h150v-21l-4 -60q193 -35 193 -207q0 -58 -28 -103t-71 -68t-84.5 -34t-77.5 -11q-140 0 -250 95l98 104q68 -59 152 -59q35 0 73 20.5t38 55.5zM540 125q37 0 69.5 23t35.5 67h150q-5 -59 -27 -104.5t-50.5 -70
t-64.5 -40.5t-62.5 -20.5t-50.5 -4.5h-18q-97 0 -176 69.5t-79 166.5v16l31 631h-208v150h215l21 417h150l-20 -417h284v-150h-291l-32 -639v-8q0 -29 29.5 -57.5t75.5 -28.5h18z" />
    <glyph glyph-name="Tcaron" unicode="&#x164;" 
d="M461 1618l157 109l86 -122l-166 -117h-154l-166 117l86 122zM852 1400v-150h-316v-1250h-150v1250h-316v150h782z" />
    <glyph glyph-name="tcaron" unicode="&#x165;" 
d="M853 1613q0 -346 -298 -380l-15 55q49 18 96.5 59t47.5 85q0 56 -34 66q-45 13 -67.5 44.5t-22.5 70.5q0 59 41.5 102t104.5 43t105 -42t42 -103zM540 125q37 0 69.5 23t35.5 67h150q-5 -59 -27 -104.5t-50.5 -70t-64.5 -40.5t-62.5 -20.5t-50.5 -4.5h-18
q-97 0 -176 69.5t-79 166.5v16l31 631h-208v150h215l21 417h150l-20 -417h284v-150h-291l-32 -639v-8q0 -29 29.5 -57.5t75.5 -28.5h18z" />
    <glyph glyph-name="Tbar" unicode="&#x166;" 
d="M852 1400v-150h-316v-615h269v-150h-269v-485h-150v485h-271v150h271v615h-316v150h782z" />
    <glyph glyph-name="tbar" unicode="&#x167;" 
d="M417 211q0 -29 28.5 -55.5t76.5 -30.5h18q32 0 59 15.5t38 40.5l136 -62q-31 -68 -96 -106t-137 -38h-18q-97 0 -176 69.5t-79 166.5v27l13 247h-165v150h172l11 223h-208v150h215l21 417h150l-20 -417h284v-150h-291l-11 -223h367v-150h-375l-13 -255v-19z" />
    <glyph glyph-name="Utilde" unicode="&#x168;" 
d="M129 1634q91 115 193 115h16q87 0 151 -55l19 -17q22 -18 51 -18h17q23 2 38 11.5t36 41.5l16 24l124 -84l-16 -24q-80 -119 -198 -119h-17q-33 0 -76.5 14.5t-74.5 41.5l-21 18q-18 16 -49 16h-16q-17 0 -32.5 -11.5t-40.5 -42.5l-19 -26l-120 90zM257 337
q0 -115 50.5 -163.5t144.5 -48.5h18q94 0 144.5 48.5t50.5 163.5v1063h150v-1063q0 -172 -91.5 -267t-253.5 -95h-18q-162 0 -253.5 94.5t-91.5 267.5v1063h150v-1063z" />
    <glyph glyph-name="utilde" unicode="&#x169;" 
d="M129 1323q91 115 193 115h16q87 0 151 -55l19 -17q22 -18 51 -18h17q23 2 38 11.5t36 41.5l16 24l124 -84l-16 -24q-80 -119 -198 -119h-17q-33 0 -76.5 14.5t-74.5 41.5l-21 18q-18 16 -49 16h-16q-17 0 -32.5 -11.5t-40.5 -42.5l-19 -26l-120 90zM665 1024h150v-1024
h-150v88q-100 -113 -215 -113h-18q-66 0 -121.5 18t-102.5 57.5t-74 112.5t-27 174v687h150v-687q0 -120 43.5 -166t131.5 -46h18q47 0 99 58t84 134t32 130v577z" />
    <glyph glyph-name="Umacron" unicode="&#x16a;" 
d="M234 1503v150h453v-150h-453zM257 337q0 -115 50.5 -163.5t144.5 -48.5h18q94 0 144.5 48.5t50.5 163.5v1063h150v-1063q0 -172 -91.5 -267t-253.5 -95h-18q-162 0 -253.5 94.5t-91.5 267.5v1063h150v-1063z" />
    <glyph glyph-name="umacron" unicode="&#x16b;" 
d="M234 1135v150h453v-150h-453zM665 1024h150v-1024h-150v88q-100 -113 -215 -113h-18q-66 0 -121.5 18t-102.5 57.5t-74 112.5t-27 174v687h150v-687q0 -120 43.5 -166t131.5 -46h18q47 0 99 58t84 134t32 130v577z" />
    <glyph glyph-name="Ubreve" unicode="&#x16c;" 
d="M458 1467q-84 0 -158.5 37t-128.5 102l115 96q70 -85 172 -85q105 0 178 86l114 -97q-55 -65 -131 -102t-161 -37zM257 337q0 -115 50.5 -163.5t144.5 -48.5h18q94 0 144.5 48.5t50.5 163.5v1063h150v-1063q0 -172 -91.5 -267t-253.5 -95h-18q-162 0 -253.5 94.5
t-91.5 267.5v1063h150v-1063z" />
    <glyph glyph-name="ubreve" unicode="&#x16d;" 
d="M458 1169q-84 0 -158.5 37t-128.5 102l115 96q70 -85 172 -85q105 0 178 86l114 -97q-55 -65 -131 -102t-161 -37zM665 1024h150v-1024h-150v88q-100 -113 -215 -113h-18q-66 0 -121.5 18t-102.5 57.5t-74 112.5t-27 174v687h150v-687q0 -120 43.5 -166t131.5 -46h18
q47 0 99 58t84 134t32 130v577z" />
    <glyph glyph-name="Uring" unicode="&#x16e;" 
d="M251 1492q0 84 58 143t142 59t144 -59t60 -143t-60 -143t-144 -59t-142 59t-58 143zM361 1492q0 -38 26.5 -65t64.5 -27t65.5 27t27.5 65t-27.5 65t-65.5 27t-64.5 -27t-26.5 -65zM257 307.52q0 -105.622 50.5 -150.167q50.5 -44.5459 144.5 -44.5459h18
q94 0 144.5 44.5459q50.5 44.5449 50.5 150.167v976.32h150v-976.32q0 -157.975 -91.5 -245.228t-253.5 -87.2529h-18q-162 0 -253.5 86.7939t-91.5 245.687v976.32h150v-976.32z" />
    <glyph glyph-name="uring" unicode="&#x16f;" 
d="M251 1369q0 84 58 143t142 59t144 -59t60 -143t-60 -143t-144 -59t-142 59t-58 143zM361 1369q0 -38 26.5 -65t64.5 -27t65.5 27t27.5 65t-27.5 65t-65.5 27t-64.5 -27t-26.5 -65zM665 1024h150v-1024h-150v88q-100 -113 -215 -113h-18q-66 0 -121.5 18t-102.5 57.5
t-74 112.5t-27 174v687h150v-687q0 -120 43.5 -166t131.5 -46h18q47 0 99 58t84 134t32 130v577z" />
    <glyph glyph-name="Uhungarumlaut" unicode="&#x170;" 
d="M198 1384l-140 135l258 272l140 -135zM656 1390l-140 135l258 272l140 -135zM257 337q0 -115 50.5 -163.5t144.5 -48.5h18q94 0 144.5 48.5t50.5 163.5v1063h150v-1063q0 -172 -91.5 -267t-253.5 -95h-18q-162 0 -253.5 94.5t-91.5 267.5v1063h150v-1063z" />
    <glyph glyph-name="uhungarumlaut" unicode="&#x171;" 
d="M208 1172l-140 135l258 272l140 -135zM666 1178l-140 135l258 272l140 -135zM665 1024h150v-1024h-150v88q-100 -113 -215 -113h-18q-66 0 -121.5 18t-102.5 57.5t-74 112.5t-27 174v687h150v-687q0 -120 43.5 -166t131.5 -46h18q47 0 99 58t84 134t32 130v577z" />
    <glyph glyph-name="Uogonek" unicode="&#x172;" 
d="M559 -384q-59 -49 -133 -49q-84 0 -143.5 60t-59.5 144q0 82 57 142l105 105v41h150v-103l-147 -147q-15 -17 -15 -38q0 -22 16 -38t37 -16q19 0 35 13l27 23l98 -113zM257 337q0 -115 50.5 -163.5t144.5 -48.5h18q94 0 144.5 48.5t50.5 163.5v1063h150v-1063
q0 -172 -91.5 -267t-253.5 -95h-18q-162 0 -253.5 94.5t-91.5 267.5v1063h150v-1063z" />
    <glyph glyph-name="uogonek" unicode="&#x173;" 
d="M839 -384q-59 -49 -133 -49q-84 0 -143.5 60t-59.5 144q0 82 57 142l105 105v41h150v-103l-147 -147q-15 -17 -15 -38q0 -22 16 -38t37 -16q19 0 35 13l27 23l98 -113zM665 1024h150v-1024h-150v88q-100 -113 -215 -113h-18q-66 0 -121.5 18t-102.5 57.5t-74 112.5
t-27 174v687h150v-687q0 -120 43.5 -166t131.5 -46h18q47 0 99 58t84 134t32 130v577z" />
    <glyph glyph-name="Wcircumflex" unicode="&#x174;" 
d="M539 1701l166 -117l-86 -121l-157 108l-157 -108l-86 121l166 117h154zM127 0l-101 1400h151l66 -922l176 712h84l176 -712l66 922h151l-101 -1400h-153l-181 736l-181 -736h-153z" />
    <glyph glyph-name="wcircumflex" unicode="&#x175;" 
d="M539 1407l166 -117l-86 -121l-157 108l-157 -108l-86 121l166 117h154zM134 0l-106 1024h152l61 -594l172 519h96l172 -519l61 594h152l-106 -1024h-122l-205 617l-205 -617h-122z" />
    <glyph glyph-name="Ycircumflex" unicode="&#x176;" 
d="M539 1695l166 -117l-86 -121l-157 108l-157 -108l-86 121l166 117h154zM386 -25v526l-296 899h157l215 -648l213 648h157l-295 -899l-1 -526h-150z" />
    <glyph glyph-name="ycircumflex" unicode="&#x177;" 
d="M558 1407l166 -117l-86 -121l-157 108l-157 -108l-86 121l166 117h154zM841 1024l-261 -1154q-15 -65 -42 -112.5t-54.5 -71t-62 -37t-55 -16t-42.5 -2.5q-79 0 -145.5 50.5t-95.5 120.5l138 56q13 -31 43 -54t60 -23q34 0 67 37.5t45 91.5l44 195l-372 919h163l267 -660
l149 660h154z" />
    <glyph glyph-name="Ydieresis" unicode="&#x178;" 
d="M328 1592q0 -46 -32.5 -80.5t-77.5 -34.5q-46 0 -79 33.5t-33 81.5q0 49 33.5 81t76.5 32q47 0 79.5 -33.5t32.5 -79.5zM817 1592q0 -49 -33 -82t-76 -33q-45 0 -78 34t-33 81q0 48 33 80.5t78 32.5q42 0 75.5 -32t33.5 -81zM386 -25v526l-296 899h157l215 -648l213 648
h157l-295 -899l-1 -526h-150z" />
    <glyph glyph-name="Zacute" unicode="&#x179;" 
d="M473 1383l-140 135l258 272l140 -135zM90 1250v150h742v-139l-567 -1110h567v-151h-742v140l567 1110h-567z" />
    <glyph glyph-name="zacute" unicode="&#x17a;" 
d="M414 1151l-140 135l258 272l140 -135zM87 113l547 761h-494v150h697v-124l-539 -750h539v-150h-750v113z" />
    <glyph glyph-name="Zdotaccent" unicode="&#x17b;" 
d="M337 1575q0 49 33.5 83t82.5 34t83.5 -34t34.5 -83t-34.5 -83t-83.5 -34t-82.5 34t-33.5 83zM90 1250v150h742v-139l-567 -1110h567v-151h-742v140l567 1110h-567z" />
    <glyph glyph-name="zdot" unicode="&#x17c;" 
d="M338 1297q0 49 33.5 83t82.5 34t83.5 -34t34.5 -83t-34.5 -83t-83.5 -34t-82.5 34t-33.5 83zM87 113l547 761h-494v150h697v-124l-539 -750h539v-150h-750v113z" />
    <glyph glyph-name="Zcaron" unicode="&#x17d;" 
d="M458 1616l157 109l86 -122l-166 -117h-154l-166 117l86 122zM90 1250v150h742v-139l-567 -1110h567v-151h-742v140l567 1110h-567z" />
    <glyph glyph-name="zcaron" unicode="&#x17e;" 
d="M459 1321l157 109l86 -122l-166 -117h-154l-166 117l86 122zM87 113l547 761h-494v150h697v-124l-539 -750h539v-150h-750v113z" />
    <glyph glyph-name="slong" unicode="&#x17f;" 
d="M665 719q0 79 -51.5 129.5t-143.5 50.5h-18q-96 0 -145.5 -32.5t-49.5 -77.5v-12q3 -35 17.5 -56.5t28.5 -26.5l377 -175q55 -26 95 -82t40 -136v-46q0 -124 -99 -202t-246 -78h-48q-104 0 -185 54t-120.5 135.5t-39.5 172.5h150q0 -80 53.5 -146t141.5 -66h48
q78 0 136.5 34t58.5 96v46q0 26 -16 49.5t-33 32.5l-375 173q-37 18 -65 49.5t-42 65t-20.5 60.5t-6.5 46v12q0 66 34.5 118t88.5 82t111 45t111 15h18q113 0 193 -46.5t116 -119.5t36 -164h-150z" />
    <glyph glyph-name="florin" unicode="&#x192;" 
d="M769 1240q-28 35 -94 35q-46 0 -76.5 -26.5t-32.5 -71.5l-13 -275h219v-150h-225l-41 -883q-4 -94 -78 -174t-181 -80q-64 0 -125 33.5t-97 91.5l128 80q14 -22 40.5 -39t53.5 -17q41 0 74 36t35 77l40 875h-216v150h223l13 283q5 104 78.5 172t180.5 68q45 0 86 -13.5
t69 -34t42 -33.5t23 -24z" />
    <glyph glyph-name="dotlessj" unicode="&#x237;" 
d="M476 -219q50 0 79.5 28t29.5 82v983h-318v150h468v-1133q0 -117 -73.5 -188.5t-185.5 -71.5q-107 0 -183 77.5t-76 181.5h150q0 -42 32.5 -75.5t76.5 -33.5z" />
    <glyph glyph-name="circumflex" unicode="&#x2c6;" 
d="M538 1638l166 -117l-86 -121l-157 108l-157 -108l-86 121l166 117h154z" />
    <glyph glyph-name="caron" unicode="&#x2c7;" 
d="M461 1552l157 109l86 -122l-166 -117h-154l-166 117l86 122z" />
    <glyph glyph-name="macronmodifier" unicode="&#x2c9;" 
d="M234 1463v150h453v-150h-453z" />
    <glyph glyph-name="gravemodifier" unicode="&#x2cb;" 
d="M690 1454l-140 -135l-258 272l140 135z" />
    <glyph glyph-name="breve" unicode="&#x2d8;" 
d="M458 1405q-84 0 -158.5 37t-128.5 102l115 96q70 -85 172 -85q105 0 178 86l114 -97q-55 -65 -131 -102t-161 -37z" />
    <glyph glyph-name="dotaccent" unicode="&#x2d9;" 
d="M340 1507q0 49 33.5 83t82.5 34t83.5 -34t34.5 -83t-34.5 -83t-83.5 -34t-82.5 34t-33.5 83z" />
    <glyph glyph-name="ring" unicode="&#x2da;" 
d="M251 1425q0 84 58 143t142 59t144 -59t60 -143t-60 -143t-144 -59t-142 59t-58 143zM361 1425q0 -38 26.5 -65t64.5 -27t65.5 27t27.5 65t-27.5 65t-65.5 27t-64.5 -27t-26.5 -65z" />
    <glyph glyph-name="ogonek" unicode="&#x2db;" 
d="M629 -371q-59 -49 -133 -49q-84 0 -143.5 60t-59.5 144q0 82 57 142l105 105v41h150v-103l-147 -147q-15 -17 -15 -38q0 -22 16 -38t37 -16q19 0 35 13l27 23l98 -113z" />
    <glyph glyph-name="tilde" unicode="&#x2dc;" 
d="M141 1572q91 115 193 115h16q87 0 151 -55l19 -17q22 -18 51 -18h17q23 2 38 11.5t36 41.5l16 24l124 -84l-16 -24q-80 -119 -198 -119h-17q-33 0 -76.5 14.5t-74.5 41.5l-21 18q-18 16 -49 16h-16q-17 0 -32.5 -11.5t-40.5 -42.5l-19 -26l-120 90z" />
    <glyph glyph-name="hungarumlaut" unicode="&#x2dd;" 
d="M138 1313l-140 135l258 272l140 -135zM596 1319l-140 135l258 272l140 -135z" />
    <glyph glyph-name="gravecomb" unicode="&#x300;" 
d="M690 1454l-140 -135l-258 272l140 135z" />
    <glyph glyph-name="acutecomb" unicode="&#x301;" 
d="M372 1319l-140 135l258 272l140 -135z" />
    <glyph glyph-name="tildecomb" unicode="&#x303;" 
d="M141 1572q91 115 193 115h16q87 0 151 -55l19 -17q22 -18 51 -18h17q23 2 38 11.5t36 41.5l16 24l124 -84l-16 -24q-80 -119 -198 -119h-17q-33 0 -76.5 14.5t-74.5 41.5l-21 18q-18 16 -49 16h-16q-17 0 -32.5 -11.5t-40.5 -42.5l-19 -26l-120 90z" />
    <glyph glyph-name="dieresiscmb" unicode="&#x308;" 
d="M327 1367q0 -46 -32.5 -81.5t-77.5 -35.5t-78.5 34.5t-33.5 82.5t33.5 79.5t76.5 31.5q47 0 79.5 -33t32.5 -78zM816 1367q0 -50 -33 -83.5t-76 -33.5q-45 0 -78 34.5t-33 82.5t33 79.5t78 31.5q42 0 75.5 -31.5t33.5 -79.5z" />
    <glyph glyph-name="hookabovecomb" unicode="&#x309;" 
d="M741 1495q0 -41 -17 -73.5t-39.5 -51t-53.5 -31.5t-50 -17t-38 -7v-60h-150v187h75q123 0 123 53q0 28 -33 42t-78 14q-91 0 -160 -45l-82 106q106 69 242 69t198.5 -53.5t62.5 -132.5z" />
    <glyph glyph-name="caroncomb" unicode="&#x30c;" 
d="M461 1552l157 109l86 -122l-166 -117h-154l-166 117l86 122z" />
    <glyph glyph-name="commaturnedabovecmb" unicode="&#x312;" 
d="M612 -270q0 39 -40.5 61t-82.5 22h-80l14 190v15h150v-21l-4 -60q193 -35 193 -207q0 -62 -30 -107.5t-75 -67.5t-84.5 -31.5t-71.5 -9.5q-140 0 -250 95l98 94q68 -59 152 -59q33 0 72 24.5t39 61.5z" />
    <glyph glyph-name="commaaboverightcmb" unicode="&#x315;" 
d="M896 1290q0 -346 -298 -380l-15 55q49 18 96.5 59t47.5 85q0 56 -34 66q-45 13 -67.5 44.5t-22.5 70.5q0 59 41.5 102t104.5 43t105 -42t42 -103z" />
    <glyph glyph-name="dotbelowcomb" unicode="&#x323;" 
d="M345 -253q0 49 33.5 83t82.5 34t83.5 -34t34.5 -83t-34.5 -83t-83.5 -34t-82.5 34t-33.5 83z" />
    <glyph glyph-name="commasubnosp" unicode="&#x326;" 
d="M622 -217q0 -346 -298 -380l-15 55q49 18 96.5 59t47.5 85q0 56 -34 66q-45 13 -67.5 44.5t-22.5 70.5q0 59 41.5 102t104.5 43t105 -42t42 -103z" />
    <glyph glyph-name="tonos" unicode="&#x384;" 
d="M372 1319l-140 135l258 272l140 -135z" />
    <glyph glyph-name="Alpha" unicode="&#x391;" 
d="M329 399h264l-132 605zM241 0h-153l311 1425h124l310 -1425h-153l-54 249h-330z" />
    <glyph glyph-name="Beta" unicode="&#x392;" 
d="M420 1400q36 0 59 -1t63 -7t66.5 -17t59 -33.5t51.5 -54t32.5 -81t13.5 -111.5v-71q0 -150 -73 -226q123 -93 123 -303v-148q0 -162 -86.5 -254.5t-258.5 -92.5h-363v1400h313zM665 347v148q0 66 -12 109t-38.5 66.5t-60 32.5t-84.5 9h-213v-562h213q105 0 150 47.5
t45 149.5zM615 1095q0 100 -38 127.5t-157 27.5h-163v-388h163q117 0 156 34.5t39 127.5v71z" />
    <glyph glyph-name="Gamma" unicode="&#x393;" 
d="M107 0v1400h725v-151h-575v-1249h-150z" />
    <glyph glyph-name="Delta" unicode="&#x394;" 
d="M647 151l-186 853l-186 -854zM89 0l310 1425h124l310 -1425h-744z" />
    <glyph glyph-name="Epsilon" unicode="&#x395;" 
d="M257 712v-561h575v-151h-725v1400h725v-150h-575v-388h483v-150h-483z" />
    <glyph glyph-name="Zeta" unicode="&#x396;" 
d="M90 1250v150h742v-139l-567 -1110h567v-151h-742v140l567 1110h-567z" />
    <glyph glyph-name="Eta" unicode="&#x397;" 
d="M257 0h-150v1400h150v-593h408v593h150v-1400h-150v657h-408v-657z" />
    <glyph glyph-name="Theta" unicode="&#x398;" 
d="M825 765v-69q0 -179 -24 -313.5t-60 -210t-86.5 -122t-94.5 -61t-93 -14.5h-11q-49 0 -93 14t-95 60.5t-87 122t-60 210.5t-24 314v67q0 662 358 662h12q358 0 358 -660zM467 1275h-12q-105 0 -156.5 -125t-51.5 -387v-67q0 -73 4 -141t17.5 -149.5t35 -141t61 -99.5
t91.5 -40h11q52 0 91.5 40.5t61 99.5t34.5 140.5t17 149.5t4 141v69q0 261 -51 385.5t-157 124.5zM582 774v-150h-242v150h242z" />
    <glyph glyph-name="Iota" unicode="&#x399;" 
d="M832 1400v-150h-296v-1100h296v-150h-742v150h296v1100h-296v150h742z" />
    <glyph glyph-name="Kappa" unicode="&#x39a;" 
d="M108 0v1400h150v-648l397 648h176l-366 -597l383 -803h-167l-310 650l-113 -184v-466h-150z" />
    <glyph glyph-name="Lambda" unicode="&#x39b;" 
d="M237 0h-153l315 1425h123l313 -1425h-153l-221 1008z" />
    <glyph glyph-name="Mu" unicode="&#x39c;" 
d="M26 0l101 1400h153l181 -735l181 735h153l101 -1400h-151l-66 923l-176 -712h-84l-176 712l-66 -923h-151z" />
    <glyph glyph-name="Nu" unicode="&#x39d;" 
d="M257 0h-150v1400h135l423 -986v986h150v-1400h-136l-422 985v-985z" />
    <glyph glyph-name="Xi" unicode="&#x39e;" 
d="M257 150h408v187h150v-337h-708v337h150v-187zM650 775v-150h-378v150h378zM107 1049v351h708v-351h-150v201h-408v-201h-150z" />
    <glyph glyph-name="Omicron" unicode="&#x39f;" 
d="M825 765v-69q0 -179 -24 -313.5t-60 -210t-86.5 -122t-94.5 -61t-93 -14.5h-11q-49 0 -93 14t-95 60.5t-87 122t-60 210.5t-24 314v67q0 662 358 662h12q358 0 358 -660zM467 1275h-12q-105 0 -156.5 -125t-51.5 -387v-67q0 -73 4 -141t17.5 -149.5t35 -141t61 -99.5
t91.5 -40h11q52 0 91.5 40.5t61 99.5t34.5 140.5t17 149.5t4 141v69q0 261 -51 385.5t-157 124.5z" />
    <glyph glyph-name="Pi" unicode="&#x3a0;" 
d="M107 0v1400h708v-1400h-150v1250h-408v-1250h-150z" />
    <glyph glyph-name="Rho" unicode="&#x3a1;" 
d="M257 642v-642h-150v1400h363q78 0 137 -15t108 -51.5t74.5 -104.5t25.5 -166v-91q0 -67 -16 -122.5t-52.5 -104t-107 -76t-169.5 -27.5h-213zM470 792q110 0 152.5 41t42.5 139v91q0 110 -40.5 148.5t-154.5 38.5h-213v-458h213z" />
    <glyph glyph-name="Sigma" unicode="&#x3a3;" 
d="M90 1400h742v-150h-572l286 -513l-295 -612h581v-150h-742v159l288 597l-288 515v154z" />
    <glyph glyph-name="Tau" unicode="&#x3a4;" 
d="M852 1400v-150h-316v-1250h-150v1250h-316v150h782z" />
    <glyph glyph-name="Upsilon" unicode="&#x3a5;" 
d="M386 -25v526l-296 899h157l215 -648l213 648h157l-295 -899l-1 -526h-150z" />
    <glyph glyph-name="Phi" unicode="&#x3a6;" 
d="M386 235v933q-90 -25 -136 -125t-46 -290v-56q0 -399 182 -462zM536 1168v-933q54 18 91.5 66t56.5 116t27 135.5t8 144.5v57q0 191 -46 290.5t-137 123.5zM536 -25h-150v105q-50 9 -94 30.5t-89 68t-77 112.5t-52 170.5t-20 235.5v56q0 124 20.5 222t52.5 158.5t77 102
t88.5 60t93.5 26.5v103h150v-103q50 -8 93.5 -26t89 -59.5t77.5 -102t52.5 -158t20.5 -222.5v-57q0 -132 -20.5 -236.5t-52.5 -170t-77.5 -112t-89 -68t-93.5 -30.5v-105z" />
    <glyph glyph-name="Chi" unicode="&#x3a7;" 
d="M94 0l287 700l-287 700h161l206 -503l206 503h161l-287 -700l287 -700h-161l-206 503l-206 -503h-161z" />
    <glyph glyph-name="Psi" unicode="&#x3a8;" 
d="M237 728q0 -41 30.5 -91t78.5 -50h40v838h150v-838h40q48 0 78.5 41t30.5 100v622h150v-622q0 -119 -73 -205t-186 -86h-40v-461h-150v461h-40q-57 0 -103 22t-74.5 55t-47.5 74t-26.5 76t-7.5 64v622h150v-622z" />
    <glyph glyph-name="Omega" unicode="&#x3a9;" 
d="M242 150v143q-145 165 -145 524v55q0 554 358 554h12q358 0 358 -552v-57q0 -375 -145 -526v-141h152v-150h-302v358l27 23q56 46 87 159.5t31 276.5v57q0 103 -13 179t-33 118t-49.5 66.5t-55 31.5t-57.5 7h-12q-32 0 -57.5 -7t-55 -32t-49 -67t-33 -118t-13.5 -180v-55
q0 -322 122 -440l23 -22v-355h-302v150h152z" />
    <glyph glyph-name="Iotadieresis" unicode="&#x3aa;" 
d="M328 1592q0 -46 -32.5 -80.5t-77.5 -34.5q-46 0 -79 33.5t-33 81.5q0 49 33.5 81t76.5 32q47 0 79.5 -33.5t32.5 -79.5zM817 1592q0 -49 -33 -82t-76 -33q-45 0 -78 34t-33 81q0 48 33 80.5t78 32.5q42 0 75.5 -32t33.5 -81zM832 1400v-150h-296v-1100h296v-150h-742v150
h296v1100h-296v150h742z" />
    <glyph glyph-name="Upsilondieresis" unicode="&#x3ab;" 
d="M328 1590q0 -46 -32.5 -80.5t-77.5 -34.5q-46 0 -79 33.5t-33 81.5q0 49 33.5 81t76.5 32q47 0 79.5 -33.5t32.5 -79.5zM817 1590q0 -49 -33 -82t-76 -33q-45 0 -78 34t-33 81q0 48 33 80.5t78 32.5q42 0 75.5 -32t33.5 -81zM386 -25v526l-296 899h157l215 -648l213 648
h157l-295 -899l-1 -526h-150z" />
    <glyph glyph-name="alphatonos" unicode="&#x3ac;" 
d="M371 1181l-140 135l258 272l140 -135zM749 516l107 -500l-146 -32l-37 174q-26 -92 -94.5 -145t-167.5 -53q-70 0 -125 33.5t-90 87.5t-58 127.5t-32 148.5t-9 156t9 155.5t32 148t58 127t90 86.5t125 33q97 0 165.5 -51.5t95.5 -138.5l35 167l146 -32zM596 516l-65 300
q-22 97 -120 97q-74 0 -119 -110t-45 -290q0 -182 45 -292.5t119 -110.5q98 0 119 97z" />
    <glyph glyph-name="epsilontonos" unicode="&#x3ad;" 
d="M401 1162l-140 135l258 272l140 -135zM651 856q-37 43 -161 43h-38q-110 0 -152.5 -36t-42.5 -99q0 -61 50 -108.5t149 -47.5h152v-150h-152q-53 0 -94 -16t-62.5 -40t-32 -46t-10.5 -39v-17q0 -77 45 -126t150 -49h38q74 0 107.5 9.5t55.5 36.5l116 -94
q-47 -57 -111 -79.5t-168 -22.5h-38q-160 0 -252.5 90t-92.5 235v17q0 57 29.5 115t83.5 100q-55 44 -84 105.5t-29 126.5q0 134 89.5 209.5t255.5 75.5h38q59 0 108 -9.5t75 -19.5t52 -30t30.5 -25t17.5 -21z" />
    <glyph glyph-name="etatonos" unicode="&#x3ae;" 
d="M413 1172l-140 135l258 272l140 -135zM257 0h-150v1024h150v-67q89 92 195 92h18q80 0 141.5 -19t99.5 -49.5t62 -74.5t33 -89t9 -98v-1104h-150v1104q0 98 -43 139t-152 41h-18q-48 0 -94.5 -53.5t-73.5 -123.5t-27 -125v-597z" />
    <glyph glyph-name="iotatonos" unicode="&#x3af;" 
d="M360 1181l-140 135l258 272l140 -135zM182 1024h354v-874h204v-150h-558v150h204v724h-204v150z" />
    <glyph glyph-name="upsilondieresistonos" unicode="&#x3b0;" 
d="M432 1384l-140 135l258 272l140 -135zM327 1254q0 -46 -32.5 -80.5t-77.5 -34.5q-46 0 -79 33.5t-33 81.5q0 49 33.5 81t76.5 32q47 0 79.5 -33.5t32.5 -79.5zM816 1254q0 -49 -33 -82t-76 -33q-45 0 -78 34t-33 81q0 48 33 80.5t78 32.5q42 0 75.5 -32t33.5 -81z
M825 513q0 -95 -12.5 -174t-33.5 -134t-51.5 -97t-62 -66.5t-69 -40t-69.5 -21t-66 -5.5q-167 0 -260.5 130.5t-93.5 407.5v511h150v-511q0 -207 52 -297.5t152 -90.5q214 0 214 388q0 216 -43 300.5t-141 84.5v150q68 0 121.5 -19.5t89.5 -56.5t60.5 -84.5t38 -110.5
t19 -125.5t5.5 -138.5z" />
    <glyph glyph-name="alpha" unicode="&#x3b1;" 
d="M749 516l107 -500l-146 -32l-37 174q-26 -92 -94.5 -145t-167.5 -53q-70 0 -125 33.5t-90 87.5t-58 127.5t-32 148.5t-9 156t9 155.5t32 148t58 127t90 86.5t125 33q97 0 165.5 -51.5t95.5 -138.5l35 167l146 -32zM596 516l-65 300q-22 97 -120 97q-74 0 -119 -110
t-45 -290q0 -182 45 -292.5t119 -110.5q98 0 119 97z" />
    <glyph glyph-name="beta" unicode="&#x3b2;" 
d="M257 259q0 -63 42 -98.5t153 -35.5h38q110 0 152 35.5t42 98.5v66q0 56 -30 91t-71 46.5t-94 11.5h-88v150h55q95 0 145 48t50 112q0 115 -185 115h-14q-109 0 -152 -41t-43 -139v-460zM107 719q0 53 9 98t33 89t62 74.5t99.5 49.5t141.5 19h14q67 0 121.5 -12t90 -33.5
t61 -47t38.5 -57t18.5 -59t5.5 -56.5q0 -126 -93 -216q61 -40 93.5 -102.5t32.5 -140.5v-66q0 -38 -8 -73.5t-31 -75t-59.5 -68.5t-100 -48t-145.5 -19h-38q-116 0 -195 37v-333h-150v1040z" />
    <glyph glyph-name="gamma" unicode="&#x3b3;" 
d="M386 -385v424l-282 985h156l201 -703l201 703h156l-282 -985v-424h-150z" />
    <glyph glyph-name="delta" unicode="&#x3b4;" 
d="M665 597q0 57 -9 106.5t-29.5 95.5t-60.5 73t-96 27h-18q-56 0 -96 -26.5t-60.5 -72.5t-29.5 -95.5t-9 -107.5v-170q0 -135 57 -218.5t138 -83.5h18q56 0 96 26.5t60.5 72t29.5 95.5t9 108v170zM120 1400h620v-150h-378l295 -226q79 -61 118.5 -174t39.5 -253v-170
q0 -207 -90.5 -329.5t-254.5 -122.5h-18q-148 0 -246.5 127.5t-98.5 324.5v170q0 175 67.5 295t198.5 149l-253 221v138z" />
    <glyph glyph-name="epsilon" unicode="&#x3b5;" 
d="M651 856q-37 43 -161 43h-38q-110 0 -152.5 -36t-42.5 -99q0 -61 50 -108.5t149 -47.5h152v-150h-152q-53 0 -94 -16t-62.5 -40t-32 -46t-10.5 -39v-17q0 -77 45 -126t150 -49h38q74 0 107.5 9.5t55.5 36.5l116 -94q-47 -57 -111 -79.5t-168 -22.5h-38q-160 0 -252.5 90
t-92.5 235v17q0 57 29.5 115t83.5 100q-55 44 -84 105.5t-29 126.5q0 134 89.5 209.5t255.5 75.5h38q59 0 108 -9.5t75 -19.5t52 -30t30.5 -25t17.5 -21z" />
    <glyph glyph-name="zeta" unicode="&#x3b6;" 
d="M665 -104q0 42 -42 60.5t-153 18.5h-18q-162 0 -253.5 94.5t-91.5 267.5v20q0 55 21 107t58.5 96t66 70t66.5 56l206 162l51 36q-162 24 -255 110l102 110q49 -46 129.5 -63t207.5 -17h52v-129q-60 -61 -197 -167l-204 -160q-154 -122 -154 -211v-20q0 -115 50.5 -163.5
t144.5 -48.5h18q126 0 206 -32q65 -26 102 -85t37 -112q0 -37 -8 -70t-31.5 -69.5t-61.5 -63t-103 -44t-150 -18.5v150q69 0 113 9.5t62.5 28.5t23.5 35t5 42z" />
    <glyph glyph-name="eta" unicode="&#x3b7;" 
d="M257 0h-150v1024h150v-67q89 92 195 92h18q80 0 141.5 -19t99.5 -49.5t62 -74.5t33 -89t9 -98v-1104h-150v1104q0 98 -43 139t-152 41h-18q-48 0 -94.5 -53.5t-73.5 -123.5t-27 -125v-597z" />
    <glyph glyph-name="theta" unicode="&#x3b8;" 
d="M674 437h-426q2 -47 8.5 -89t21 -84t35 -72t53.5 -48.5t75 -18.5h35q53 0 92 26.5t61 73t32.5 98.5t12.5 114zM825 562v-92q0 -116 -23.5 -206.5t-59 -143.5t-83.5 -87t-92.5 -46t-90.5 -12h-35q-168 0 -256 138t-88 358v90q0 100 19.5 185t59.5 154t107.5 108.5
t155.5 39.5h39q89 0 157 -39t108.5 -107t61 -154t20.5 -186zM478 898h-39q-52 0 -90 -27.5t-59 -74.5t-31 -98.5t-12 -110.5h427q-2 60 -12 111.5t-31 98.5t-60.5 74t-92.5 27z" />
    <glyph glyph-name="iota" unicode="&#x3b9;" 
d="M182 1024h354v-874h204v-150h-558v150h204v724h-204v150z" />
    <glyph glyph-name="kappa" unicode="&#x3ba;" 
d="M257 0h-150v1024h150v-657l451 657l124 -85l-338 -491l339 -448h-188l-241 317l-147 -214v-103z" />
    <glyph glyph-name="lambda" unicode="&#x3bb;" 
d="M104 0l279 976l-120 434h156l399 -1410h-156l-201 703l-201 -703h-156z" />
    <glyph glyph-name="mu" unicode="&#x3bc;" 
d="M665 60q-90 -85 -195 -85h-18q-110 0 -195 66v-66q0 -116 -8 -185.5t-37 -160.5l-142 46q24 74 30.5 132.5t6.5 167.5v1049h150v-627q0 -113 50.5 -192.5t144.5 -79.5h18q49 0 95.5 46.5t73 109.5t26.5 116v627h150v-925q0 -19 2.5 -34t5 -23.5t9 -26.5t10.5 -32
l-144 -46q-4 13 -10.5 32.5t-10 30.5t-7.5 27t-5 33z" />
    <glyph glyph-name="nu" unicode="&#x3bd;" 
d="M405 -25l-305 1049h156l205 -705l205 705h157l-306 -1049h-112z" />
    <glyph glyph-name="xi" unicode="&#x3be;" 
d="M458 -219q82 4 144.5 39.5t62.5 59.5v27q0 23 -65.5 45.5t-109.5 22.5h-38q-160 0 -252.5 90t-92.5 235v17q0 56 29.5 114t83.5 101q-55 44 -84 105t-29 127q0 52 10.5 94t32.5 71.5t45 51t60 38t64 25.5t69 21q-86 46 -164 127l108 104q128 -136 291 -144l77 -3v-105
l-35 -27q-48 -37 -111 -60t-112 -33.5t-93 -25.5t-68 -47t-24 -87q0 -61 50 -108.5t149 -47.5h192v-150h-192q-53 0 -94.5 -16t-62.5 -40t-31.5 -46t-10.5 -39v-17q0 -77 45.5 -126t149.5 -49h38q13 0 42 -3.5t80.5 -17t94.5 -35t75.5 -63t32.5 -94.5v-32
q0 -95 -102.5 -168.5t-254.5 -80.5v150z" />
    <glyph glyph-name="omicron" unicode="&#x3bf;" 
d="M825 562v-92q0 -116 -23.5 -206.5t-59 -143.5t-83.5 -87t-92.5 -46t-90.5 -12h-35q-168 0 -256 138t-88 358v90q0 100 19.5 185t59.5 154t107.5 108.5t155.5 39.5h39q89 0 157 -39t108.5 -107t61 -154t20.5 -186zM478 898h-39q-55 0 -94.5 -30.5t-59.5 -82.5t-29 -107
t-9 -117v-90q0 -63 9 -119.5t29.5 -110t60.5 -85t95 -31.5h35q46 0 81.5 20.5t57.5 54t35.5 79.5t19 92.5t5.5 98.5v92q0 49 -5 94t-19 90t-35.5 78t-56.5 53.5t-81 20.5z" />
    <glyph glyph-name="pi" unicode="&#x3c0;" 
d="M90 990q82 34 202 34h338q148 0 202 57v-174q-48 -19 -107 -27v-712q0 -88 39 -168h-162q-27 82 -27 168v706h-228v-706q0 -77 -32 -168h-162q44 86 44 168v698q-65 -12 -107 -48v172z" />
    <glyph glyph-name="rho" unicode="&#x3c1;" 
d="M665 427v170q0 135 -57 218.5t-138 83.5h-18q-56 0 -96 -26.5t-60.5 -72t-29.5 -95.5t-9 -108v-170q0 -58 9 -107.5t29.5 -95.5t60.5 -72.5t96 -26.5h18q56 0 96 26.5t60.5 72.5t29.5 95.5t9 107.5zM470 -25h-18q-114 0 -195 62v-422h-150v982q0 207 90.5 329.5
t254.5 122.5h18q148 0 246.5 -127.5t98.5 -324.5v-170q0 -130 -36.5 -230t-116 -161t-192.5 -61z" />
    <glyph glyph-name="sigmafinal" unicode="&#x3c2;" 
d="M665 -92q0 10 -14.5 23.5t-62 27.5t-118.5 16h-18q-148 0 -246.5 127t-98.5 325v170q0 194 124.5 321.5t323.5 127.5q103 0 213 -42l41 -15l-52 -140l-41 15q-86 32 -161 32q-138 0 -218 -84t-80 -215v-170q0 -135 57 -218.5t138 -83.5h18q80 -2 142 -17.5t99.5 -37.5
t61.5 -51t33 -56t9 -55v-19q0 -109 -90.5 -183.5t-266.5 -74.5v150q36 0 69.5 5t66 16.5t52 33.5t19.5 53v19z" />
    <glyph glyph-name="sigma" unicode="&#x3c3;" 
d="M805 562v-92q0 -87 -12 -158.5t-31.5 -122t-47.5 -89t-57.5 -62t-64 -38t-64.5 -20t-62 -5.5h-35q-45 0 -87 11.5t-88.5 45t-80 86t-56 144t-22.5 209.5v90q0 116 22 205.5t56 141.5t80 85t88 44t86 11h39q86 0 156 -41l258 1v-150h-129q52 -115 52 -296zM468 898h-39
q-52 0 -89.5 -29t-56.5 -79.5t-27.5 -106.5t-8.5 -122v-90q0 -67 8.5 -124.5t28 -109.5t57 -82t90.5 -30h35q189 0 189 345v92q0 67 -8.5 122.5t-28.5 106t-58 79t-92 28.5z" />
    <glyph glyph-name="tau" unicode="&#x3c4;" 
d="M90 967q92 57 202 57h338q63 0 118 44t84 98v-223q-94 -69 -202 -69h-94v-516q0 -183 -82 -358h-172q44 67 74 162.5t30 195.5v516h-94q-67 0 -119.5 -32t-82.5 -78v203z" />
    <glyph glyph-name="upsilon" unicode="&#x3c5;" 
d="M825 513q0 -95 -12.5 -174t-33.5 -134t-51.5 -97t-62 -66.5t-69 -40t-69.5 -21t-66 -5.5q-167 0 -260.5 130.5t-93.5 407.5v511h150v-511q0 -207 52 -297.5t152 -90.5q214 0 214 388q0 216 -43 300.5t-141 84.5v150q68 0 121.5 -19.5t89.5 -56.5t60.5 -84.5t38 -110.5
t19 -125.5t5.5 -138.5z" />
    <glyph glyph-name="phi" unicode="&#x3c6;" 
d="M605 898q-34 0 -51.5 -51.5t-17.5 -112.5v-597q50 17 87 59t56 97t27.5 109t8.5 111q0 385 -110 385zM386 734q0 152 54.5 233t164.5 81q48 0 85.5 -13.5t71 -49.5t55.5 -95t35 -154t13 -223q0 -218 -89 -360t-240 -171v-367h-150v367q-151 29 -240 171t-89 360v460h150
v-460q0 -56 8.5 -110.5t27.5 -109.5t56 -97t87 -59v597z" />
    <glyph glyph-name="chi" unicode="&#x3c7;" 
d="M122 -385l255 693l-57 235q-26 106 -68 207.5t-76 149.5l-88 124h184l24 -34q50 -70 100 -196.5t74 -232.5l170 463h159l-265 -723l31 -127q34 -138 81.5 -262t89.5 -171l113 -126h-200l-25 26q-96 109 -182 410l-161 -436h-159z" />
    <glyph glyph-name="psi" unicode="&#x3c8;" 
d="M386 1049h150v-910q83 33 131 133t48 241v460h150v-460q0 -209 -89.5 -354t-239.5 -176v-368h-150v367q-151 29 -240 171t-89 360v460h150v-460q0 -56 8.5 -110.5t27.5 -109.5t56 -97t87 -59v912z" />
    <glyph glyph-name="omega" unicode="&#x3c9;" 
d="M288 -25q-36 0 -72 18t-71 57t-56.5 113t-21.5 173v398q0 62 2.5 98.5t17 90t43.5 94.5l5 7h179l-60 -91q-22 -33 -29.5 -77t-7.5 -122v-398q0 -69 12 -119t27.5 -71t31.5 -21h10q40 0 64 23.5t24 66.5v517h150v-525q0 -17 2 -27.5t9 -25t25.5 -22t47.5 -7.5h10
q30 0 52.5 67.5t22.5 144.5v397q0 144 -38 201l-59 89h181l2 -3q30 -41 45 -98t17 -93t2 -96v-397q0 -73 -10 -131t-24.5 -95t-37 -64.5t-41.5 -40.5t-43.5 -20.5t-38.5 -9t-30 -1.5h-10q-96 0 -157 50q-59 -50 -165 -50h-10z" />
    <glyph glyph-name="iotadieresis" unicode="&#x3ca;" 
d="M328 1254q0 -46 -32.5 -80.5t-77.5 -34.5q-46 0 -79 33.5t-33 81.5q0 49 33.5 81t76.5 32q47 0 79.5 -33.5t32.5 -79.5zM817 1254q0 -49 -33 -82t-76 -33q-45 0 -78 34t-33 81q0 48 33 80.5t78 32.5q42 0 75.5 -32t33.5 -81zM182 1024h354v-874h204v-150h-558v150h204
v724h-204v150z" />
    <glyph glyph-name="upsilondieresis" unicode="&#x3cb;" 
d="M327 1254q0 -46 -32.5 -80.5t-77.5 -34.5q-46 0 -79 33.5t-33 81.5q0 49 33.5 81t76.5 32q47 0 79.5 -33.5t32.5 -79.5zM816 1254q0 -49 -33 -82t-76 -33q-45 0 -78 34t-33 81q0 48 33 80.5t78 32.5q42 0 75.5 -32t33.5 -81zM825 513q0 -95 -12.5 -174t-33.5 -134
t-51.5 -97t-62 -66.5t-69 -40t-69.5 -21t-66 -5.5q-167 0 -260.5 130.5t-93.5 407.5v511h150v-511q0 -207 52 -297.5t152 -90.5q214 0 214 388q0 216 -43 300.5t-141 84.5v150q68 0 121.5 -19.5t89.5 -56.5t60.5 -84.5t38 -110.5t19 -125.5t5.5 -138.5z" />
    <glyph glyph-name="omicrontonos" unicode="&#x3cc;" 
d="M386 1156l-140 135l258 272l140 -135zM825 562v-92q0 -116 -23.5 -206.5t-59 -143.5t-83.5 -87t-92.5 -46t-90.5 -12h-35q-168 0 -256 138t-88 358v90q0 100 19.5 185t59.5 154t107.5 108.5t155.5 39.5h39q89 0 157 -39t108.5 -107t61 -154t20.5 -186zM478 898h-39
q-55 0 -94.5 -30.5t-59.5 -82.5t-29 -107t-9 -117v-90q0 -63 9 -119.5t29.5 -110t60.5 -85t95 -31.5h35q46 0 81.5 20.5t57.5 54t35.5 79.5t19 92.5t5.5 98.5v92q0 49 -5 94t-19 90t-35.5 78t-56.5 53.5t-81 20.5z" />
    <glyph glyph-name="upsilontonos" unicode="&#x3cd;" 
d="M393 1151l-140 135l258 272l140 -135zM825 513q0 -95 -12.5 -174t-33.5 -134t-51.5 -97t-62 -66.5t-69 -40t-69.5 -21t-66 -5.5q-167 0 -260.5 130.5t-93.5 407.5v511h150v-511q0 -207 52 -297.5t152 -90.5q214 0 214 388q0 216 -43 300.5t-141 84.5v150
q68 0 121.5 -19.5t89.5 -56.5t60.5 -84.5t38 -110.5t19 -125.5t5.5 -138.5z" />
    <glyph glyph-name="omegatonos" unicode="&#x3ce;" 
d="M396 1160l-140 135l258 272l140 -135zM288 -25q-36 0 -72 18t-71 57t-56.5 113t-21.5 173v398q0 62 2.5 98.5t17 90t43.5 94.5l5 7h179l-60 -91q-22 -33 -29.5 -77t-7.5 -122v-398q0 -69 12 -119t27.5 -71t31.5 -21h10q40 0 64 23.5t24 66.5v517h150v-525q0 -17 2 -27.5
t9 -25t25.5 -22t47.5 -7.5h10q30 0 52.5 67.5t22.5 144.5v397q0 144 -38 201l-59 89h181l2 -3q30 -41 45 -98t17 -93t2 -96v-397q0 -73 -10 -131t-24.5 -95t-37 -64.5t-41.5 -40.5t-43.5 -20.5t-38.5 -9t-30 -1.5h-10q-96 0 -157 50q-59 -50 -165 -50h-10z" />
    <glyph glyph-name="Digamma" unicode="&#x3dc;" 
d="M257 712v-636h-150v1324h725v-150h-575v-388h483v-150h-483z" />
    <glyph glyph-name="sigmalunate" unicode="&#x3f2;" 
d="M665 -92q0 10 -14.5 23.5t-62 27.5t-118.5 16h-18q-148 0 -246.5 127t-98.5 325v170q0 194 124.5 321.5t323.5 127.5q103 0 213 -42l41 -15l-52 -140l-41 15q-86 32 -161 32q-138 0 -218 -84t-80 -215v-170q0 -135 57 -218.5t138 -83.5h18q80 -2 142 -17.5t99.5 -37.5
t61.5 -51t33 -56t9 -55v-19q0 -109 -90.5 -183.5t-266.5 -74.5v150q36 0 69.5 5t66 16.5t52 33.5t19.5 53v19z" />
    <glyph glyph-name="yotgreek" unicode="&#x3f3;" 
d="M533 1297q0 49 33.5 83t82.5 34t83.5 -34t34.5 -83t-34.5 -83t-83.5 -34t-82.5 34t-33.5 83zM476 -219q50 0 79.5 28t29.5 82v983h-318v150h468v-1133q0 -117 -73.5 -188.5t-185.5 -71.5q-107 0 -183 77.5t-76 181.5h150q0 -42 32.5 -75.5t76.5 -33.5z" />
    <glyph glyph-name="NameMe.432" unicode="&#x400;" 
d="M647 1517l-140 -135l-258 272l140 135zM257 712v-561h575v-151h-725v1400h725v-150h-575v-388h483v-150h-483z" />
    <glyph glyph-name="Iocyrillic" unicode="&#x401;" 
d="M327 1590q0 -46 -32.5 -80.5t-77.5 -34.5q-46 0 -79 33.5t-33 81.5q0 49 33.5 81t76.5 32q47 0 79.5 -33.5t32.5 -79.5zM816 1590q0 -49 -33 -82t-76 -33q-45 0 -78 34t-33 81q0 48 33 80.5t78 32.5q42 0 75.5 -32t33.5 -81zM257 712v-561h575v-151h-725v1400h725v-150
h-575v-388h483v-150h-483z" />
    <glyph glyph-name="Djecyrillic" unicode="&#x402;" 
d="M625 150q17 0 31 13t26.5 57t12.5 116v383q0 65 -23.5 87.5t-71.5 22.5q-163 0 -163 -412v-417h-150v1250h-217v150h672v-150h-305v-352q71 81 145 81h18q70 0 120.5 -24t76 -64t37 -82.5t11.5 -89.5v-383q0 -81 -14.5 -143t-37 -97.5t-53.5 -58t-58 -30t-57 -7.5h-18
v150h18z" />
    <glyph glyph-name="Gjecyrillic" unicode="&#x403;" 
d="M476 1383l-140 135l258 272l140 -135zM107 0v1400h725v-151h-575v-1249h-150z" />
    <glyph glyph-name="Ecyrillic" unicode="&#x404;" 
d="M461 -25q-56 0 -103 18t-81.5 48t-62.5 74.5t-46.5 91t-32 106t-20.5 110.5t-11.5 112t-5.5 104t-1 93q0 74 3 135t12 135t24.5 131.5t43.5 114t65.5 94t92.5 60.5t123 23q30 0 57.5 -4.5t70 -24.5t77 -53t69 -97.5t55.5 -151.5l-146 -36q-15 60 -36 103.5t-39.5 64.5
t-42.5 33t-36.5 14t-28.5 2q-102 0 -153 -104.5t-59 -339.5l311 -1v-149h-313q9 -556 214 -556q15 0 27.5 2t35.5 13t41 31t39 61t36 97l144 -38q-16 -61 -39 -110.5t-47 -81.5t-52.5 -56t-52.5 -36.5t-51 -20t-45 -9.5t-36 -2z" />
    <glyph glyph-name="Dzecyrillic" unicode="&#x405;" 
d="M452 125h18q84 0 149.5 63.5t65.5 148.5v30q0 75 -36.5 153t-100.5 110l-262 133q-84 43 -128.5 116t-44.5 154v30q0 149 94.5 255.5t240.5 106.5h27q124 0 215.5 -57t125.5 -169q15 -49 15 -136h-150q0 61 -9 92q-36 120 -197 120h-27q-81 0 -133 -61.5t-52 -150.5v-30
q0 -34 20 -72t71 -64l264 -135q103 -53 160 -167.5t57 -227.5v-30q0 -148 -110 -255t-255 -107h-18q-96 0 -186 53.5t-146 142.5t-56 186h150q0 -86 76 -159t162 -73z" />
    <glyph glyph-name="Icyrillic" unicode="&#x406;" 
d="M832 1400v-150h-296v-1100h296v-150h-742v150h296v1100h-296v150h742z" />
    <glyph glyph-name="Yicyrillic" unicode="&#x407;" 
d="M328 1592q0 -46 -32.5 -80.5t-77.5 -34.5q-46 0 -79 33.5t-33 81.5q0 49 33.5 81t76.5 32q47 0 79.5 -33.5t32.5 -79.5zM817 1592q0 -49 -33 -82t-76 -33q-45 0 -78 34t-33 81q0 48 33 80.5t78 32.5q42 0 75.5 -32t33.5 -81zM832 1400v-150h-296v-1100h296v-150h-742v150
h296v1100h-296v150h742z" />
    <glyph glyph-name="Jecyrillic" unicode="&#x408;" 
d="M852 1400v-150h-172v-913q0 -165 -83 -263.5t-217 -98.5h-18q-55 0 -100 12t-74.5 33.5t-50.5 43t-34 50t-18.5 44t-9.5 33.5l146 34q12 -53 44.5 -76.5t96.5 -23.5h18q43 0 74 19.5t46.5 52t22.5 67t7 73.5v913h-212v150h534z" />
    <glyph glyph-name="Ljecyrillic" unicode="&#x409;" 
d="M147 1081q4 52 18 105.5t36.5 102.5t57 80t74.5 31h214v-528q162 -2 250 -95.5t88 -261.5v-158q0 -55 -9 -103.5t-33 -96t-62 -81.5t-99.5 -55t-141.5 -21h-143v1250h-42q-48 -63 -58 -181l-93 -1069h-152zM547 722v-572q103 1 145.5 52t42.5 155v158q0 94 -42 149.5
t-146 57.5z" />
    <glyph glyph-name="Njecyrillic" unicode="&#x40a;" 
d="M547 722v-572q103 1 145.5 53t42.5 156v158q0 94 -41.5 148.5t-146.5 56.5zM207 0h-149v1400h150v-528h189v528h150v-528q162 -2 250 -95t88 -260v-158q0 -55 -9 -103.5t-33 -96.5t-62 -82.5t-99.5 -55.5t-141.5 -21h-143v722h-189z" />
    <glyph glyph-name="Tshecyrillic" unicode="&#x40b;" 
d="M695 719q0 58 -17.5 84t-77.5 26h-16q-10 0 -26 -12.5t-37.5 -44t-40 -76t-31 -118t-12.5 -161.5v-417h-150v1250h-217v150h672v-150h-305v-344q34 42 74.5 57.5t70.5 15.5h18q57 0 100.5 -15t70.5 -39.5t44 -59t23.5 -70t6.5 -76.5v-719h-150v719z" />
    <glyph glyph-name="Kjecyrillic" unicode="&#x40c;" 
d="M354 1383l-140 135l258 272l140 -135zM108 0v1400h150v-648l397 648h176l-366 -597l383 -803h-167l-310 650l-113 -184v-466h-150z" />
    <glyph glyph-name="Iicyrillic_gravemodifier" unicode="&#x40d;" 
d="M711 1518l-140 -135l-258 272l140 135zM107 0v1400h150v-986l423 986h135v-1400h-150v985l-422 -985h-136z" />
    <glyph glyph-name="Ushortcyrillic" unicode="&#x40e;" 
d="M479 1466q-84 0 -158.5 37t-128.5 102l115 96q70 -85 172 -85q105 0 178 86l114 -97q-55 -65 -131 -102t-161 -37zM552 196q-5 -21 -10.5 -38.5t-25 -54.5t-44.5 -62t-70 -45.5t-101 -20.5h-29q-48 0 -85 15l-33 13l56 140l27 -11q21 -7 35 -7h27q51 0 72 25.5t35 81.5
l50 212l-364 956h161l265 -697l166 697h154z" />
    <glyph glyph-name="Dzhecyrillic" unicode="&#x40f;" 
d="M257 150h408v1250h150v-1400h-279v-385h-150v385h-279v1400h150v-1250z" />
    <glyph glyph-name="Acyrillic" unicode="&#x410;" 
d="M329 399h264l-132 605zM241 0h-153l311 1425h124l310 -1425h-153l-54 249h-330z" />
    <glyph glyph-name="Becyrillic" unicode="&#x411;" 
d="M257 712v-587h213q108 0 151.5 51t43.5 156v173q0 96 -43 151.5t-152 55.5h-213zM470 862q165 0 255 -94t90 -263v-173q0 -55 -9 -103.5t-33 -96t-62 -81.5t-99.5 -55t-141.5 -21h-363v1425h635v-150h-485v-388h213z" />
    <glyph glyph-name="Vecyrillic" unicode="&#x412;" 
d="M420 1400q36 0 59 -1t63 -7t66.5 -17t59 -33.5t51.5 -54t32.5 -81t13.5 -111.5v-71q0 -150 -73 -226q123 -93 123 -303v-148q0 -162 -86.5 -254.5t-258.5 -92.5h-363v1400h313zM665 347v148q0 66 -12 109t-38.5 66.5t-60 32.5t-84.5 9h-213v-562h213q105 0 150 47.5
t45 149.5zM615 1095q0 100 -38 127.5t-157 27.5h-163v-388h163q117 0 156 34.5t39 127.5v71z" />
    <glyph glyph-name="Gecyrillic" unicode="&#x413;" 
d="M107 0v1400h725v-151h-575v-1249h-150z" />
    <glyph glyph-name="Decyrillic" unicode="&#x414;" 
d="M281 978q7 44 29.5 101.5t59.5 121t94.5 119t123.5 80.5h207v-1249h80v-194l-35 -119h-115v162h-528v-162h-111l-39 128v185h101zM300 151h345v1099h-27q-60 -31 -118.5 -126t-70.5 -170z" />
    <glyph glyph-name="Iecyrillic" unicode="&#x415;" 
d="M257 712v-561h575v-151h-725v1400h725v-150h-575v-388h483v-150h-483z" />
    <glyph glyph-name="Zhecyrillic" unicode="&#x416;" 
d="M386 745v605h150v-605l189 655h156l-203 -703l207 -697h-156l-128 430l-65 -225v-205h-150v205l-65 226l-128 -431h-156l206 699l-202 701h156z" />
    <glyph glyph-name="Zecyrillic" unicode="&#x417;" 
d="M432 1425h38q133 0 216.5 -97t83.5 -245v-39q0 -63 -25.5 -129t-69.5 -105q140 -124 140 -373v-20q0 -201 -90.5 -321.5t-254.5 -120.5h-38q-83 0 -161 43t-131 128t-53 191h150q0 -66 33 -116.5t76.5 -73t85.5 -22.5h38q91 0 143 72.5t52 219.5v20q0 56 -9 105t-29.5 94
t-60.5 71.5t-96 26.5h-168v150h169q65 0 107 51.5t42 108.5v39q0 86 -41.5 139t-108.5 53h-38q-63 0 -112.5 -29.5t-69.5 -81.5l-140 52q38 101 128 155t194 54z" />
    <glyph glyph-name="Iicyrillic" unicode="&#x418;" 
d="M107 0v1400h150v-986l423 986h135v-1400h-150v985l-422 -985h-136z" />
    <glyph glyph-name="Iishortcyrillic" unicode="&#x419;" 
d="M476 1467q-84 0 -158.5 37t-128.5 102l115 96q70 -85 172 -85q105 0 178 86l114 -97q-55 -65 -131 -102t-161 -37zM107 0v1400h150v-986l423 986h135v-1400h-150v985l-422 -985h-136z" />
    <glyph glyph-name="Kacyrillic" unicode="&#x41a;" 
d="M108 0v1400h150v-648l397 648h176l-366 -597l383 -803h-167l-310 650l-113 -184v-466h-150z" />
    <glyph glyph-name="Elcyrillic" unicode="&#x41b;" 
d="M272 982q17 83 58 165t109.5 152t148.5 101h227v-1400h-150v1250h-47q-62 -31 -121 -117.5t-79 -182.5l-198 -950h-153z" />
    <glyph glyph-name="Emcyrillic" unicode="&#x41c;" 
d="M26 0l101 1400h153l181 -735l181 735h153l101 -1400h-151l-66 923l-176 -712h-84l-176 712l-66 -923h-151z" />
    <glyph glyph-name="Encyrillic" unicode="&#x41d;" 
d="M257 0h-150v1400h150v-593h408v593h150v-1400h-150v657h-408v-657z" />
    <glyph glyph-name="Ocyrillic" unicode="&#x41e;" 
d="M825 765v-69q0 -179 -24 -313.5t-60 -210t-86.5 -122t-94.5 -61t-93 -14.5h-11q-49 0 -93 14t-95 60.5t-87 122t-60 210.5t-24 314v67q0 662 358 662h12q358 0 358 -660zM467 1275h-12q-105 0 -156.5 -125t-51.5 -387v-67q0 -73 4 -141t17.5 -149.5t35 -141t61 -99.5
t91.5 -40h11q52 0 91.5 40.5t61 99.5t34.5 140.5t17 149.5t4 141v69q0 261 -51 385.5t-157 124.5z" />
    <glyph glyph-name="Pecyrillic" unicode="&#x41f;" 
d="M107 0v1400h708v-1400h-150v1250h-408v-1250h-150z" />
    <glyph glyph-name="Ercyrillic" unicode="&#x420;" 
d="M257 642v-642h-150v1400h363q78 0 137 -15t108 -51.5t74.5 -104.5t25.5 -166v-91q0 -67 -16 -122.5t-52.5 -104t-107 -76t-169.5 -27.5h-213zM470 792q110 0 152.5 41t42.5 139v91q0 110 -40.5 148.5t-154.5 38.5h-213v-458h213z" />
    <glyph glyph-name="Escyrillic" unicode="&#x421;" 
d="M487 -25h-31q-49 0 -93 14t-95 60.5t-87 122t-60 210.5t-24 314v67q0 662 358 662h32q54 0 100.5 -16t78 -38t58 -57t41 -62t27 -65t16 -53t8.5 -39l-146 -30q-13 64 -33 107.5t-45.5 65t-50 29.5t-54.5 8h-32q-105 0 -156.5 -125t-51.5 -387v-67q0 -73 4 -141
t17.5 -149.5t35 -141t61 -99.5t91.5 -40h31q16 0 29.5 2.5t35.5 14t39.5 32t36.5 61.5t32 97l146 -34q-20 -85 -53.5 -148t-66.5 -95.5t-74 -51.5t-68.5 -23.5t-56.5 -4.5z" />
    <glyph glyph-name="Tecyrillic" unicode="&#x422;" 
d="M852 1400v-150h-316v-1250h-150v1250h-316v150h782z" />
    <glyph glyph-name="Ucyrillic" unicode="&#x423;" 
d="M552 196q-5 -21 -10.5 -38.5t-25 -54.5t-44.5 -62t-70 -45.5t-101 -20.5h-29q-48 0 -85 15l-33 13l56 140l27 -11q21 -7 35 -7h27q51 0 72 25.5t35 81.5l50 212l-364 956h161l265 -697l166 697h154z" />
    <glyph glyph-name="Efcyrillic" unicode="&#x424;" 
d="M386 235v933q-90 -25 -136 -125t-46 -290v-56q0 -399 182 -462zM536 1168v-933q54 18 91.5 66t56.5 116t27 135.5t8 144.5v57q0 191 -46 290.5t-137 123.5zM536 -25h-150v105q-50 9 -94 30.5t-89 68t-77 112.5t-52 170.5t-20 235.5v56q0 124 20.5 222t52.5 158.5t77 102
t88.5 60t93.5 26.5v103h150v-103q50 -8 93.5 -26t89 -59.5t77.5 -102t52.5 -158t20.5 -222.5v-57q0 -132 -20.5 -236.5t-52.5 -170t-77.5 -112t-89 -68t-93.5 -30.5v-105z" />
    <glyph glyph-name="Khacyrillic" unicode="&#x425;" 
d="M94 0l287 700l-287 700h161l206 -503l206 503h161l-287 -700l287 -700h-161l-206 503l-206 -503h-161z" />
    <glyph glyph-name="Tsecyrillic" unicode="&#x426;" 
d="M257 150h338v1250h150v-1249h125v-91l-144 -285l-131 72l75 153h-563v1400h150v-1250z" />
    <glyph glyph-name="Checyrillic" unicode="&#x427;" 
d="M815 0h-150v437h-213q-162 0 -253.5 102.5t-91.5 274.5v586h150v-586q0 -227 195 -227h213v813h150v-1400z" />
    <glyph glyph-name="Shacyrillic" unicode="&#x428;" 
d="M536 150h179v1250h150v-1400h-808v1400h150v-1250h179v1034h150v-1034z" />
    <glyph glyph-name="Shchacyrillic" unicode="&#x429;" 
d="M719 0h-662v1400h150v-1250h154v1034h150v-1034h154v1250h150v-1251h85v-131l-146 -247l-128 80z" />
    <glyph glyph-name="Hardsigncyrillic" unicode="&#x42a;" 
d="M530 822q127 0 206 -97.5t79 -259.5v-108q0 -163 -81 -260t-204 -97h-273v1230h-54l-87 -271h-56v441h347v-578h123zM407 672v-522h123q39 0 66.5 19t42 50.5t20.5 65.5t6 72v108q0 95 -37 151t-98 56h-123z" />
    <glyph glyph-name="Yericyrillic" unicode="&#x42b;" 
d="M227 872q162 -2 250 -95.5t88 -261.5v-158q0 -55 -9 -103.5t-33 -96t-62 -81.5t-99.5 -55t-141.5 -21h-143v1400h150v-528zM227 722v-572q103 1 145.5 52t42.5 155v158q0 94 -42 149.5t-146 57.5zM845 0h-150v1400h150v-1400z" />
    <glyph glyph-name="Softsigncyrillic" unicode="&#x42c;" 
d="M257 672v-522h213q108 0 151.5 51t43.5 156v108q0 96 -43 151.5t-152 55.5h-213zM470 822q165 0 255 -94t90 -263v-108q0 -55 -9 -103.5t-33 -96t-62 -81.5t-99.5 -55t-141.5 -21h-363v1400h150v-578h213z" />
    <glyph glyph-name="Ereversedcyrillic" unicode="&#x42d;" 
d="M675 830q-8 235 -60 340t-154 105q-21 0 -38.5 -5t-46 -23.5t-54.5 -67t-44 -123.5l-146 36q21 87 55.5 152t69 98.5t76.5 53.5t70 24.5t58 4.5q68 0 123 -23t92.5 -60.5t65.5 -94.5t43.5 -114.5t24.5 -131t12 -135t3 -134.5q0 -50 -1 -93t-5.5 -104t-11.5 -112
t-20.5 -110.5t-32 -106t-46.5 -91t-62.5 -74.5t-81.5 -48t-103 -18q-27 0 -52.5 3.5t-67.5 22t-76.5 50.5t-70.5 95.5t-58 149.5l146 38q15 -57 35.5 -99t39 -62.5t41 -32t35.5 -13.5t28 -2q205 0 214 556h-313v150z" />
    <glyph glyph-name="IUcyrillic" unicode="&#x42e;" 
d="M358 775q1 82 3 140.5t8.5 131t17 123t29.5 102t45 83t64 51t86 19.5q54 0 95 -22.5t68.5 -68t46 -103t28 -140.5t13 -166t3.5 -193q0 -757 -254 -757q-83 0 -135.5 60.5t-82.5 204.5t-35 385h-151v-625h-150v1400h150v-625h151zM715 732q0 543 -104 543
q-54 0 -79 -156.5t-25 -386.5q0 -276 26 -441.5t78 -165.5q29 0 50.5 56t32.5 150t16 193.5t5 207.5z" />
    <glyph glyph-name="IAcyrillic" unicode="&#x42f;" 
d="M665 642h-153l-285 -642h-164l288 651q-244 46 -244 322v90q0 98 25.5 166t74.5 104.5t108 51.5t137 15h363v-1400h-150v642zM665 792v458h-213q-114 0 -154.5 -38.5t-40.5 -148.5v-90q0 -98 42.5 -139.5t152.5 -41.5h213z" />
    <glyph glyph-name="acyrillic" unicode="&#x430;" 
d="M452 486q-50 0 -90 -17t-61.5 -42t-32.5 -48.5t-11 -41.5v-78q0 -43 49.5 -88.5t145.5 -45.5h18q74 0 134.5 66.5t60.5 110.5v184h-213zM452 1049h18q80 0 141.5 -19t99.5 -49.5t62 -74.5t33 -89t9 -98v-719h-150v49q-87 -66 -195 -74h-18q-78 0 -144.5 25t-109.5 66
t-67 91t-24 102v78q0 51 24 103.5t66.5 96.5t109.5 71.5t145 27.5h213v83q0 98 -43 139t-152 41h-18q-82 0 -121.5 -17.5t-55.5 -56.5l-138 58q37 90 116.5 128t198.5 38z" />
    <glyph glyph-name="becyrillic" unicode="&#x431;" 
d="M452 1049h18q113 0 192.5 -61t116 -161t36.5 -230v-190q0 -205 -89.5 -318.5t-255.5 -113.5h-18q-150 0 -247.5 118.5t-97.5 313.5v546q0 112 29.5 200t80 140.5t112.5 79.5t131 27q70 0 120 12.5t134 43.5l52 -140q-98 -37 -159 -51.5t-147 -14.5q-37 0 -71 -13.5
t-64.5 -42.5t-48.5 -82t-18 -124q80 61 194 61zM257 597v-190q0 -133 56 -207.5t139 -74.5h18q195 0 195 282v190q0 58 -9 107.5t-29.5 95.5t-60.5 72.5t-96 26.5h-18q-56 0 -96 -26.5t-60.5 -72.5t-29.5 -95.5t-9 -107.5z" />
    <glyph glyph-name="vecyrillic" unicode="&#x432;" 
d="M107 0v1024h329q84 0 148 -17t100.5 -42.5t59 -60.5t30 -66.5t7.5 -65.5q0 -116 -81 -199q134 -81 134 -248v-9q0 -135 -90.5 -225.5t-253.5 -90.5h-383zM257 150h233q96 0 145 44.5t49 121.5v9q0 56 -30 91t-71 46.5t-94 11.5h-232v-324zM436 624q97 0 146 43.5
t49 104.5q0 51 -54.5 76.5t-140.5 25.5h-179v-250h179z" />
    <glyph glyph-name="gecyrillic" unicode="&#x433;" 
d="M77 719q0 133 99.5 231.5t235.5 98.5h18q24 0 46.5 -1t60.5 -7t69 -16t65.5 -29.5t58.5 -46t39.5 -68t15.5 -92.5v-12q0 -24 -5.5 -50.5t-18.5 -59.5t-42 -62.5t-69 -48.5l-374 -173q-19 -9 -34 -33.5t-15 -58.5v-46q0 -42 30 -70t72 -39t93 -11h48q68 0 131.5 69.5
t63.5 142.5h150q0 -84 -47.5 -168t-128.5 -139t-169 -55h-48q-148 0 -246.5 73.5t-98.5 196.5v46q0 74 36.5 136t98.5 92l378 175q14 5 27.5 25.5t17.5 57.5v12q0 63 -46 85.5t-159 24.5h-18q-79 0 -132 -56t-53 -124h-150z" />
    <glyph glyph-name="decyrillic" unicode="&#x434;" 
d="M221 618q12 80 70.5 170.5t142.5 157.5t161 78h200v-873h80v-194l-35 -119h-115v162h-528v-162h-111l-39 128v185h101zM300 151h345v723h-35q-71 -18 -150 -112.5t-91 -169.5z" />
    <glyph glyph-name="iecyrillic" unicode="&#x435;" 
d="M257 486v-149q0 -90 49.5 -151t145.5 -61h18q95 0 134 24.5t52 72.5l144 -40q-56 -207 -330 -207h-18q-160 0 -252.5 106t-92.5 256v382q0 53 9 98t33 89t62 74.5t99.5 49.5t141.5 19h18q80 0 141.5 -19t99.5 -49.5t62 -74.5t33 -89t9 -98v-233h-558zM665 636v83
q0 98 -43 139t-152 41h-18q-109 0 -152 -41t-43 -139v-83h408z" />
    <glyph glyph-name="zhecyrillic" unicode="&#x436;" 
d="M386 524v500h150v-500l227 543l138 -58l-221 -531l179 -478h-160l-103 277l-60 -143v-134h-150v134l-60 144l-103 -278h-160l178 481l-220 528l138 58z" />
    <glyph glyph-name="zecyrillic" unicode="&#x437;" 
d="M620 798q0 36 -35.5 68t-114.5 32h-38q-63 0 -112.5 -29.5t-69.5 -81.5l-140 52q38 101 128 155t194 54h38q67 0 120.5 -17t86.5 -43t54.5 -60.5t30 -66.5t8.5 -63v-11q0 -115 -88 -209q64 -41 98.5 -105.5t34.5 -138.5v-20q0 -82 -40 -158.5t-121 -128.5t-184 -52h-18
q-60 0 -120 19t-111 54t-82.5 91.5t-31.5 125.5h150q0 -64 61.5 -102t133.5 -38h18q48 0 87 19t61.5 48.5t34.5 61t12 60.5v20q0 62 -49.5 106.5t-145.5 44.5h-108v150h109q64 0 106.5 47.5t42.5 104.5v11z" />
    <glyph glyph-name="iicyrillic" unicode="&#x438;" 
d="M107 0v1024h150v-706l426 706h132v-1024h-150v704l-425 -704h-133z" />
    <glyph glyph-name="iishortcyrillic" unicode="&#x439;" 
d="M458 1169q-84 0 -158.5 37t-128.5 102l115 96q70 -85 172 -85q105 0 178 86l114 -97q-55 -65 -131 -102t-161 -37zM107 0v1024h150v-706l426 706h132v-1024h-150v704l-425 -704h-133z" />
    <glyph glyph-name="kacyrillic" unicode="&#x43a;" 
d="M257 0h-150v1024h150v-657l451 657l124 -85l-338 -491l339 -448h-188l-241 317l-147 -214v-103z" />
    <glyph glyph-name="elcyrillic" unicode="&#x43b;" 
d="M232 622q31 120 130.5 237t225.5 165h227v-1024h-150v873h-48q-76 -35 -147 -121.5t-92 -165.5l-151 -586h-156z" />
    <glyph glyph-name="emcyrillic" unicode="&#x43c;" 
d="M27 0l81 1024h155l198 -648l200 648h155l80 -1024h-151l-49 628l-170 -552h-130l-169 552l-50 -628h-150z" />
    <glyph glyph-name="encyrillic" unicode="&#x43d;" 
d="M257 0h-150v1024h150v-479h408v479h150v-1024h-150v395h-408v-395z" />
    <glyph glyph-name="ocyrillic" unicode="&#x43e;" 
d="M825 562v-92q0 -116 -23.5 -206.5t-59 -143.5t-83.5 -87t-92.5 -46t-90.5 -12h-35q-168 0 -256 138t-88 358v90q0 100 19.5 185t59.5 154t107.5 108.5t155.5 39.5h39q89 0 157 -39t108.5 -107t61 -154t20.5 -186zM478 898h-39q-55 0 -94.5 -30.5t-59.5 -82.5t-29 -107
t-9 -117v-90q0 -63 9 -119.5t29.5 -110t60.5 -85t95 -31.5h35q46 0 81.5 20.5t57.5 54t35.5 79.5t19 92.5t5.5 98.5v92q0 49 -5 94t-19 90t-35.5 78t-56.5 53.5t-81 20.5z" />
    <glyph glyph-name="pecyrillic" unicode="&#x43f;" 
d="M257 0h-150v1024h150v-67q89 92 195 92h18q80 0 141.5 -19t99.5 -49.5t62 -74.5t33 -89t9 -98v-719h-150v719q0 98 -43 139t-152 41h-18q-48 0 -94.5 -53.5t-73.5 -123.5t-27 -125v-597z" />
    <glyph glyph-name="ercyrillic" unicode="&#x440;" 
d="M257 427q0 -135 57 -218.5t138 -83.5h18q56 0 96 26.5t60.5 72t29.5 95.5t9 108v170q0 58 -9 107.5t-29.5 95.5t-60.5 72.5t-96 26.5h-18q-56 0 -96 -26.5t-60.5 -72.5t-29.5 -95.5t-9 -107.5v-170zM257 -385h-150v1409h150v-37q81 62 195 62h18q113 0 192.5 -61
t116 -161t36.5 -230v-170q0 -207 -90.5 -329.5t-254.5 -122.5h-18q-110 0 -195 73v-433z" />
    <glyph glyph-name="escyrillic" unicode="&#x441;" 
d="M470 898h-18q-56 0 -96 -26.5t-60.5 -72t-29.5 -95t-9 -107.5v-170q0 -135 57 -218.5t138 -83.5h18q83 0 125 19.5t58 67.5l142 -48q-63 -189 -325 -189h-18q-148 0 -246.5 127t-98.5 325v170q0 130 36.5 230t116 160.5t192.5 60.5h18q268 0 327 -196l-144 -44
q-9 29 -25 47.5t-55 30.5t-103 12z" />
    <glyph glyph-name="tecyrillic" unicode="&#x442;" 
d="M852 1024v-149h-316v-875h-150v875h-316v149h782z" />
    <glyph glyph-name="ucyrillic" unicode="&#x443;" 
d="M841 1024l-261 -1154q-15 -65 -42 -112.5t-54.5 -71t-62 -37t-55 -16t-42.5 -2.5q-79 0 -145.5 50.5t-95.5 120.5l138 56q13 -31 43 -54t60 -23q34 0 67 37.5t45 91.5l44 195l-372 919h163l267 -660l149 660h154z" />
    <glyph glyph-name="efcyrillic" unicode="&#x444;" 
d="M386 130v682q-52 -10 -89 -41t-56.5 -75.5t-28 -90.5t-8.5 -97v-81q0 -53 8.5 -98.5t28 -88t56.5 -71.5t89 -39zM536 812v-682q182 35 182 296v83q0 50 -8.5 95.5t-28 90t-56.5 75.5t-89 42zM536 -385h-150v363q-163 18 -247.5 140.5t-84.5 308.5v81q0 196 90 317
t242 139v85h150v-85q152 -20 242 -141t90 -314v-83q0 -186 -85 -307t-247 -141v-363z" />
    <glyph glyph-name="khacyrillic" unicode="&#x445;" 
d="M97 0l278 512l-278 512h171l193 -355l193 355h171l-279 -512l279 -512h-171l-193 354l-193 -354h-171z" />
    <glyph glyph-name="tsecyrillic" unicode="&#x446;" 
d="M620 -164q33 20 48 31.5t27 31t12 45.5q0 35 -8 57t-34 45v42q-100 -113 -215 -113h-18q-66 0 -121.5 18t-102.5 57.5t-74 112.5t-27 174v687h150v-687q0 -120 43.5 -166t131.5 -46h18q47 0 99 58t84 134t32 130v577h150v-916q19 -23 30.5 -68.5t11.5 -95.5
q0 -75 -46.5 -135t-110.5 -101z" />
    <glyph glyph-name="checyrillic" unicode="&#x447;" 
d="M665 470q-101 -118 -215 -118h-18q-61 0 -115 17.5t-103 58t-78 117.5t-29 184v295h150v-295q0 -124 44.5 -175.5t130.5 -51.5h18q54 0 106 65.5t80.5 143.5t28.5 128v185h150v-1024h-150v470z" />
    <glyph glyph-name="shacyrillic" unicode="&#x448;" 
d="M606 125q36 5 67.5 72.5t31.5 139.5v687h150v-1024h-150v5q-47 -30 -99 -30h-10q-110 0 -164 70q-41 -44 -74.5 -57t-70.5 -13h-10q-54 0 -93.5 15t-61.5 37.5t-35 56t-16.5 63.5t-3.5 68v809h150v-808q0 -52 13 -71.5t47 -19.5h10q36 5 67.5 72.5t31.5 139.5v687h150
v-808q0 -50 15 -70.5t45 -20.5h10z" />
    <glyph glyph-name="shchacyrillic" unicode="&#x449;" 
d="M606 125q36 5 67.5 72.5t31.5 139.5v687h150v-917q44 -57 44 -132q0 -77 -43.5 -149t-115.5 -117l-80 126q43 27 66 66.5t23 73.5q0 29 -20 49q-35 -31 -62.5 -40t-60.5 -9h-10q-110 0 -164 70q-41 -44 -74 -57t-71 -13h-10q-55 0 -95 15.5t-61.5 38.5t-34 57.5t-16 63
t-3.5 65.5v809h150v-808q0 -51 13.5 -71t46.5 -20h10q36 5 67.5 72.5t31.5 139.5v687h150v-808q0 -91 60 -91h10z" />
    <glyph glyph-name="hardsigncyrillic" unicode="&#x44a;" 
d="M470 636q143 0 244 -75.5t101 -198.5v-78q0 -86 -49.5 -152t-127 -98.5t-168.5 -33.5h-213v828h-70l-74 -256h-53v426h347v-362h63zM407 486v-336h63q76 1 135.5 36.5t59.5 97.5v78q0 60 -58 92t-137 32h-63z" />
    <glyph glyph-name="yericyrillic" unicode="&#x44b;" 
d="M565 279q0 -36 -6.5 -69.5t-28 -73t-55.5 -68.5t-94.5 -48.5t-140.5 -19.5h-183v1024h150v-388h33q144 0 234.5 -75t90.5 -204v-78zM715 1024h150v-1024h-150v1024zM240 150q78 0 126.5 33t48.5 96v78q0 65 -46 97t-129 32h-33v-336h33z" />
    <glyph glyph-name="softsigncyrillic" unicode="&#x44c;" 
d="M815 279q0 -35 -7.5 -69t-31 -73t-60 -68.5t-100 -49t-146.5 -19.5h-363v1048h150v-412h213q144 0 244.5 -75t100.5 -204v-78zM470 150q46 0 89 13.5t74.5 44t31.5 71.5v78q0 63 -55.5 96t-139.5 33h-213v-336h213z" />
    <glyph glyph-name="ereversedcyrillic" unicode="&#x44d;" 
d="M437 1050h18q168 0 256.5 -126.5t88.5 -326.5v-170q0 -198 -98.5 -325t-246.5 -127h-18q-135 0 -214.5 56t-110.5 149l142 48q6 -18 14.5 -32t27 -32.5t55 -28.5t86.5 -10h18q81 0 138 83.5t57 218.5v10h-333v150h333v10q0 58 -9 107.5t-29.5 96t-60.5 73t-96 26.5h-18
q-51 0 -87 -10t-55 -28.5t-27 -32.5t-14 -34l-144 44q28 95 107.5 153t219.5 58z" />
    <glyph glyph-name="iucyrillic" unicode="&#x44e;" 
d="M328 587q2 69 9.5 129t26 124t46.5 109.5t74.5 74.5t106.5 29q56 0 100.5 -23t72.5 -66t47 -92.5t28 -115t12.5 -121.5t3.5 -122q0 -78 -3.5 -137.5t-13 -125t-28 -112t-47 -85.5t-72 -58.5t-100.5 -19.5q-128 0 -191.5 112t-71.5 350h-111v-437h-150v1024h150v-437h111z
M591 125q114 0 114 388q0 390 -114 390q-26 0 -46 -17t-32 -50t-19.5 -68t-11 -84.5t-4.5 -85.5t-1 -85q0 -37 0.5 -62.5t2 -64.5t4.5 -66t8.5 -59.5t14 -54.5t20 -42t28 -29.5t36.5 -9.5z" />
    <glyph glyph-name="iacyrillic" unicode="&#x44f;" 
d="M257 679q0 -19 6.5 -36t24.5 -37t60 -32t104 -12h213v312h-213q-48 0 -90.5 -12t-73.5 -41t-31 -71v-71zM344 420q-73 12 -122.5 40t-73 66t-32.5 74t-9 79v71q0 128 102 201t243 73h363v-1024h-150v412h-146l-278 -412h-181z" />
    <glyph glyph-name="NameMe.512" unicode="&#x450;" 
d="M635 1309l-140 -135l-258 272l140 135zM257 486v-149q0 -90 49.5 -151t145.5 -61h18q95 0 134 24.5t52 72.5l144 -40q-56 -207 -330 -207h-18q-160 0 -252.5 106t-92.5 256v382q0 53 9 98t33 89t62 74.5t99.5 49.5t141.5 19h18q80 0 141.5 -19t99.5 -49.5t62 -74.5
t33 -89t9 -98v-233h-558zM665 636v83q0 98 -43 139t-152 41h-18q-109 0 -152 -41t-43 -139v-83h408z" />
    <glyph glyph-name="iocyrillic" unicode="&#x451;" 
d="M355 1256q0 -46 -32.5 -80.5t-77.5 -34.5q-46 0 -79 33.5t-33 81.5q0 49 33.5 81t76.5 32q47 0 79.5 -33.5t32.5 -79.5zM844 1256q0 -49 -33 -82t-76 -33q-45 0 -78 34t-33 81q0 48 33 80.5t78 32.5q42 0 75.5 -32t33.5 -81zM257 486v-149q0 -90 49.5 -151t145.5 -61h18
q95 0 134 24.5t52 72.5l144 -40q-56 -207 -330 -207h-18q-160 0 -252.5 106t-92.5 256v382q0 53 9 98t33 89t62 74.5t99.5 49.5t141.5 19h18q80 0 141.5 -19t99.5 -49.5t62 -74.5t33 -89t9 -98v-233h-558zM665 636v83q0 98 -43 139t-152 41h-18q-109 0 -152 -41t-43 -139
v-83h408z" />
    <glyph glyph-name="djecyrillic" unicode="&#x452;" 
d="M475 -219h51q62 0 100.5 55t38.5 136v581q0 135 -33 181t-112 46h-18q-47 0 -94 -57.5t-74 -131t-27 -128.5v-463h-150v1110h-127v150h127v164h150v-164h298v-150h-298v-276q89 96 195 96h18q69 0 121 -19.5t85 -52.5t53 -82.5t28 -103t8 -119.5v-581q0 -144 -81 -242.5
t-208 -98.5h-51q-128 0 -203 94l118 94q30 -38 85 -38z" />
    <glyph glyph-name="gjecyrillic" unicode="&#x453;" 
d="M430 1152l-140 135l258 272l140 -135zM77 719q0 133 99.5 231.5t235.5 98.5h18q24 0 46.5 -1t60.5 -7t69 -16t65.5 -29.5t58.5 -46t39.5 -68t15.5 -92.5v-12q0 -24 -5.5 -50.5t-18.5 -59.5t-42 -62.5t-69 -48.5l-374 -173q-19 -9 -34 -33.5t-15 -58.5v-46q0 -42 30 -70
t72 -39t93 -11h48q68 0 131.5 69.5t63.5 142.5h150q0 -84 -47.5 -168t-128.5 -139t-169 -55h-48q-148 0 -246.5 73.5t-98.5 196.5v46q0 74 36.5 136t98.5 92l378 175q14 5 27.5 25.5t17.5 57.5v12q0 63 -46 85.5t-159 24.5h-18q-79 0 -132 -56t-53 -124h-150z" />
    <glyph glyph-name="ecyrillic" unicode="&#x454;" 
d="M486 898h-18q-56 0 -96 -26.5t-60.5 -72t-29.5 -95t-9 -107.5v-10h333v-150h-333v-10q0 -135 57 -218.5t138 -83.5h18q83 0 125 19.5t58 67.5l142 -48q-63 -189 -325 -189h-18q-148 0 -246.5 127t-98.5 325v170q0 130 36.5 230t116 160.5t192.5 60.5h18q268 0 327 -196
l-144 -44q-9 29 -25 47.5t-55 30.5t-103 12z" />
    <glyph glyph-name="dzecyrillic" unicode="&#x455;" 
d="M665 719q0 79 -51.5 129.5t-143.5 50.5h-18q-96 0 -145.5 -32.5t-49.5 -77.5v-12q3 -35 17.5 -56.5t28.5 -26.5l377 -175q55 -26 95 -82t40 -136v-46q0 -124 -99 -202t-246 -78h-48q-104 0 -185 54t-120.5 135.5t-39.5 172.5h150q0 -80 53.5 -146t141.5 -66h48
q78 0 136.5 34t58.5 96v46q0 26 -16 49.5t-33 32.5l-375 173q-37 18 -65 49.5t-42 65t-20.5 60.5t-6.5 46v12q0 66 34.5 118t88.5 82t111 45t111 15h18q113 0 193 -46.5t116 -119.5t36 -164h-150z" />
    <glyph glyph-name="icyrillic" unicode="&#x456;" 
d="M352 1297q0 49 33.5 83t82.5 34t83.5 -34t34.5 -83t-34.5 -83t-83.5 -34t-82.5 34t-33.5 83zM182 1024h354v-874h204v-150h-558v150h204v724h-204v150z" />
    <glyph glyph-name="yicyrillic" unicode="&#x457;" 
d="M338 1254q0 -46 -32.5 -80.5t-77.5 -34.5q-46 0 -79 33.5t-33 81.5q0 49 33.5 81t76.5 32q47 0 79.5 -33.5t32.5 -79.5zM827 1254q0 -49 -33 -82t-76 -33q-45 0 -78 34t-33 81q0 48 33 80.5t78 32.5q42 0 75.5 -32t33.5 -81zM182 1024h354v-874h204v-150h-558v150h204
v724h-204v150z" />
    <glyph glyph-name="jecyrillic" unicode="&#x458;" 
d="M533 1297q0 49 33.5 83t82.5 34t83.5 -34t34.5 -83t-34.5 -83t-83.5 -34t-82.5 34t-33.5 83zM476 -219q50 0 79.5 28t29.5 82v983h-318v150h468v-1133q0 -117 -73.5 -188.5t-185.5 -71.5q-107 0 -183 77.5t-76 181.5h150q0 -42 32.5 -75.5t76.5 -33.5z" />
    <glyph glyph-name="ljecyrillic" unicode="&#x459;" 
d="M90 619q12 187 65 282.5t156 135.5h227v-401h62q63 0 111.5 -23t74.5 -56t42.5 -74.5t21.5 -71.5t5 -54v-78q0 -34 -6 -68.5t-23 -73.5t-44 -68.5t-74 -49t-108 -19.5h-212v887h-47q-49 -25 -71.5 -95t-29.5 -181l-36 -611h-150zM705 357q0 62 -36 95.5t-69 33.5h-63
v-336h63q41 0 73 30t32 99v78z" />
    <glyph glyph-name="njecyrillic" unicode="&#x45a;" 
d="M217 0h-150v1024h150v-388h170v388h150v-388h63q102 0 178.5 -78t76.5 -185v-78q0 -133 -76.5 -214t-178.5 -81h-213v486h-170v-486zM537 150h63q41 0 73 38t32 107v78q0 44 -32 78.5t-73 34.5h-63v-336z" />
    <glyph glyph-name="tshecyrillic" unicode="&#x45b;" 
d="M2 1178v150h453v-150h-453zM257 0h-150v1400h150v-443q89 92 195 92h18q80 0 141.5 -19t99.5 -49.5t62 -74.5t33 -89t9 -98v-719h-150v719q0 98 -43 139t-152 41h-18q-48 0 -94.5 -53.5t-73.5 -123.5t-27 -125v-597z" />
    <glyph glyph-name="kjecyrillic" unicode="&#x45c;" 
d="M401 1161l-140 135l258 272l140 -135zM257 0h-150v1024h150v-657l451 657l124 -85l-338 -491l339 -448h-188l-241 317l-147 -214v-103z" />
    <glyph glyph-name="iicyrillic_gravemodifier" unicode="&#x45d;" 
d="M665 1295l-140 -135l-258 272l140 135zM107 0v1024h150v-706l426 706h132v-1024h-150v704l-425 -704h-133z" />
    <glyph glyph-name="ushortcyrillic" unicode="&#x45e;" 
d="M478 1169q-84 0 -158.5 37t-128.5 102l115 96q70 -85 172 -85q105 0 178 86l114 -97q-55 -65 -131 -102t-161 -37zM841 1024l-261 -1154q-15 -65 -42 -112.5t-54.5 -71t-62 -37t-55 -16t-42.5 -2.5q-79 0 -145.5 50.5t-95.5 120.5l138 56q13 -31 43 -54t60 -23
q34 0 67 37.5t45 91.5l44 195l-372 919h163l267 -660l149 660h154z" />
    <glyph glyph-name="dzhecyrillic" unicode="&#x45f;" 
d="M257 150h408v874h150v-1024h-279v-385h-150v385h-279v1024h151z" />
    <glyph glyph-name="quoteleft" unicode="&#x2018;" 
d="M310 1108q0 346 298 380l15 -55q-49 -18 -96.5 -59t-47.5 -85q0 -56 34 -66q45 -13 67.5 -44.5t22.5 -70.5q0 -59 -41.5 -102t-104.5 -43t-105 42t-42 103z" />
    <glyph glyph-name="quoteright" unicode="&#x2019;" 
d="M643 1363q0 -346 -298 -380l-15 55q49 18 96.5 59t47.5 85q0 56 -34 66q-45 13 -67.5 44.5t-22.5 70.5q0 59 41.5 102t104.5 43t105 -42t42 -103z" />
    <glyph glyph-name="quotesinglbase" unicode="&#x201a;" 
d="M607 268q0 -346 -298 -380l-15 55q49 18 96.5 59t47.5 85q0 56 -34 66q-45 13 -67.5 44.5t-22.5 70.5q0 59 41.5 102t104.5 43t105 -42t42 -103z" />
    <glyph glyph-name="apostrophereverse" unicode="&#x201b;" 
d="M320 1313q0 61 42 103t105 42t104.5 -43t41.5 -102q0 -39 -22.5 -70.5t-67.5 -44.5q-34 -10 -34 -66q0 -44 47.5 -85t96.5 -59l-15 -55q-298 34 -298 380z" />
    <glyph glyph-name="quotedblleft" unicode="&#x201c;" 
d="M557 1108q0 346 298 380l15 -55q-49 -18 -96.5 -59t-47.5 -85q0 -56 34 -66q45 -13 67.5 -44.5t22.5 -70.5q0 -59 -41.5 -102t-104.5 -43t-105 42t-42 103zM129 1108q0 346 298 380l15 -55q-49 -18 -96.5 -59t-47.5 -85q0 -56 34 -66q45 -13 67.5 -44.5t22.5 -70.5
q0 -59 -41.5 -102t-104.5 -43t-105 42t-42 103z" />
    <glyph glyph-name="quotedblright" unicode="&#x201d;" 
d="M419 1288q0 -346 -298 -380l-15 55q49 18 96.5 59t47.5 85q0 56 -34 66q-45 13 -67.5 44.5t-22.5 70.5q0 59 41.5 102t104.5 43t105 -42t42 -103zM848 1287q0 -346 -298 -380l-15 55q49 18 96.5 59t47.5 85q0 56 -34 66q-45 13 -67.5 44.5t-22.5 70.5q0 59 41.5 102
t104.5 43t105 -42t42 -103z" />
    <glyph glyph-name="quotedblbase" unicode="&#x201e;" 
d="M395 277q0 -346 -298 -380l-15 55q49 18 96.5 59t47.5 85q0 56 -34 66q-45 13 -67.5 44.5t-22.5 70.5q0 59 41.5 102t104.5 43t105 -42t42 -103zM824 276q0 -346 -298 -380l-15 55q49 18 96.5 59t47.5 85q0 56 -34 66q-45 13 -67.5 44.5t-22.5 70.5q0 59 41.5 102
t104.5 43t105 -42t42 -103z" />
    <glyph glyph-name="dagger" unicode="&#x2020;" 
d="M832 1024v-149h-296v-1260h-150v1260h-296v149h296v401h150v-401h296z" />
    <glyph glyph-name="daggerdbl" unicode="&#x2021;" 
d="M832 1024v-149h-296v-711h296v-150h-296v-399h-150v399h-296v150h296v711h-296v149h296v401h150v-401h296z" />
    <glyph glyph-name="bullet" unicode="&#x2022;" 
d="M650 669q0 -75 -57 -136.5t-133 -61.5t-132.5 62.5t-56.5 135.5q0 76 57 135.5t132 59.5t132.5 -59.5t57.5 -135.5z" />
    <glyph glyph-name="ellipsis" unicode="&#x2026;" 
d="M845 113q0 -32 -22.5 -56.5t-54.5 -24.5q-31 0 -53.5 24t-22.5 57q0 32 22 56t54 24q33 0 55 -24.5t22 -55.5zM229 113q0 -32 -22 -56.5t-54 -24.5t-54 24t-22 57q0 32 22 56t54 24t54 -24.5t22 -55.5zM537 113q0 -32 -22.5 -56.5t-54.5 -24.5q-31 0 -53 24t-22 57
q0 32 21.5 56t53.5 24q33 0 55 -24.5t22 -55.5z" />
    <glyph glyph-name="minute" unicode="&#x2032;" 
d="M616 1363q0 -346 -298 -380l-15 55q49 18 96.5 59t47.5 85q0 56 -34 66q-45 13 -67.5 44.5t-22.5 70.5q0 59 41.5 102t104.5 43t105 -42t42 -103z" />
    <glyph glyph-name="second" unicode="&#x2033;" 
d="M419 1288q0 -346 -298 -380l-15 55q49 18 96.5 59t47.5 85q0 56 -34 66q-45 13 -67.5 44.5t-22.5 70.5q0 59 41.5 102t104.5 43t105 -42t42 -103zM848 1287q0 -346 -298 -380l-15 55q49 18 96.5 59t47.5 85q0 56 -34 66q-45 13 -67.5 44.5t-22.5 70.5q0 59 41.5 102
t104.5 43t105 -42t42 -103z" />
    <glyph glyph-name="guilsinglleft" unicode="&#x2039;" 
d="M90 636l742 611v-195l-550 -452l550 -452v-195l-742 611v72z" />
    <glyph glyph-name="guilsinglright" unicode="&#x203a;" 
d="M90 1247l742 -611v-72l-742 -611v195l550 452l-550 452v195z" />
    <glyph glyph-name="fraction" unicode="&#x2044;" 
d="M670 1452l140 -52l-558 -1452l-140 52z" />
    <glyph glyph-name="uni2074" unicode="&#x2074;" 
d="M526 1177l-198 -263h198v263zM118 884l408 541h150v-511h116v-150h-116v-220h-150v220h-408v120z" />
    <glyph glyph-name="nsuperior" unicode="&#x207f;" 
d="M453 1274q-42 0 -76.5 -47.5t-51 -104t-16.5 -98.5v-480h-150v880h150v-57q31 33 63 45t81 12h16q60 0 108 -12.5t78.5 -31t52 -47t32 -52t16.5 -56.5t6.5 -49.5t0.5 -40.5v-591h-150v591q0 66 -30 102.5t-114 36.5h-16z" />
    <glyph glyph-name="euro" unicode="&#x20ac;" 
d="M90 832v150h100q52 443 354 443q97 0 176 -39t121 -119l-132 -70q-41 78 -165 78q-84 0 -133 -70t-68 -223h400v-150h-411l-1 -192h282v-150h-272q37 -365 203 -365q123 0 164 81l134 -68q-42 -82 -121.5 -122.5t-176.5 -40.5q-303 0 -354 515h-130v150h121l1 192h-92z
" />
    <glyph glyph-name="numero" unicode="&#x2116;" 
d="M709 622q32 0 50 72.5t18 209.5q0 136 -18 207.5t-50 71.5t-50 -71t-18 -208t18 -209.5t50 -72.5zM907 904q0 -64 -3.5 -117t-15.5 -114.5t-33 -103.5t-58 -70t-88 -28t-88 28t-58 70t-33 103.5t-15.5 114.5t-3.5 117q0 429 198 429q49 0 85.5 -25.5t57.5 -65t34 -98
t17 -115t4 -125.5zM15 0v1400h154l174 -805v805h150v-1400h-154l-174 805v-805h-150z" />
    <glyph glyph-name="trademark" unicode="&#x2122;" 
d="M413 466v784h-102v-781h-150v781h-125v150h377h152l96 -436l97 436h151l-1 -934h-150v242l-41 -189h-112l-42 192v-245h-150z" />
    <glyph glyph-name="arrowleft" unicode="&#x2190;" 
d="M872 680v-160h-585l230 -223l-112 -114l-355 344v146l355 344l112 -114l-230 -223h585z" />
    <glyph glyph-name="uparrow" unicode="&#x2191;" 
d="M541 209h-160v585l-223 -230l-114 112l357 368h120l357 -368l-114 -112l-223 230v-585z" />
    <glyph glyph-name="arrowright" unicode="&#x2192;" 
d="M50 520v160h585l-230 223l112 114l355 -344v-146l-355 -344l-112 114l230 223h-585z" />
    <glyph glyph-name="downarrow" unicode="&#x2193;" 
d="M381 991h160v-585l223 230l114 -112l-357 -368h-120l-357 368l114 112l223 -230v585z" />
    <glyph glyph-name="arrowboth" unicode="&#x2194;" 
d="M922 536l-311 -349l-120 106l203 227h-466l203 -227l-120 -106l-311 349v128l311 349l120 -106l-203 -227h466l-203 227l120 106l311 -349v-128z" />
    <glyph glyph-name="arrowbothv" unicode="&#x2195;" 
d="M400 87l-356 367l114 112l223 -230v528l-223 -230l-114 112l356 367h122l356 -367l-114 -112l-223 230v-528l223 230l114 -112l-356 -367h-122z" />
    <glyph glyph-name="updownarrowbar" unicode="&#x21a8;" 
d="M872 138v-160h-822v160h300l-306 316l114 112l223 -230v528l-223 -230l-114 112l356 367h122l356 -367l-114 -112l-223 230v-528l223 230l114 -112l-306 -316h300z" />
    <glyph glyph-name="minus" unicode="&#x2212;" 
d="M872 675v-150h-822v150h822z" />
    <glyph glyph-name="bulletoperator" unicode="&#x2219;" 
d="M606 747q0 -60 -41 -103t-105 -43q-62 0 -104 43t-42 103q0 59 41.5 103t104.5 44t104.5 -43.5t41.5 -103.5z" />
    <glyph glyph-name="radical" unicode="&#x221a;" 
d="M441 -25l-245 930h-148v150h264l186 -706l235 1284h153l-304 -1658h-141z" />
    <glyph glyph-name="infinity" unicode="&#x221e;" 
d="M536 618q0 -56 27.5 -103.5t82.5 -47.5q48 0 76.5 46.5t28.5 108.5q0 60 -27.5 103t-77.5 43q-48 0 -79 -49t-31 -101zM21 618q0 77 28.5 144t88 111.5t138.5 44.5q111 0 186 -90q75 90 184 90q113 0 184 -85.5t71 -214.5q0 -51 -15.5 -102t-45 -96.5t-80 -74
t-114.5 -28.5q-114 0 -185 84q-71 -84 -185 -84q-112 0 -183.5 90.5t-71.5 210.5zM171 618q0 -62 26 -106.5t79 -44.5t81.5 45.5t28.5 105.5q0 54 -30 102t-80 48q-45 0 -75 -46.5t-30 -103.5z" />
    <glyph glyph-name="intersection" unicode="&#x2229;" 
d="M107 1063q0 98 45.5 184.5t125.5 139.5t174 53h18q144 0 244.5 -112t100.5 -265v-1063h-150v1063q0 91 -57 159t-138 68h-18q-80 0 -137.5 -69.5t-57.5 -157.5v-1063h-150v1063z" />
    <glyph glyph-name="almostequal" unicode="&#x2248;" 
d="M67 809q21 61 49.5 105.5t55 68t57 37.5t50 17t38.5 3h15q72 0 138 -66l93 -92q6 -6 19.5 -12t17.5 -6h15q27 0 54 37t44 87l142 -46q-11 -32 -29 -66t-47.5 -73t-75 -64t-98.5 -25h-15q-70 0 -133 62l-93 92q-6 6 -21.5 14t-20.5 8h-15q-53 0 -96 -123zM67 361
q21 61 49.5 105.5t55 68t57 37.5t50 17t38.5 3h15q72 0 138 -66l93 -92q6 -6 19.5 -12t17.5 -6h15q30 0 55.5 36t42.5 88l142 -46q-78 -228 -250 -228h-15q-70 0 -133 62l-93 92q-6 6 -21.5 14t-20.5 8h-15q-53 0 -96 -123z" />
    <glyph glyph-name="equivalence" unicode="&#x2261;" 
d="M872 995v-150h-822v150h822zM872 675v-150h-822v150h822zM872 353v-150h-822v150h822z" />
    <glyph glyph-name="lessequal" unicode="&#x2264;" 
d="M90 917l742 360v-166l-524 -255l524 -277v-169l-742 392v115zM90 643l742 -390v-169l-742 390v169z" />
    <glyph glyph-name="greaterequal" unicode="&#x2265;" 
d="M90 1111v166l742 -360v-115l-742 -392v169l524 277zM90 84v169l742 390v-169z" />
    <glyph glyph-name="revlogicalnot" unicode="&#x2310;" 
d="M257 525v-311h-150v461h765v-150h-615z" />
    <glyph glyph-name="integraltp" unicode="&#x2320;" 
d="M381 1414q0 89 59 151.5t160 62.5h10q93 0 151.5 -61t58.5 -153v-106h-160v106q0 54 -50 54h-10q-59 0 -59 -54v-2029h-160v2029z" />
    <glyph glyph-name="integralbt" unicode="&#x2321;" 
d="M541 -324q0 -89 -59 -151.5t-160 -62.5h-10q-93 0 -151.5 61t-58.5 153v106h160v-106q0 -54 50 -54h10q59 0 59 54v2099h160v-2099z" />
    <glyph glyph-name="spaceopenbox" unicode="&#x2423;" 
d="M815 124v-291h-708v291h150v-141h408v141h150z" />
    <glyph glyph-name="lthorizform" unicode="&#x2500;" 
d="M0 443v160h922v-160h-922z" />
    <glyph glyph-name="ltvertform" unicode="&#x2502;" 
d="M541 -615h-160v2390h160v-2390z" />
    <glyph glyph-name="rightanglenw" unicode="&#x250c;" 
d="M381 -615v1218h541v-160h-381v-1058h-160z" />
    <glyph glyph-name="rightanglene" unicode="&#x2510;" 
d="M381 443h-381v160h541v-1218h-160v1058z" />
    <glyph glyph-name="rightanglesw" unicode="&#x2514;" 
d="M541 603h381v-160h-541v1332h160v-1172z" />
    <glyph glyph-name="rightanglese" unicode="&#x2518;" 
d="M541 1775v-1332h-541v160h381v1172h160z" />
    <glyph glyph-name="ltvertrightform" unicode="&#x251c;" 
d="M541 -615h-160v2390h160v-1172h381v-160h-381v-1058z" />
    <glyph glyph-name="ltvertleftform" unicode="&#x2524;" 
d="M0 443v160h381v1172h160v-2390h-160v1058h-381z" />
    <glyph glyph-name="ltdnhorizform" unicode="&#x252c;" 
d="M0 443v160h922v-160h-381v-1058h-160v1058h-381z" />
    <glyph glyph-name="ltuphorizform" unicode="&#x2534;" 
d="M0 443v160h381v1172h160v-1172h381v-160h-922z" />
    <glyph glyph-name="ltverthorizform" unicode="&#x253c;" 
d="M0 443v160h381v1172h160v-1172h381v-160h-381v-1058h-160v1058h-381z" />
    <glyph glyph-name="horizdblbar" unicode="&#x2550;" 
d="M0 603v160h922v-160h-922zM0 283v160h922v-160h-922z" />
    <glyph glyph-name="vertdblbar" unicode="&#x2551;" 
d="M701 -615h-160v2390h160v-2390zM381 -615h-160v2390h160v-2390z" />
    <glyph glyph-name="dnrtdblform" unicode="&#x2552;" 
d="M541 283v-898h-160v1378h541v-160h-381v-160h381v-160h-381z" />
    <glyph glyph-name="dndblrtform" unicode="&#x2553;" 
d="M701 -615h-160v1058h-160v-1058h-160v1218h701v-160h-221v-1058z" />
    <glyph glyph-name="dbldnrtform" unicode="&#x2554;" 
d="M381 603v-1218h-160v1378h701v-160h-541zM701 283v-898h-160v1058h381v-160h-221z" />
    <glyph glyph-name="dnleftdblform" unicode="&#x2555;" 
d="M0 763h541v-1378h-160v898h-381v160h381v160h-381v160z" />
    <glyph glyph-name="dndblleftform" unicode="&#x2556;" 
d="M381 -615h-160v1058h-221v160h701v-1218h-160v1058h-160v-1058z" />
    <glyph glyph-name="dbldnleftform" unicode="&#x2557;" 
d="M0 763h701v-1378h-160v1218h-541v160zM0 443h381v-1058h-160v898h-221v160z" />
    <glyph glyph-name="uprtdblform" unicode="&#x2558;" 
d="M922 283h-541v1492h160v-1012h381v-160h-381v-160h381v-160z" />
    <glyph glyph-name="updblrtform" unicode="&#x2559;" 
d="M701 603h221v-160h-701v1332h160v-1172h160v1172h160v-1172z" />
    <glyph glyph-name="dbluprtform" unicode="&#x255a;" 
d="M922 603h-381v1172h160v-1012h221v-160zM922 283h-701v1492h160v-1332h541v-160z" />
    <glyph glyph-name="upleftdblform" unicode="&#x255b;" 
d="M0 603v160h381v1012h160v-1492h-541v160h381v160h-381z" />
    <glyph glyph-name="updblleftform" unicode="&#x255c;" 
d="M701 1775v-1332h-701v160h221v1172h160v-1172h160v1172h160z" />
    <glyph glyph-name="dblupleftform" unicode="&#x255d;" 
d="M221 763v1012h160v-1172h-381v160h221zM541 443v1332h160v-1492h-701v160h541z" />
    <glyph glyph-name="vertrtdblform" unicode="&#x255e;" 
d="M541 -615h-160v2390h160v-1012h381v-160h-381v-160h381v-160h-381v-898z" />
    <glyph glyph-name="vertdblrtform" unicode="&#x255f;" 
d="M381 1775v-2390h-160v2390h160zM541 1775h160v-1172h221v-160h-221v-1058h-160v2390z" />
    <glyph glyph-name="dblvertrtform" unicode="&#x2560;" 
d="M381 -615h-160v2390h160v-2390zM922 603h-381v1172h160v-1012h221v-160zM701 283v-898h-160v1058h381v-160h-221z" />
    <glyph glyph-name="vertleftdblform" unicode="&#x2561;" 
d="M541 -615h-160v898h-381v160h381v160h-381v160h381v1012h160v-2390z" />
    <glyph glyph-name="vertdblleftform" unicode="&#x2562;" 
d="M0 443v160h221v1172h160v-2390h-160v1058h-221zM701 -615h-160v2390h160v-2390z" />
    <glyph glyph-name="dblvertleftform" unicode="&#x2563;" 
d="M701 -615h-160v2390h160v-2390zM221 763v1012h160v-1172h-381v160h221zM0 443h381v-1058h-160v898h-221v160z" />
    <glyph glyph-name="dnhorizdblform" unicode="&#x2564;" 
d="M541 -615h-160v898h-381v160h922v-160h-381v-898zM0 603v160h922v-160h-922z" />
    <glyph glyph-name="dndblhorizform" unicode="&#x2565;" 
d="M0 443v160h922v-160h-221v-1058h-160v1058h-160v-1058h-160v1058h-221z" />
    <glyph glyph-name="dbldnhorizform" unicode="&#x2566;" 
d="M0 603v160h922v-160h-922zM0 443h381v-1058h-160v898h-221v160zM701 283v-898h-160v1058h381v-160h-221z" />
    <glyph glyph-name="uphorizdblform" unicode="&#x2567;" 
d="M0 603v160h381v1012h160v-1012h381v-160h-922zM0 283v160h922v-160h-922z" />
    <glyph glyph-name="updblhorizform" unicode="&#x2568;" 
d="M0 443v160h221v1172h160v-1172h160v1172h160v-1172h221v-160h-922z" />
    <glyph glyph-name="dbluphorizform" unicode="&#x2569;" 
d="M221 763v1012h160v-1172h-381v160h221zM922 603h-381v1172h160v-1012h221v-160zM0 283v160h922v-160h-922z" />
    <glyph glyph-name="verthorizdblform" unicode="&#x256a;" 
d="M0 603v160h381v1012h160v-1012h381v-160h-922zM0 443h922v-160h-381v-898h-160v898h-381v160z" />
    <glyph glyph-name="vertdblhorizform" unicode="&#x256b;" 
d="M541 1775h160v-1172h221v-160h-221v-1058h-160v2390zM381 -615h-160v1058h-221v160h221v1172h160v-2390z" />
    <glyph glyph-name="dblverthorizform" unicode="&#x256c;" 
d="M221 763v1012h160v-1172h-381v160h221zM922 603h-381v1172h160v-1012h221v-160zM0 443h381v-1058h-160v898h-221v160zM701 283v-898h-160v1058h381v-160h-221z" />
    <glyph glyph-name="upblock" unicode="&#x2580;" 
d="M922 523h-922v1252h922v-1252z" />
    <glyph glyph-name="dnblock" unicode="&#x2584;" 
d="M922 -615h-922v1138h922v-1138z" />
    <glyph glyph-name="block" unicode="&#x2588;" 
d="M0 -615v2390h922v-2390h-922z" />
    <glyph glyph-name="lfblock" unicode="&#x258c;" 
d="M0 -615v2390h461v-2390h-461z" />
    <glyph glyph-name="rtblock" unicode="&#x2590;" 
d="M461 -615v2390h461v-2390h-461z" />
    <glyph glyph-name="shadelight" unicode="&#x2591;" 
d="M0 1378h77v-100h-77v100zM307 1378h78v-100h-78v100zM616 1378h77v-100h-77v100zM153 1179h77v-99h-77v99zM461 1179h79v-99h-79v99zM769 1179h77v-99h-77v99zM616 980h77v-99h-77v99zM307 980h78v-99h-78v99zM0 980h77v-99h-77v99zM769 781h77v-100h-77v100zM461 781h79
v-100h-79v100zM153 781h77v-100h-77v100zM0 581h77v-99h-77v99zM307 581h78v-99h-78v99zM616 581h77v-99h-77v99zM769 382h77v-99h-77v99zM461 382h79v-99h-79v99zM153 382h77v-99h-77v99zM0 183h77v-100h-77v100zM307 183h78v-100h-78v100zM616 183h77v-100h-77v100z
M153 -16h77v-99h-77v99zM461 -16h79v-99h-79v99zM769 -16h77v-99h-77v99zM616 -215h77v-100h-77v100zM307 -215h78v-100h-78v100zM0 -215h77v-100h-77v100zM153 -414h77v-100h-77v100zM461 -414h79v-100h-79v100zM769 -414h77v-100h-77v100zM153 1577h77v-100h-77v100z
M461 1577h79v-100h-79v100zM769 1577h77v-100h-77v100zM0 1775h77v-98h-77v98zM307 1775h78v-98h-78v98zM616 1775h77v-98h-77v98z" />
    <glyph glyph-name="shademedium" unicode="&#x2592;" 
d="M77 1378h76v-100h-76v100zM230 1378h77v-100h-77v100zM384 1378h77v-100h-77v100zM539 1378h77v-100h-77v100zM692 1378h77v-100h-77v100zM846 1378h76v-100h-76v100zM0 1179h77v-99h-77v99zM153 1179h77v-99h-77v99zM307 1179h77v-99h-77v99zM461 1179h78v-99h-78v99z
M616 1179h76v-99h-76v99zM769 1179h77v-99h-77v99zM77 980h76v-99h-76v99zM230 980h77v-99h-77v99zM384 980h77v-99h-77v99zM539 980h77v-99h-77v99zM692 980h77v-99h-77v99zM846 980h76v-99h-76v99zM0 781h77v-100h-77v100zM153 781h77v-100h-77v100zM307 781h77v-100h-77
v100zM461 781h78v-100h-78v100zM616 781h76v-100h-76v100zM769 781h77v-100h-77v100zM77 581h76v-99h-76v99zM230 581h77v-99h-77v99zM384 581h77v-99h-77v99zM539 581h77v-99h-77v99zM692 581h77v-99h-77v99zM846 581h76v-99h-76v99zM0 382h77v-99h-77v99zM307 382h77v-99
h-77v99zM461 382h78v-99h-78v99zM616 382h76v-99h-76v99zM769 382h77v-99h-77v99zM153 382h77v-99h-77v99zM846 183h76v-100h-76v100zM692 183h77v-100h-77v100zM539 183h77v-100h-77v100zM384 183h77v-100h-77v100zM230 183h77v-100h-77v100zM77 183h76v-100h-76v100z
M0 -16h77v-99h-77v99zM153 -16h77v-99h-77v99zM307 -16h77v-99h-77v99zM461 -16h78v-99h-78v99zM616 -16h76v-99h-76v99zM769 -16h77v-99h-77v99zM846 -215h76v-100h-76v100zM692 -215h77v-100h-77v100zM539 -215h77v-100h-77v100zM384 -215h77v-100h-77v100zM230 -215h77
v-100h-77v100zM77 -215h76v-100h-76v100zM0 -414h77v-100h-77v100zM153 -414h77v-100h-77v100zM307 -414h77v-100h-77v100zM461 -414h78v-100h-78v100zM616 -414h76v-100h-76v100zM769 -414h77v-100h-77v100zM0 1577h77v-100h-77v100zM153 1577h77v-100h-77v100zM307 1577
h77v-100h-77v100zM461 1577h78v-100h-78v100zM616 1577h76v-100h-76v100zM769 1577h77v-100h-77v100zM77 1775h76v-98h-76v98zM230 1775h77v-98h-77v98zM384 1775h77v-98h-77v98zM539 1775h77v-98h-77v98zM692 1775h77v-98h-77v98zM846 1775h76v-98h-76v98z" />
    <glyph glyph-name="shadedark" unicode="&#x2593;" 
d="M922 1577h-76v-99h76v-299h-76v-99h76v-299h-76v-100h76v-299h-76v-99h76v-299h-76v-99h76v-299h-76v-100h76v-101h-922v300h77v100h-77v298h77v100h-77v299h77v99h-77v300h77v99h-77v299h77v99h-77v299h77v98h76v-98h77v98h77v-98h77v98h77v-98h78v98h77v-98h76v98h77
v-98h77v98h76v-198zM77 1179v-99h76v99h-76zM230 1179v-99h77v99h-77zM384 1179v-99h77v99h-77zM539 1179v-99h77v99h-77zM692 1179v-99h77v99h-77zM846 980h-77v-100h77v100zM692 980h-76v-100h76v100zM539 980h-78v-100h78v100zM384 980h-77v-100h77v100zM230 980h-77
v-100h77v100zM77 781v-100h76v100h-76zM230 781v-100h77v100h-77zM384 781v-100h77v100h-77zM539 781v-100h77v100h-77zM692 781v-100h77v100h-77zM230 581h-77v-99h77v99zM307 581v-99h77v99h-77zM461 581v-99h78v99h-78zM616 581v-99h76v99h-76zM769 581v-99h77v99h-77z
M77 382v-99h76v99h-76zM384 382v-99h77v99h-77zM307 283v99h-77v-99h77zM539 382v-99h77v99h-77zM692 382v-99h77v99h-77zM846 84v99h-77v-99h77zM692 84v99h-76v-99h76zM539 84v99h-78v-99h78zM384 84v99h-77v-99h77zM230 84v99h-77v-99h77zM77 -16v-99h76v99h-76zM230 -16
v-99h77v99h-77zM384 -16v-99h77v99h-77zM539 -16v-99h77v99h-77zM692 -16v-99h77v99h-77zM846 -315v100h-77v-100h77zM692 -315v100h-76v-100h76zM539 -315v100h-78v-100h78zM384 -315v100h-77v-100h77zM230 -315v100h-77v-100h77zM77 -414v-100h76v100h-76zM230 -414v-100
h77v100h-77zM384 -414v-100h77v100h-77zM539 -414v-100h77v100h-77zM692 -414v-100h77v100h-77zM846 1378h-77v-99h77v99zM692 1378h-76v-99h76v99zM539 1378h-78v-99h78v99zM384 1378h-77v-99h77v99zM230 1378h-77v-99h77v99zM769 1577h-77v-99h77v99zM616 1577h-77v-99h77
v99zM461 1577h-77v-99h77v99zM307 1577h-77v-99h77v99zM153 1577h-76v-99h76v99z" />
    <glyph glyph-name="blacksquare" unicode="&#x25a0;" 
d="M0 1108h922v-992h-922v992z" />
    <glyph glyph-name="whitesquare" unicode="&#x25a1;" 
d="M0 1109h922v-993h-922v993zM187 917v-609h547v609h-547z" />
    <glyph glyph-name="blacksmallsquare" unicode="&#x25aa;" 
d="M697 400h-473v473h473v-473z" />
    <glyph glyph-name="whitesmallsquare" unicode="&#x25ab;" 
d="M697 400h-473v473h473v-473zM579 514v245h-237v-245h237z" />
    <glyph glyph-name="blackrectangle" unicode="&#x25ac;" 
d="M0 626h922v-231h-922v231z" />
    <glyph glyph-name="triagup" unicode="&#x25b2;" 
d="M0 114l460 800l462 -800h-922z" />
    <glyph glyph-name="triagrt" unicode="&#x25ba;" 
d="M63 -63l-2 923l800 -462z" />
    <glyph glyph-name="triagdn" unicode="&#x25bc;" 
d="M922 914l-460 -800l-462 800h922z" />
    <glyph glyph-name="triaglf" unicode="&#x25c4;" 
d="M62 398l798 463v-924z" />
    <glyph glyph-name="lozenge" unicode="&#x25ca;" 
d="M501 1287l333 -578l-333 -574h-90l-322 574l322 578h90zM458 1059l-197 -349l197 -349l199 349z" />
    <glyph glyph-name="whitecircle" unicode="&#x25cb;" 
d="M461 934q150 0 253.5 -105t103.5 -251q0 -150 -104.5 -253.5t-252.5 -103.5q-151 0 -254 104t-103 253q0 143 102 249.5t255 106.5zM461 784q-88 0 -147.5 -61t-59.5 -145q0 -91 62 -149t145 -58q87 0 147 60.5t60 146.5q0 82 -59 144t-148 62z" />
    <glyph glyph-name="blackcircle" unicode="&#x25cf;" 
d="M461 934q150 0 253.5 -105t103.5 -251q0 -150 -104.5 -253.5t-252.5 -103.5q-151 0 -254 104t-103 253q0 143 102 249.5t255 106.5z" />
    <glyph glyph-name="bulletinverse" unicode="&#x25d8;" 
d="M63 93v794h794v-794h-794zM460 654q-67 0 -115 -47t-48 -117t49 -117t114 -47q68 0 116 48t48 116t-47.5 116t-116.5 48z" />
    <glyph glyph-name="whitecircleinverse" unicode="&#x25d9;" 
d="M0 110v935h922v-935h-922zM461 934q-145 0 -250.5 -103.5t-105.5 -253.5q0 -149 103 -252.5t253 -103.5q146 0 251.5 101.5t105.5 254.5q0 148 -103.5 252.5t-253.5 104.5zM462 784q86 0 146 -60.5t60 -146.5q0 -87 -60.5 -146.5t-145.5 -59.5q-86 0 -146.5 59t-60.5 147
q0 87 61.5 147t145.5 60z" />
    <glyph glyph-name="whitebullet" unicode="&#x25e6;" 
d="M691 637q0 -100 -69 -165.5t-162 -65.5q-96 0 -163 67t-67 164q0 96 67 163t163 67q98 0 164.5 -67t66.5 -163zM579 637q0 50 -35 83.5t-84 33.5q-47 0 -82 -33t-35 -84q0 -52 35 -85t82 -33q50 0 84.5 34.5t34.5 83.5z" />
    <glyph glyph-name="smileface" unicode="&#x263a;" 
d="M921 584q0 -193 -133.5 -326.5t-327.5 -133.5q-193 0 -326.5 134t-133.5 326q0 130 63 236.5t168.5 165.5t228.5 59q194 0 327.5 -134t133.5 -327zM795 584q0 141 -97 238t-238 97q-140 0 -236.5 -97.5t-96.5 -237.5q0 -143 98.5 -238.5t234.5 -95.5q138 0 236.5 96
t98.5 238zM368 666q0 -24 -16.5 -41t-41.5 -17q-23 0 -39.5 17.5t-16.5 40.5q0 22 16 39t40 17q25 0 41.5 -17t16.5 -39zM667 666q0 -24 -15.5 -41t-39.5 -17q-25 0 -41.5 17t-16.5 41q0 23 16 39.5t42 16.5q24 0 39.5 -16.5t15.5 -39.5zM280 458l39 22q49 -88 141 -88
q93 0 142 88l39 -22q-61 -120 -181 -120q-117 0 -180 120z" />
    <glyph glyph-name="invsmileface" unicode="&#x263b;" 
d="M921 584q0 -193 -133.5 -326.5t-327.5 -133.5q-193 0 -326.5 134t-133.5 326q0 130 63 236.5t168.5 165.5t228.5 59q194 0 327.5 -134t133.5 -327zM343 680q0 23 -17 40.5t-42 17.5t-41.5 -17.5t-16.5 -40.5t17 -41t41 -18q25 0 42 17.5t17 41.5zM695 680q0 24 -16 41
t-41 17q-26 0 -42.5 -17t-16.5 -41t17 -41.5t42 -17.5q24 0 40.5 17.5t16.5 41.5zM248 436q74 -141 212 -141t213 141l-46 26q-57 -104 -167 -104q-109 0 -166 104z" />
    <glyph glyph-name="compass" unicode="&#x263c;" 
d="M436 932h50v-163q80 0 168 -68l141 137l33 -34l-138 -139q70 -92 70 -173h162v-44h-162q-11 -94 -69 -168l137 -143l-35 -32l-139 137q-78 -59 -168 -69v-163h-50v163q-92 13 -167 67l-142 -134l-32 33l137 139q-60 76 -70 170h-162v46h162q0 84 69 169l-136 139l30 37
l143 -137q84 58 168 67v163zM460 722q-107 0 -178.5 -73.5t-71.5 -177.5q0 -105 72 -177.5t178 -72.5q107 0 178.5 73.5t71.5 176.5q0 105 -73 178t-177 73z" />
    <glyph glyph-name="female" unicode="&#x2640;" 
d="M426 577q-105 15 -174 95t-69 190q0 127 83 209t196 82t196 -82.5t83 -208.5q0 -115 -70.5 -193.5t-171.5 -91.5v-165h248v-69h-248v-263h-73v263h-251v69h251v165zM461 1069q-83 0 -141 -59.5t-58 -145.5q0 -87 58.5 -146.5t140.5 -59.5t141 59t59 147t-59 146.5
t-141 58.5z" />
    <glyph glyph-name="male" unicode="&#x2642;" 
d="M474 782l251 261q-22 11 -75 32t-93.5 36.5t-40.5 17.5l21 24h327l16 -15v-345l-23 -21q-2 0 -18 44.5t-37 101.5t-31 78l-246 -256q81 -81 81 -192q0 -126 -83 -212t-200 -86q-119 0 -200 84t-81 201q0 120 81.5 205t201.5 85q69 0 149 -43zM325 750q-87 0 -147 -61.5
t-60 -150.5q0 -90 61.5 -151.5t145.5 -61.5q83 0 144.5 59.5t61.5 153.5q0 92 -61 152t-145 60z" />
    <glyph glyph-name="spade" unicode="&#x2660;" 
d="M461 1079q14 -60 42.5 -112t61.5 -90t69.5 -72.5t70.5 -65.5t61 -62t43.5 -69t16.5 -81q0 -73 -48 -120.5t-116 -47.5q-117 0 -192 144q0 -93 24 -159t66 -100.5t89.5 -49t104.5 -14.5l5 -28h-597l6 28q288 0 288 323q-66 -144 -196 -144q-68 0 -116.5 48t-48.5 117
q0 45 16.5 84t44 69.5t62 60.5t71.5 63.5t70 71t60.5 91t41.5 115.5z" />
    <glyph glyph-name="club" unicode="&#x2663;" 
d="M779 151h-634l5 25q1 0 6 1q17 2 31 5t47 13t58.5 23.5t57 39t53 57t36 79t14.5 104.5v35q-42 -85 -107 -131.5t-139 -46.5q-84 0 -145.5 57.5t-61.5 151.5t57 150.5t122 56.5q47 0 123 -39q-31 52 -40.5 78.5t-9.5 58.5q0 85 58 143.5t149 58.5q89 0 148.5 -58.5
t59.5 -141.5q0 -68 -52 -139q58 27 75.5 33t46.5 6q75 0 130 -58t55 -146q0 -91 -60.5 -151.5t-144.5 -60.5q-147 0 -246 172q-2 5 -3 6q0 -60 10 -109t24.5 -83t40.5 -61t48.5 -42.5t58.5 -28.5t60 -19t63 -14z" />
    <glyph glyph-name="heart" unicode="&#x2665;" 
d="M463 122q-22 83 -70.5 167.5t-100.5 151t-101 130t-80.5 126.5t-31.5 119q0 81 52 132t129 51q142 0 203 -175q25 91 79 133.5t119 42.5q78 0 129.5 -52t51.5 -123q0 -65 -31.5 -132t-80 -130.5t-99.5 -128t-98.5 -147t-69.5 -165.5z" />
    <glyph glyph-name="diamond" unicode="&#x2666;" 
d="M460 1068q54 -127 148 -252.5t197 -215.5q-83 -64 -183 -199t-162 -271q-52 118 -156.5 263t-185.5 207q204 177 342 468z" />
    <glyph glyph-name="musicalnote" unicode="&#x266a;" 
d="M419 358v688h61v-82l125 -154q88 -125 88 -258q0 -124 -77 -219h-38q48 105 48 201q0 97 -46 161t-100 73v-410q0 -98 -57.5 -160t-146.5 -62q-93 0 -93 80q0 62 47.5 109.5t115.5 47.5q36 0 73 -15z" />
    <glyph glyph-name="musicalnotedbl" unicode="&#x266b;" 
d="M839 368q0 -103 -60 -162t-143 -59q-52 0 -72.5 24t-20.5 56q0 62 47 108.5t116 46.5q35 0 73 -14v364l-446 -121v-319q0 -103 -60 -162t-144 -59q-52 0 -72.5 24t-20.5 56q0 61 47.5 108t116.5 47q42 0 72 -14v608l567 145v-677zM333 714l446 121v93l-446 -121v-93z" />
  </font>
</defs>
</svg>
